<svg version="1.1" xmlns="http://www.w3.org/2000/svg" viewBox="0 0 877.82421875 227.59375" width="877.82421875" height="227.59375">
  <!-- svg-source:excalidraw -->
  
  <defs>
    <style>
      @font-face {
        font-family: "Virgil";
        src: url("https://excalidraw.com/Virgil.woff2");
      }
      @font-face {
        font-family: "Cascadia";
        src: url("https://excalidraw.com/Cascadia.woff2");
      }
    </style>
  </defs>
  <rect x="0" y="0" width="877.82421875" height="227.59375" fill="#ffffff"></rect><g transform="translate(361.24665178571433 11.92578125) rotate(0 17.866908482142833 13.896484375)"><text x="0" y="19.792968749999993" font-family="Virgil, Segoe UI Emoji" font-size="22.110393243434636px" fill="#000000" text-anchor="start" style="white-space: pre;" direction="ltr">url1</text></g><g stroke-linecap="round"><g transform="translate(353.12159413568406 40.571150328066466) rotate(0 -55.31732964825244 28.705814993339544)"><path d="M-0.41 1.16 C-19.02 10.76, -93.53 47.56, -112.21 56.68 M1.58 0.73 C-16.6 10.03, -91.25 45.41, -109.87 54.78" stroke="#000000" stroke-width="1" fill="none"></path></g><g transform="translate(353.12159413568406 40.571150328066466) rotate(0 -55.31732964825244 28.705814993339544)"><path d="M-87.07 32.04 C-93.78 36.94, -100.45 42.77, -108.72 53.31 M-89.17 32.32 C-94.08 38.91, -100.68 45.24, -109.79 55.76" stroke="#000000" stroke-width="1" fill="none"></path></g><g transform="translate(353.12159413568406 40.571150328066466) rotate(0 -55.31732964825244 28.705814993339544)"><path d="M-78.09 50.49 C-86.94 50.66, -95.9 51.8, -108.72 53.31 M-80.19 50.77 C-87.8 52.17, -96.92 53.32, -109.79 55.76" stroke="#000000" stroke-width="1" fill="none"></path></g></g><g transform="translate(204.76171875 110.33984375) rotate(0 20 12.5)"><text x="0" y="18" font-family="Virgil, Segoe UI Emoji" font-size="20px" fill="#000000" text-anchor="start" style="white-space: pre;" direction="ltr">url2</text></g><g stroke-linecap="round"><g transform="translate(406.49609375 32.74826876440562) rotate(0 62.41966369661935 33.230913094990754)"><path d="M0.48 -1.02 C21.11 9.88, 102.75 55.13, 123.43 66.33 M-0.72 1.05 C20.28 12.02, 104.81 56.5, 125.56 67.49" stroke="#000000" stroke-width="1" fill="none"></path></g><g transform="translate(406.49609375 32.74826876440562) rotate(0 62.41966369661935 33.230913094990754)"><path d="M94.13 61.58 C102.81 64.41, 110.64 66.04, 125.2 66.59 M96.23 63.67 C102.84 64.28, 110.67 65.38, 125.49 67.93" stroke="#000000" stroke-width="1" fill="none"></path></g><g transform="translate(406.49609375 32.74826876440562) rotate(0 62.41966369661935 33.230913094990754)"><path d="M103.71 43.43 C109.9 51.27, 115.11 57.87, 125.2 66.59 M105.8 45.52 C110.28 50.51, 115.8 55.97, 125.49 67.93" stroke="#000000" stroke-width="1" fill="none"></path></g></g><g transform="translate(526.171875 110.76171875) rotate(0 19.5 12.5)"><text x="0" y="18" font-family="Virgil, Segoe UI Emoji" font-size="20px" fill="#000000" text-anchor="start" style="white-space: pre;" direction="ltr">url4</text></g><g stroke-linecap="round"><g transform="translate(379.91842324528477 48.05078125) rotate(0 0.9774521538280396 30.940439702942967)"><path d="M-0.2 -0.53 C0.19 9.87, 0.82 51.94, 1.34 62.41 M-1.76 1.81 C-0.9 11.89, 2.98 51.01, 3.71 60.78" stroke="#000000" stroke-width="1" fill="none"></path></g><g transform="translate(379.91842324528477 48.05078125) rotate(0 0.9774521538280396 30.940439702942967)"><path d="M-9.88 32.53 C-4.63 41.19, -1.99 45.8, 4.73 60.8 M-9.95 32.67 C-5.48 42.78, -1.13 51.44, 3.08 60.14" stroke="#000000" stroke-width="1" fill="none"></path></g><g transform="translate(379.91842324528477 48.05078125) rotate(0 0.9774521538280396 30.940439702942967)"><path d="M10.56 30.72 C11.3 39.74, 9.43 44.75, 4.73 60.8 M10.49 30.85 C8.11 41.39, 5.63 50.64, 3.08 60.14" stroke="#000000" stroke-width="1" fill="none"></path></g></g><g transform="translate(367.61328125 116.15625) rotate(0 20 12.5)"><text x="0" y="18" font-family="Virgil, Segoe UI Emoji" font-size="20px" fill="#000000" text-anchor="start" style="white-space: pre;" direction="ltr">url3</text></g><g stroke-linecap="round"><g transform="translate(183.98046875 124.34765625) rotate(0 -63.16798732273281 27.449647489711637)"><path d="M-1.13 -0.23 C-22.19 8.82, -105.13 45.39, -125.92 54.74 M0.47 -1.39 C-20.77 7.82, -105.64 47.03, -126.81 56.29" stroke="#000000" stroke-width="1" fill="none"></path></g><g transform="translate(183.98046875 124.34765625) rotate(0 -63.16798732273281 27.449647489711637)"><path d="M-105.71 35.53 C-112.44 42.49, -117.77 49.61, -128.61 56.64 M-105.07 34.82 C-112.03 42.54, -117.85 48.95, -127.21 56.15" stroke="#000000" stroke-width="1" fill="none"></path></g><g transform="translate(183.98046875 124.34765625) rotate(0 -63.16798732273281 27.449647489711637)"><path d="M-97.27 54.24 C-106.92 54.82, -115.08 55.65, -128.61 56.64 M-96.64 53.53 C-106.36 55.5, -114.81 56.09, -127.21 56.15" stroke="#000000" stroke-width="1" fill="none"></path></g></g><g stroke-linecap="round"><g transform="translate(195.22265625 129.01171875000003) rotate(0 -17.5433226284012 31.799161268360905)"><path d="M0.78 0.52 C-4.96 10.81, -28.79 51.97, -34.67 62.4 M-0.27 -0.25 C-6.18 10.17, -30.02 53.63, -35.87 63.85" stroke="#000000" stroke-width="1" fill="none"></path></g><g transform="translate(195.22265625 129.01171875000003) rotate(0 -17.5433226284012 31.799161268360905)"><path d="M-30.21 33.43 C-32.54 42.09, -32.69 51.47, -34.7 62.1 M-30.65 34.36 C-31.39 44.38, -33.4 52.99, -35.49 64.17" stroke="#000000" stroke-width="1" fill="none"></path></g><g transform="translate(195.22265625 129.01171875000003) rotate(0 -17.5433226284012 31.799161268360905)"><path d="M-12.29 43.44 C-19.7 49.41, -24.88 55.98, -34.7 62.1 M-12.74 44.37 C-19.14 51.31, -26.74 56.79, -35.49 64.17" stroke="#000000" stroke-width="1" fill="none"></path></g></g><g stroke-linecap="round"><g transform="translate(214.30078125 138.34375) rotate(0 12.548022765712801 26.148630687780667)"><path d="M1.08 -1.15 C5.31 7.63, 21.14 44.64, 24.9 53.45 M0.19 0.86 C4.37 9.24, 20.56 43.17, 24.3 51.79" stroke="#000000" stroke-width="1" fill="none"></path></g><g transform="translate(214.30078125 138.34375) rotate(0 12.548022765712801 26.148630687780667)"><path d="M2.04 32.28 C10.85 35.38, 13.21 41.77, 25.25 52.46 M4.91 30.23 C11.17 36.73, 16.74 44.08, 23.95 52.11" stroke="#000000" stroke-width="1" fill="none"></path></g><g transform="translate(214.30078125 138.34375) rotate(0 12.548022765712801 26.148630687780667)"><path d="M20.03 24.02 C24.22 29.43, 21.92 37.96, 25.25 52.46 M22.9 21.98 C23.6 31.16, 23.57 41.08, 23.95 52.11" stroke="#000000" stroke-width="1" fill="none"></path></g></g><g stroke-linecap="round"><g transform="translate(242.36328125 133.140625) rotate(0 28.382282597534356 27.28178413491699)"><path d="M1.19 -0.67 C10.77 8.57, 47.57 45.88, 56.41 55.23 M0.36 1.59 C9.98 10.49, 46.71 44.72, 56.07 53.37" stroke="#000000" stroke-width="1" fill="none"></path></g><g transform="translate(242.36328125 133.140625) rotate(0 28.382282597534356 27.28178413491699)"><path d="M27.31 43.65 C35.06 42.13, 41.26 47.19, 54.61 54.28 M27.77 41.42 C38.83 46, 50.32 51.27, 55.6 53.48" stroke="#000000" stroke-width="1" fill="none"></path></g><g transform="translate(242.36328125 133.140625) rotate(0 28.382282597534356 27.28178413491699)"><path d="M41.27 28.61 C46.05 30.39, 49.32 38.62, 54.61 54.28 M41.74 26.38 C47.48 36.65, 53.64 47.65, 55.6 53.48" stroke="#000000" stroke-width="1" fill="none"></path></g></g><g transform="translate(23.1796875 183.73046875) rotate(0 19.5 12.5)"><text x="0" y="18" font-family="Virgil, Segoe UI Emoji" font-size="20px" fill="#000000" text-anchor="start" style="white-space: pre;" direction="ltr">url5</text></g><g transform="translate(139.734375 189.15234375) rotate(0 19.5 12.5)"><text x="0" y="18" font-family="Virgil, Segoe UI Emoji" font-size="20px" fill="#000000" text-anchor="start" style="white-space: pre;" direction="ltr">url6</text></g><g transform="translate(217.66796875 191.15234375) rotate(0 18.5 12.5)"><text x="0" y="18" font-family="Virgil, Segoe UI Emoji" font-size="20px" fill="#000000" text-anchor="start" style="white-space: pre;" direction="ltr">url7</text></g><g transform="translate(278.58203125 192.59375) rotate(0 21 12.5)"><text x="0" y="18" font-family="Virgil, Segoe UI Emoji" font-size="20px" fill="#000000" text-anchor="start" style="white-space: pre;" direction="ltr">url8</text></g><g stroke-linecap="round" transform="translate(10 10) rotate(0 427.865234375 14.69140625)"><path d="M0 0 C0 0, 0 0, 0 0 M0 0 C0 0, 0 0, 0 0 M0.31 6.81 C2.24 3.66, 3.22 2.58, 5.4 0.04 M-0.01 6.12 C1.11 4.7, 2.24 3.51, 4.74 0.21 M-0.77 10.52 C3.07 8.87, 6.77 4.71, 10.9 0.92 M0.13 11.45 C4.81 7.97, 7.51 3.2, 10.95 -0.1 M-0.89 19.43 C4.94 14.07, 8.4 7.49, 17.38 -1.47 M-0.85 19.09 C6.99 12.07, 11.69 3.5, 16.13 0.34 M-0.53 24.33 C3.86 18.52, 9.74 12.86, 22.12 -1.88 M1.06 23.71 C7.95 14.16, 16.62 5.44, 21.69 0.2 M0.38 28.87 C7.81 22.31, 13.07 13.25, 25.03 1.82 M1.32 30.47 C6.31 22.59, 12.65 14.51, 25.68 0.47 M4.51 31.99 C10.46 21.36, 16.89 14.63, 32.99 -0.89 M5.47 29.54 C15.18 19.52, 25.21 8.46, 31.45 -0.37 M9.91 29.52 C19.36 20.36, 28.79 9.87, 35.51 1.26 M11.52 29.17 C15.8 23.96, 21.1 18.24, 37.49 0.14 M18.03 29.57 C25.49 16.67, 36.37 8.4, 40.75 1.54 M16.13 29.27 C27.17 17.07, 36.79 5.24, 42.85 -0.24 M20.43 30.74 C29.96 19.28, 35.27 12.19, 47.13 1.39 M22.76 28.81 C27.58 22.85, 34.21 17.5, 46.91 0.02 M26.47 28.28 C33.99 18.95, 45.86 9.79, 51.36 -1.43 M27.46 30.29 C33.07 22.58, 39.62 14.86, 52.78 -0.41 M31.26 30.31 C38.38 23.44, 44.29 16.04, 60 1.45 M32.26 29.07 C40.78 21.8, 47.78 11.76, 59.12 0.69 M39.3 27.99 C44.91 20.71, 52.33 13.53, 65.54 1.06 M36.97 29.85 C45.84 22.19, 52.27 11.86, 63.49 0.5 M44.51 27.71 C52.81 17.85, 60.77 9.4, 69.98 1.42 M42.57 30.02 C51.76 18.84, 61.81 7.3, 68.19 -0.41 M49.79 29.3 C56.85 20.13, 66.91 8.91, 72.83 -0.41 M49.02 30.1 C57.84 19.01, 65.19 9.68, 73.6 -0.73 M55.08 30.16 C58.68 20.41, 67.63 15.16, 78.73 -0.01 M54.62 29.13 C60.47 23.63, 66.26 16.24, 80.03 0.06 M56.95 31.52 C66.52 22.48, 69.83 16.36, 85.51 -1.53 M57.84 29.07 C66.74 21.29, 74.97 11.73, 85.07 -0.94 M64.64 30.58 C71.94 22.02, 81.38 11.1, 91.71 0.58 M64.69 30.24 C73.4 17.79, 85.04 6.39, 89.42 0.36 M67.61 30.7 C77.23 21.46, 83.5 13.53, 96.67 -2.29 M68.53 29.68 C75.21 23.58, 80.66 17.5, 96.24 0.43 M75.64 29.62 C83.48 21.11, 87.35 14.63, 100.12 1.31 M75.43 28.6 C80.8 22.99, 84.62 17.31, 101 0.59 M78.36 29.6 C89.89 17.41, 100.08 6.7, 106.17 -0.94 M80.03 30.75 C87.6 23.05, 93.85 13.91, 106.8 0.33 M84.67 30.39 C89.07 25.34, 95.66 15.78, 110.97 1.04 M84.18 30.6 C94.99 19.62, 104.53 7.09, 112.25 -0.22 M89.58 31.67 C99.35 20.5, 106.8 11.17, 118 0.72 M90.14 29.97 C99.55 18.57, 110.11 7.75, 116.14 -0.16 M95.06 29.48 C106.17 16.91, 116.09 8.02, 121.04 1.34 M96.63 29.75 C101.71 23.3, 106.59 17.54, 122.54 0.83 M99.43 31.13 C107.16 22.01, 111.48 16.41, 128.9 0.37 M100.54 28.95 C107.31 23.2, 112.81 15.89, 126.98 0.19 M106.94 31.43 C114.67 18.84, 123.05 10.66, 130.9 0.48 M105.82 30.23 C111.51 22.25, 118.09 15.87, 132.08 -0.45 M113.84 30.87 C116.8 23.36, 121.62 15.91, 138.41 1.66 M111.75 30.17 C118.07 22.46, 124.42 16.58, 138.43 0.24 M117.91 31.78 C126.87 20.85, 133.45 12.08, 142.9 -0.52 M117.85 30.83 C125.22 21.08, 134.27 10.26, 142.94 -0.38 M124.55 28.53 C132.78 18.52, 140.74 9.28, 149.52 1.21 M122.16 30.01 C131.45 20.96, 139.44 11.45, 147.63 0.52 M128.32 31.75 C136.85 17.64, 150.06 7.22, 155.15 0.05 M128.15 30.76 C137.51 19.8, 145.07 9.64, 154.05 -0.38 M135.04 30.46 C143.51 17.98, 152.52 5.4, 157.99 -0.67 M133.01 29.73 C143.84 18.73, 153.37 5.43, 158.06 0.91 M139.32 28.31 C147.79 18.36, 156.8 9.88, 163.58 -1.35 M138.53 30.61 C148.39 19.71, 158.58 6.51, 164.21 0.02 M142.61 29.73 C151.22 18.82, 159.5 9.81, 170.39 2.1 M143.41 30.49 C150.14 22.81, 157.87 15.19, 168.56 -0.29 M150.82 28.14 C154.16 24.11, 160.75 17.21, 175.87 0.43 M148.14 29.34 C155.05 22.05, 161.7 14.67, 175.06 0.18 M156.32 28.12 C162.64 22.33, 167.2 13.27, 182.03 -0.73 M155.31 30.34 C162.19 21.47, 169.09 12.79, 180.34 0.59 M159.54 29.62 C169.48 19.75, 178.53 10.45, 185.49 1.28 M158.5 29.34 C165.89 21.83, 174.58 13.97, 186.11 -0.64 M167.02 30.13 C175.43 16.27, 183.98 4.93, 191.04 -1.65 M164.55 29.22 C174.11 18.31, 184.93 6.2, 189.97 -0.36 M168.96 28.88 C180.33 19.78, 190.72 4.08, 197.7 -2.21 M170.49 29.35 C176.21 24.07, 180.65 17.66, 195.75 -0.31 M177.33 29 C182.71 23.72, 187.68 17.82, 200.3 -1.47 M175.8 29.95 C186.17 19.31, 195.63 7.53, 200.37 0.31 M179.36 29.75 C188.33 19.51, 199.43 9.71, 207.52 1.27 M181.34 29.53 C189.54 19.97, 197.63 11.4, 206.19 -0.79 M187.66 28.67 C193.62 22.21, 201.68 13.92, 211.48 0.74 M185.61 29.26 C192.87 22.07, 198.46 15.44, 211.83 0.45 M189.77 29.79 C203.58 18.21, 211.15 6.32, 217.78 -0.22 M191.66 30.42 C200.33 17.87, 210.52 7.45, 218.52 -1.17 M197.55 30.55 C203.03 23.12, 208.09 15.31, 223.05 1.63 M196.72 29.51 C204.1 19.34, 212.72 9.52, 222.98 -0.69 M200.03 30.25 C210.27 17.52, 221.2 5.72, 229.06 0.06 M202.39 29.95 C208.94 23.23, 215.77 15.49, 227.7 -0.61 M206.28 28.51 C213.79 22.21, 218.72 17.19, 232.24 -0.43 M207.71 30.7 C214.18 21.6, 219.77 14.31, 233.83 0.53 M212.76 30.14 C222.45 21.38, 230.41 9.7, 237.1 2.34 M211.86 30.44 C218.7 21.72, 225.31 14.81, 238.87 1.32 M218.94 31.4 C223.12 24.05, 229.62 13.82, 245.07 0.64 M218.03 29.96 C225.15 22.42, 231.08 14.71, 244.75 -0.88 M223.34 28.15 C229.83 24.16, 236.07 18, 249.35 -0.69 M222.73 29.6 C228.88 23.2, 235.26 16.74, 249.01 0.72 M227.07 30.05 C236.8 22.14, 239.92 14.57, 254.33 0.64 M227.67 29.59 C234.55 22.42, 241.76 15.73, 255.45 0.5 M233.94 28.73 C242.72 20.85, 248.16 9.52, 259.11 -1.37 M233.05 29.53 C240.61 21.65, 248.42 12.71, 259.99 0.84 M237.99 31.99 C244.02 23.65, 250.75 15.34, 265.61 -0.91 M239.46 30.76 C246.95 20.11, 255.4 12.07, 266.02 -0.51 M243.54 28 C251.26 23.54, 257.52 17.97, 270.1 1.92 M245.2 29.74 C250.83 22.95, 256.85 13.95, 270.21 0.03 M248.79 31.48 C255.29 25.09, 260.48 17.32, 275.28 1.23 M250.11 30.52 C255.27 22.69, 262.33 16, 275.89 -0.74 M253.85 27.85 C265.19 19.83, 273.66 10.4, 281.82 -0.44 M254.94 30.1 C260.22 24.13, 265.45 16.4, 280.89 -0.42 M260.34 31.49 C266.12 24.24, 269.79 17.9, 284.46 0.02 M259.17 30.84 C265.13 23.61, 272.25 15.82, 286.87 0.42 M267.41 29.85 C274.42 19.7, 282.99 10.33, 291.55 0.58 M266.38 29.89 C273.91 19.01, 283.15 9.11, 291.15 0.64 M271.31 29.71 C277.89 20.76, 285.19 16.25, 297.09 -1.86 M270.06 29.56 C279.18 21, 287.48 11.31, 296.11 -0.06 M277.5 29.3 C282.2 19.93, 290.16 13.66, 300.35 -1.2 M276.99 28.77 C284.03 20.15, 292.54 10.96, 302.95 -0.74 M280.14 28.55 C289 22, 295.52 14.19, 305.88 -2.01 M281.05 29.42 C292.57 17.88, 301.84 7.05, 307.13 0.18 M286.21 29.23 C294.66 19.6, 303.9 9.09, 311.09 -1.3 M286.6 29.8 C294.5 20.08, 303.73 11.36, 312.12 -0.63 M291.05 29.16 C299.12 17.73, 310.85 7.83, 318.31 -0.33 M292.28 29.03 C302.56 17.87, 312.04 7.02, 318.81 -0.08 M298.41 30.37 C306.88 19.29, 315.39 10.1, 322.37 1.52 M298.4 30.42 C308.22 17.31, 316.79 7.01, 323.33 -0.19 M304.04 29.36 C309.53 21.91, 320.16 12.46, 330.64 -0.98 M302.75 29.92 C307.37 24, 314.02 18.45, 328.39 -0.71 M307.07 29.94 C318.66 17.31, 329.98 6.11, 334.61 -0.8 M307.29 30.23 C314.91 22.46, 320.01 14.65, 333.13 -0.71 M312.89 29.74 C320.02 22.42, 322.89 17.14, 337.93 1.59 M313.31 29.5 C321.38 20.26, 329.19 10.23, 340.46 -1.17 M317.94 28.61 C323.25 24.16, 331.18 14.97, 344 0.4 M317.49 30.95 C327.53 19.75, 337.9 8.82, 344.92 -0.57 M323.17 31.58 C331.83 19.48, 339.55 10.43, 351.35 1.42 M323.66 30.06 C333.18 19.99, 340.16 10.85, 349.33 1.24 M327.56 29.02 C333.48 22.02, 342.48 15.78, 356.51 0.5 M329.6 29.95 C334.77 24.23, 340.83 16.52, 355.96 -0.27 M334.23 30.88 C342.15 17.71, 351.35 6.61, 358.83 -0.03 M335.4 29.79 C341.75 20.77, 349.92 13.05, 360.61 1.33 M339.93 30.8 C346.17 23.69, 351.29 15.99, 365.89 -0.41 M340.27 30.23 C346.15 21.71, 352.86 14.9, 366.36 0.57 M345.18 28.36 C350.58 22.82, 360.07 14.48, 371.1 0.72 M344.94 29.77 C355.32 17.85, 364.26 7.88, 370.34 -0.45 M351.8 29.27 C359.34 18.24, 368.72 11.72, 375.69 0.51 M350.46 30.2 C360.01 18.47, 368.64 8.06, 376.12 0.25 M356.95 31.49 C362.58 20.09, 371.64 10.36, 382.33 0.09 M356.58 28.98 C363.77 21.73, 371.29 11.99, 380.54 0.02 M362.73 29.49 C367.77 21.85, 378.79 11.67, 385.2 -1.23 M360.54 30.65 C369.85 20.18, 376.92 10.81, 386.06 -0.07 M366.22 28.4 C373.37 17.66, 384.86 8.16, 391.49 2.22 M365.47 29.26 C373.56 20.96, 380.24 14.21, 391.6 0.23 M373.05 28.22 C377.87 21.91, 383.62 16.13, 399.53 0.65 M371.2 29.76 C382.42 17.76, 391.67 5.46, 396.89 0.69 M375.47 29.98 C385.1 23.18, 389.39 13.18, 404.31 0.99 M376.62 30.38 C384.06 21.68, 392.87 11.65, 403.28 0.06 M381.88 31.97 C388.93 20.41, 398.12 11.38, 407.56 1.11 M382.51 30.1 C391.16 19.17, 402.01 6.76, 408.16 0.46 M386.94 27.84 C393.53 19.1, 404.11 12.68, 411.31 1.97 M387.9 28.98 C395.31 20.73, 400.72 13.89, 413.7 0.79 M393.09 30.92 C399.45 22.66, 401.9 15.55, 419.94 -2.16 M392.9 29.63 C400.1 20.6, 408.39 11.99, 419.29 -0.9 M396.66 28.29 C404.91 22.63, 412.03 12.36, 425.78 0.47 M399.04 29.58 C406.49 20.29, 414.35 10.82, 424.31 0.07 M401.38 29.03 C409.15 23.48, 414.17 15.55, 431.12 1.26 M404.14 30.71 C411.91 20.65, 420.03 12.15, 428.55 -0.65 M408.46 30.37 C415.59 21.23, 420.82 13.19, 433.81 -0.5 M408.63 29.61 C419.43 19.27, 428.1 6.74, 434.96 0.98 M414.19 29.92 C422.21 18.97, 433.38 10.09, 441.31 0.5 M414.39 29.07 C421.09 22.79, 427.07 15.46, 440.08 -0.18 M419.93 27.83 C423.86 24.28, 431.91 18.01, 444.26 -0.19 M419.12 30.39 C425.68 22.13, 431.69 16.31, 444.84 0.95 M425.75 30.97 C432.59 19.9, 441.11 8.01, 450.52 1.4 M425.15 28.86 C430.25 22.94, 435.09 17.93, 450.89 0.04 M427.79 31.89 C437.64 19.46, 447.11 12.69, 454.77 1.86 M429.16 30.87 C437.25 21.1, 445.04 13.88, 455.48 0.82 M435.1 29.25 C439.69 23.21, 446.9 16.66, 460.53 0.54 M434.27 29.59 C441.86 22.21, 447.86 15.03, 461.81 -0.58 M440.51 30.26 C450.55 20.59, 459.03 9.64, 465.76 -0.18 M439.22 29.64 C447.28 21.99, 452.92 14.48, 465.81 -0.18 M444.03 31.58 C452.83 21.12, 457.92 14.29, 472.25 -0.04 M444.98 29.19 C450.86 23.01, 458.33 17.13, 471.9 1 M452.38 29.58 C459.6 18.35, 466.59 10.6, 478.45 -0.41 M450.68 30.44 C455.95 24.33, 462.23 18.22, 477.09 0.57 M455.11 28.47 C464.45 18.15, 475.66 9.38, 482.34 2.15 M456.87 28.96 C465.12 19.4, 473.57 10.03, 482.06 -0.53 M460.12 30.5 C470.11 18.39, 478.1 10.28, 488.82 0.79 M461.42 30.14 C469.65 21.13, 478.73 11.7, 487.94 0.07 M465.72 28.15 C472.14 25.21, 475.93 16.56, 493.27 0.59 M466.86 30.59 C474.46 20.31, 482.77 12.08, 492.06 0.65 M472.22 30.35 C479.72 17.93, 490.24 7.99, 497.63 -1.26 M472.19 30.52 C480.62 20.37, 491.77 8.35, 497.36 0.73 M477.99 30.6 C482.71 24.71, 488.44 18.57, 501.95 -1.28 M478.26 29.17 C484.35 22.98, 488.7 16.29, 504.19 -0.47 M482.98 29.22 C490.16 21.69, 495.76 14.4, 508.44 -1.5 M483.59 29.22 C492.45 18.58, 502.12 8.95, 509.69 -0.66 M488.84 29.48 C497.01 18.36, 505.33 10.66, 513.06 0.71 M487.73 30.18 C492.95 23.08, 499.73 17.45, 513.61 -0.04 M494.46 31.88 C505.09 17.46, 513.09 6.13, 517.58 0.84 M493.09 30.81 C503.09 19.7, 511.14 9.53, 519.64 0.08 M500 30.2 C505.14 22.03, 511 12.48, 525.09 1.43 M498.29 30.49 C508.29 19.07, 517.63 9.44, 525.31 -0.31 M502.5 29.83 C510.02 20.64, 517.53 15.47, 532.15 0.25 M504 29.71 C510.13 21.79, 517.41 15.05, 529.27 -0.49 M507.93 27.86 C513.42 24.44, 520.01 16.29, 536.28 0.49 M510.31 29.36 C518.22 20.15, 526.67 9.97, 535.18 -0.63 M514.73 31.32 C521.33 23.09, 530.78 11.94, 540.06 -1.06 M514.52 29.25 C521.36 22.7, 527.18 16.08, 541.01 -0.4 M521.9 29.31 C528.76 19.58, 539.64 7.94, 546.67 0.2 M520.53 29.44 C527.31 22.49, 533.6 14.3, 544.94 -0.48 M524.56 31.27 C533.35 18.22, 544.67 8.61, 551.97 0.84 M524.68 30.66 C532.24 23, 537.94 14.77, 550.64 0.71 M529.98 31.09 C536.77 24.61, 543.12 15.58, 556.06 -0.39 M531.05 29.76 C539.3 19.86, 548.37 10.67, 557.17 -0.43 M537.18 29.35 C545.6 18.63, 553.55 8.68, 563.34 1.59 M535.38 30.05 C543.78 20.58, 552.94 10.41, 562.3 0.58 M540.33 30.22 C548.74 19.64, 556.38 11.05, 566.07 0.45 M541.67 29.51 C546.79 23.52, 554.13 14.68, 566.34 0.83 M547.57 27.94 C553.12 21.81, 560.53 10.12, 572.42 -1.44 M547.38 29.42 C554.82 19.98, 562.88 11.76, 573.5 -0.66 M549.87 31.2 C558.94 18.71, 568.74 7.73, 578.06 1.22 M551.52 30.02 C557.64 23.33, 563.06 16.7, 577.74 -0.49 M558.47 30.13 C567.38 19.18, 575.37 6.02, 581.55 1.58 M556.31 29.65 C564.04 21.83, 571.55 11.73, 583.44 1.26 M562.35 28.48 C571.62 19.47, 579.55 8.62, 587.19 -0.91 M562.11 30.23 C569.31 21.42, 577.91 10.93, 588.54 -0.3 M566.41 29.75 C573.03 21.72, 582.14 14.08, 593.85 -0.05 M567.65 29.54 C573.14 22.17, 579.96 16.75, 592.66 0.77 M572.94 29.48 C581.01 19.61, 592.63 10.28, 600.4 -0.01 M572.97 30.75 C581.67 20.4, 589.27 11.72, 598.78 0.39 M579.72 29.34 C585.45 20.61, 592.88 12.18, 603.25 0.94 M577.72 28.75 C585.36 21.69, 593.4 12.55, 604.08 -0.09 M581.59 29.37 C593.86 19.54, 600.31 8.51, 610.42 0.54 M584.01 29.59 C590.52 23.68, 596.49 16.43, 610.32 0.46 M588.49 30.14 C596.98 20.47, 601.37 12.99, 615.11 0.8 M588.74 28.85 C595.9 20.32, 603.87 12.48, 614.64 0.39 M595.03 28.99 C598.96 23.29, 607.62 16.1, 621.75 -1.9 M594.47 29.12 C600.78 21.02, 608.1 14.16, 619.93 -0.34 M598.59 30.14 C608.41 20.21, 617.39 10.63, 623.57 -0.52 M599.75 30.3 C606.85 20.95, 613.6 12.83, 625.64 -0.72 M604.8 28.94 C612.11 20.16, 621.11 11.49, 632.67 0.73 M603.96 29.11 C610.14 23.1, 616.51 15.23, 630.19 -0.33 M609.69 30.02 C618.97 22.53, 622.93 14.68, 637.56 -1.35 M609.67 29.43 C618.58 18.65, 627.87 8.92, 635.75 0.08 M617.18 31.51 C624.08 20.48, 630.38 11.67, 641.24 1.21 M615.46 29.74 C622.21 21.98, 629.4 14.68, 640.59 -0.98 M621.22 31.2 C624.95 24.95, 632.55 16.67, 646.77 -0.27 M620.29 29.49 C626.5 23.64, 633.01 16.83, 645.97 -0.36 M627.26 30.73 C636.05 20.42, 641.98 11.82, 651.31 -0.94 M626.3 30.55 C634.5 20.47, 642.64 10.64, 652.43 0.15 M630.41 29.8 C638.73 20.46, 644.88 11.54, 655.7 1.81 M631.23 29.59 C638.72 20.63, 646.13 12.34, 656.68 -0.77 M636.91 30.34 C643.17 20.19, 649.85 14.62, 662.52 -1.51 M637.17 29.5 C640.64 24.49, 645.86 17.69, 661.91 0.4 M642.25 30.68 C652.61 19.07, 662.68 8.03, 669.62 -0.27 M642.99 29.77 C650.47 19.37, 660.39 9.75, 668.63 -0.51 M648.75 29.79 C653.85 20.76, 663.61 11.89, 672.26 -1.55 M647.12 29.92 C652.55 23.05, 658.29 17.75, 673.05 -1.01 M651.54 29.41 C662.54 16.7, 672.28 4.73, 676.58 2.06 M651.92 29.91 C658.87 22.76, 665.58 13.39, 677.91 -0.53 M656.22 30.27 C666.47 20.73, 676.31 8.53, 685.73 -1.39 M658.55 29.54 C665.65 20.74, 673.02 11.72, 684.78 0.02 M664.18 31.02 C667.21 23.58, 676.3 17.23, 689.4 1.04 M662.59 29.59 C669.55 21.89, 676.63 13.62, 688.97 -0.4 M669.52 28.66 C674.73 20.92, 684.27 12.12, 693.9 1.33 M668.24 29.48 C678.69 18.41, 688.01 9.08, 693.84 -0.5 M673.83 29.01 C684.15 18.8, 691.04 8.72, 699.7 -1.31 M673.38 29.97 C684.22 20, 692.65 8.18, 699.63 0.7 M677.64 31.59 C689.28 20.53, 697.7 10.19, 702.86 -1.52 M678.31 29.25 C686.82 19.59, 694.33 11.57, 705.19 1.06 M683.96 31.86 C694.9 20.18, 701.99 7.26, 711.86 0.7 M683.56 29.39 C690.38 22.07, 697.89 13.87, 710.07 -1.03 M690.35 29.38 C700.03 20.73, 709.48 10.03, 714.46 -1.63 M689.24 29.74 C695.6 20.89, 702.84 13.56, 715.64 0 M696.48 30.02 C705.21 18.37, 717 5.9, 721.08 -1.5 M694.92 29.32 C701 24.06, 705.28 17.45, 721.82 -0.97 M700.2 30.1 C705.85 21.5, 715.47 11.75, 724.37 0.28 M700.9 30.25 C707.29 21.64, 715.32 12.28, 726.86 0.73 M705.08 30.64 C716.6 16.78, 725.03 5.35, 731.29 -0.76 M706.12 30.12 C711.77 23.3, 715.42 16.87, 730.77 0.87 M712.51 29.5 C717.76 20.97, 726.28 14.02, 734.67 1.47 M711.48 29.45 C718.33 21.62, 726.35 13.39, 737.06 0.82 M717.23 31.6 C721.67 23.24, 728.79 16.74, 741.24 -0.22 M715.67 30.05 C726.47 19.7, 735.84 7.5, 742.17 -1.13 M723.41 29.08 C729.42 19.24, 740.6 8.73, 747.24 -0.08 M720.54 30.43 C728.59 21.13, 737.97 12.48, 747.28 0.72 M728.18 31.51 C730.73 22.66, 737.79 17.04, 754.45 0.71 M726.93 30.24 C736.74 18.67, 747.63 6.11, 753.64 0.8 M733.77 30.05 C737.37 20.15, 748.15 11.88, 757.75 0.31 M732.02 29.63 C743.58 17.27, 753.4 6.29, 758.44 0.77 M738.97 31.68 C742.65 20.96, 750.28 14.32, 765.21 0.33 M737.14 29.72 C744.97 20.68, 750.74 13.3, 764.15 -1.16 M743.28 31.34 C752.73 18.78, 762.06 8.37, 769.63 0.06 M743.19 29.92 C752.58 17.01, 763.4 6.58, 768.33 0.22 M746.41 30.15 C759.2 20.25, 767.23 7.65, 772.61 0.66 M748.39 30.43 C757.61 17.98, 767.86 7.22, 775.03 0.53 M752.39 27.59 C760.35 18.75, 767.05 11.76, 780.1 -0.69 M753.7 29.54 C763.64 18.15, 772.17 8.46, 778.57 0.19 M757.1 31.68 C767.1 22.06, 770.76 13.58, 786.5 1.43 M758.62 30.16 C768.59 18.09, 777.04 8.21, 784.96 -0.18 M764.35 31.16 C770.56 21.42, 774.21 14.98, 790.17 -1.11 M764.55 29.12 C771.69 21, 779.69 12.79, 789.67 0.69 M769.42 29.73 C777.48 17.97, 786.96 7.44, 793.53 -1.88 M768.63 29.64 C777.1 20.81, 784.29 12.69, 795.01 0.06 M774.5 30.9 C782.34 21.07, 788.64 14.14, 798.62 -1.63 M774.45 29.44 C779.03 23.19, 784.98 17.97, 799.97 -0.36 M779.52 28.5 C785.16 21.2, 795.31 12.32, 807.13 -0.11 M779.11 29.45 C787.25 21.05, 795.34 10.98, 805.57 -1.04 M782.97 31.1 C791.31 19.64, 799.96 10.83, 812.01 -1.94 M785.43 29.41 C791.94 21.6, 800.72 11.47, 810.69 -0.18 M791.34 28.91 C797.55 23.68, 802.03 12.97, 816.84 0.39 M789.57 29.07 C798.02 20.37, 807.59 10.19, 816.77 0.4 M796.67 30.03 C805.89 21.16, 813.45 8.7, 822.7 0.94 M795.91 29.59 C805.47 19.59, 813.91 7, 820.91 -0.06 M802.6 30.58 C807.79 24.23, 813.02 16.44, 824.97 0.74 M801.39 29.9 C811.3 18.78, 820.76 5.95, 826.03 0.39 M805.97 30.93 C813.04 23.2, 818.14 12.54, 830.8 -1.26 M806.34 30.17 C816.2 17.92, 827.06 7.24, 832.54 -0.44 M810.82 29.86 C820.31 22.45, 827.48 12.12, 836.62 0.01 M810.83 30.18 C819.43 21.7, 825.53 11.73, 837.19 0.57 M818.01 28.76 C827.36 16.5, 838.5 6.65, 842.23 -2.09 M817.52 30.74 C824.22 19.65, 833.7 11.46, 843.4 0.17 M823.26 29.82 C830.24 20.11, 838.3 13.18, 848.34 -1.73 M821.99 30.08 C831.98 20.2, 841.04 9.54, 848.1 0.23 M826.72 28.21 C834.69 23.52, 839.86 12.63, 854.67 1.6 M827.6 29.28 C835.29 20.75, 843.18 11.14, 854.12 0.11 M831.01 30.25 C837.91 20.17, 845.65 15.4, 856.16 0.79 M831.83 30.65 C837.54 22.76, 843.98 16.6, 857.66 1.58 M838.8 29.65 C844.29 22.41, 847.42 16.04, 857.05 7.25 M837.11 29.16 C845.11 23.42, 850.88 14.88, 856.66 7.2 M842.89 29.65 C847.12 23.36, 854.61 19.16, 856.31 14.11 M843.17 28.82 C847.75 24.89, 851.69 19.33, 857.54 14.72 M847.95 30.85 C851.9 28.78, 851.88 24.58, 858.75 18.73 M848.07 30.09 C851.01 27.47, 854.27 24, 857.2 19.5 M854.45 30 C854.66 29.01, 855.52 27.75, 857.74 25.59 M853.99 29.8 C855.44 28.05, 856.59 26.5, 857.24 25.75" stroke="#fab005" stroke-width="0.5" fill="none"></path><path d="M0.58 0.45 C266.52 1.28, 534.56 1.87, 855.34 0.73 M0.36 0.23 C255.54 -2.84, 511.03 -2.9, 855.72 -0.28 M856.36 -1.09 C857.17 6.3, 857.19 16.84, 856.98 27.88 M856 -0.76 C855.41 8.64, 855.26 17.44, 856.57 28.8 M855.51 28.66 C633 28.75, 409.77 29.04, 0.65 29.44 M855.81 29.17 C647.86 26.5, 439.85 26.63, -0.28 29 M-0.71 28.01 C0.47 23.95, 0.78 18.96, -0.14 -0.58 M-0.46 29.6 C-0.36 19.32, 1.01 9.62, -0.59 -0.92" stroke="#000000" stroke-width="1" fill="none"></path></g><g stroke-linecap="round" transform="translate(12.484375 108.6640625) rotate(0 427.224609375 14.994140625)"><path d="M0 0 C0 0, 0 0, 0 0 M0 0 C0 0, 0 0, 0 0 M-0.54 6.62 C0.57 5.2, 1.74 4.03, 4.77 0.97 M-0.36 6.3 C1.96 4.31, 3.86 1.69, 5.37 0.45 M0.4 11.5 C2.36 7.58, 7.41 4.26, 11.9 1.17 M0.4 11.69 C3.51 7.22, 7.86 2.74, 10.31 0.54 M-1.58 17.25 C2.42 15.26, 6.56 10.86, 13.63 0.52 M0.05 19.06 C4.25 12.9, 8.58 8.58, 15.2 -0.23 M0.64 24.33 C4.88 17.2, 11 11.02, 19.99 1.42 M0.67 23.37 C7.79 17.09, 13.81 9.43, 21.5 0.65 M-1.86 30.96 C11.43 17.09, 22.09 9.12, 25.49 0.53 M-0.94 30 C6.97 22.1, 15.12 13.03, 26.69 0.6 M3.81 28.85 C10.94 22.8, 18.49 14.7, 30.71 -1.09 M5.11 31.08 C16.48 17.91, 25.86 7.23, 31.93 0.4 M9.68 32.05 C18.07 20.47, 24.23 12.68, 37.51 -0.8 M10.32 30.63 C19.11 19.36, 28.97 8.01, 37.1 0.53 M16.07 31.59 C20.65 24.7, 29.79 15.61, 44.47 0.38 M17.17 30.52 C23.06 22.6, 31.14 12.84, 41.52 0.18 M19.27 32.39 C29.77 20.34, 43.21 6.68, 45.87 -1.38 M22.05 29.62 C26.92 22.68, 34.76 16.04, 47.04 -0.6 M24.99 30.03 C36.46 20.06, 47.69 9.23, 55.07 -1.95 M26.89 29.87 C32.45 22.41, 38.73 16.48, 52.71 0.14 M33.32 29.59 C43.34 17.44, 51.82 8.46, 59.49 -0.36 M31.35 29.41 C42.54 17.74, 51.56 6.54, 57.98 0.4 M36.11 30.43 C47.96 18.59, 56.39 6.91, 64.03 -0.07 M38.45 30.63 C47.97 18.92, 57.58 6.13, 63.29 -0.73 M41.97 29.03 C48.08 24.35, 51.92 17.48, 70 -0.08 M42.72 31.31 C47.63 24.09, 52.84 17.87, 69.3 1.08 M49.68 31.79 C55.49 22.27, 64.76 13.02, 74.58 -0.2 M47.9 30.66 C56.25 19.79, 65.27 10.3, 73.46 0.43 M53.11 29.86 C58.72 24.94, 62.02 15.75, 77.74 -0.13 M53.04 30.48 C58.75 24.51, 64.97 17.38, 79.27 0.35 M58.68 27.92 C68.98 19.29, 77.28 7.97, 85.69 -0.78 M58.2 29.19 C67.56 19.94, 77.23 10.12, 84.82 -0.67 M62.3 31.03 C68.31 23.63, 74.52 16.24, 89.79 0.69 M64.58 30.96 C70.48 21.56, 79.75 11.22, 90.04 -0.52 M70.79 29.39 C74.96 21.26, 85.19 14.46, 94.03 1.55 M70.2 29.8 C74.27 24.38, 80.3 17.28, 95.33 -0.46 M74.85 29.24 C81.43 24.57, 87.32 16.97, 101.93 -1.61 M74.02 30.63 C80.64 22.84, 86.7 16.52, 100.67 -0.92 M78.44 29.58 C88.62 20.82, 95.64 11.99, 108 -2.1 M79.63 29.42 C91.03 18.41, 101.77 5.08, 106.36 -0.5 M83.78 29.02 C89.9 25.97, 95.66 16.33, 112.67 1.71 M85.4 30.23 C90.89 23.47, 96.81 16.77, 112.09 0.17 M88.09 31.36 C97.73 18.83, 107.79 9.17, 117.06 1.94 M89.46 30.11 C96.76 22.73, 102.81 14.84, 117.02 0.25 M95.84 28.64 C105.14 19.21, 117.58 5.17, 121.23 -1.77 M95.17 30.37 C103.51 22.62, 110.21 13.47, 122.14 -0.94 M100.91 30.17 C110.78 19.52, 118.28 9.77, 128.36 0.85 M101.52 31.02 C110.57 18.48, 120.69 7.5, 127.77 -0.57 M105.47 30.16 C117.43 19.29, 128.33 6.41, 133.55 0.25 M107.17 30.51 C113.92 21.62, 120.02 15.26, 132.53 0.48 M110.81 32.46 C120.81 21.77, 128.94 11.07, 136.78 1.86 M111.56 29.92 C120.94 19.69, 129.65 9.52, 137.49 0.81 M116.86 29.43 C125.92 17.43, 136.47 8.4, 144.3 -1.1 M117.63 29.98 C123.42 20.75, 132.3 13.56, 143.87 0.49 M121.08 30.72 C132.87 18.79, 139.68 10.46, 149.61 -0.78 M122.89 31.2 C129.68 20.04, 139.42 10.32, 149.12 0.26 M125.9 30.08 C132.3 23.86, 141.98 14.89, 154.86 -1.93 M128.16 30.95 C134.67 21.49, 140.3 13.96, 154.66 -0.48 M133.71 30.21 C144.7 19.24, 154.44 5.65, 159.82 0.97 M132.68 29.58 C139.55 23.58, 145.26 16.16, 157.98 -0.5 M138.21 29.52 C147.16 19.97, 158.13 6, 163.32 0.44 M138.78 29.47 C148.6 18.7, 158.58 7.32, 164.31 -0.66 M143.44 30.99 C152.78 20.9, 160.71 11.31, 168.14 -1.09 M143.02 31.17 C148.85 24.86, 153.67 19.14, 168.77 1.14 M147.13 28.94 C157.46 18.36, 167.74 7.6, 174.5 1.45 M148.88 30.44 C154.4 22.07, 161.31 16.34, 174.08 0.1 M155.7 29.88 C158.53 24.42, 164.82 13.75, 180.98 -1.36 M153.88 30.42 C162.68 19.27, 171.78 8.69, 180.61 -0.4 M159.69 31.31 C170.04 17.24, 177.9 8.32, 185.94 -0.65 M160.26 30.63 C167.5 19.52, 175.67 11.74, 186.15 -0.7 M164.67 30.51 C171.71 24.09, 178.21 16.76, 192.5 1.55 M164.12 31.14 C174.59 18.37, 183.08 7.87, 189.98 0.21 M170.68 31.37 C179.95 18.41, 190.05 6.79, 197.9 1.15 M170.09 29.64 C176.71 22.89, 182.37 17.2, 196.58 -1.19 M175.21 29.25 C181.17 23.56, 186.8 18.36, 202.55 -1.21 M174.49 29.51 C184.17 21.46, 191.44 9.84, 201.77 0.13 M180.59 29.68 C189.17 19.37, 201.2 8.63, 207.35 0.66 M179.95 28.96 C189.24 20.29, 198 10.47, 206.34 -0.16 M184.94 29.28 C189.9 25.22, 196.71 17.13, 210.72 1.3 M186.63 31.07 C195.17 19.32, 203.34 8.67, 212.25 -0.62 M189.61 30.53 C198.25 20.7, 205.12 12.91, 217.98 0.45 M190.8 28.93 C201.12 19.09, 211.37 7.61, 218.26 -0.01 M198.15 30.57 C204.64 19.68, 214.4 10.64, 222.31 1.81 M196.07 29.71 C202.45 24.24, 208.92 16.37, 222.09 -0.15 M203.04 28.79 C210.36 20.64, 221.56 7.33, 230.2 -2.12 M201.34 30.5 C210.9 20.62, 219.02 8.25, 228.08 0.18 M207.91 31.85 C216.4 21.38, 222.2 10.22, 234.35 0.8 M207.24 30.67 C214.12 22.84, 220.52 14.69, 233.35 0.29 M211.81 28.81 C218.35 22.85, 225.39 14.58, 238.49 -0.14 M211.61 31.22 C218.92 24.17, 225.51 15.93, 238.77 0.47 M217.95 28.63 C223.94 20.5, 232.03 11.68, 245.58 0.58 M218.46 29.57 C224.15 24.28, 229.66 16.36, 244.46 -0.71 M222.64 31.01 C227.44 23.33, 234.96 15.23, 248.01 1.8 M222.11 30.75 C232.65 20.57, 240.91 8.04, 248.17 0.01 M228.75 31.21 C236.79 22.43, 243.38 13.91, 254.44 -0.8 M228.91 29.39 C237.14 19.11, 247.43 6.87, 255.28 0.33 M234.62 30.84 C239.85 21.94, 248.28 13.2, 260.67 2.15 M233.35 30.89 C243.3 19.77, 251.51 9.19, 260.01 0.58 M239.51 30.68 C246.96 23.9, 250.86 13.94, 265.13 0.5 M239.71 29.46 C245.53 21.86, 252.85 12.27, 266.02 0.73 M244.54 29.51 C252.41 19.03, 260.16 9.94, 271.76 1.41 M244.25 31.25 C248.26 24.87, 254.99 18.71, 269.6 0.55 M250.14 28.9 C261.26 18.78, 269.93 7.77, 277.53 0.13 M248.84 30.45 C258.28 18.97, 268.87 7.71, 276.31 0.66 M252.94 32.03 C264.57 20.49, 270.11 10.78, 279.28 0.84 M255.12 30.35 C261.17 22.55, 266.9 16.39, 280.13 0.66 M259.26 28.51 C271.06 17.91, 277.48 9.26, 285.26 -0.52 M260.17 29.43 C270.2 20.33, 278.37 8.39, 286.14 0.17 M266.03 29.18 C273.48 21.45, 276.06 17.64, 289.96 0.5 M264.64 30.52 C272.57 21.55, 279.75 14.09, 291.67 1 M270.23 30.93 C275.81 20.65, 283.02 14.57, 297.65 -0.26 M270.46 30.81 C277.64 21.8, 283.48 14.85, 296.94 0.16 M273.8 31.52 C280.79 23.01, 289.03 16.67, 301.24 1.21 M274.92 30.99 C284.03 20.79, 293.41 10.72, 302.21 0.03 M281.11 30.37 C290.67 18.79, 300.44 11.06, 305.76 -0.11 M280.38 29.34 C290.87 18.55, 300.55 7.29, 308.47 -0.6 M287.91 31.4 C297.84 21.05, 305.2 6.17, 311.28 -1.42 M286.42 30.83 C295.16 20.62, 302.3 12.59, 312.59 -0.42 M290.7 31.82 C298.46 22.32, 305.51 12.24, 316.36 -1.32 M291.48 29.16 C298.07 20.95, 305.28 12.69, 317.93 -0.51 M295.75 28.95 C304.11 20.04, 313.71 13.41, 324.96 1.02 M297.02 29.96 C304.55 22.01, 312.24 11.51, 323.57 -0.2 M304.49 29.04 C310.98 21.03, 318.2 14.14, 329.93 0.64 M303.19 30.76 C308.79 23.55, 313.57 16.46, 328.89 -0.07 M306.45 30.08 C313.15 24.14, 322.25 14.56, 331.89 -0.32 M306.97 30.19 C314.23 21.47, 322.95 12.76, 334.78 0.24 M312.71 30.59 C320.34 24.38, 326.25 14.37, 338.69 -1.91 M313.85 29.98 C322.68 19.45, 332.62 8.05, 340.3 -0.95 M316.84 28.48 C323.87 20.51, 332.68 13.22, 344.37 -1.47 M317.93 30.16 C329.24 19.15, 339.55 6.17, 343.78 0.78 M323.65 30.55 C330.93 20.93, 339.63 10.39, 347.9 1.88 M323.01 29.79 C334 19.98, 343.54 7.63, 348.87 -0.21 M329.47 31.61 C336.89 21.6, 345.33 13.55, 355.45 0.31 M327.93 30.38 C336.13 21.17, 342.72 13.52, 354.97 0.69 M332.28 31.52 C346.03 18.22, 354.69 8.54, 360.53 0.38 M333.1 30.23 C342.21 20.11, 351.6 10.37, 360.65 -0.28 M338.6 30.73 C346.88 20.37, 357.88 8.56, 364.87 0.53 M340.41 30.23 C349.62 17.8, 359.38 7.55, 366.66 -0.43 M346.33 31.15 C356.83 16.86, 364.38 7.03, 371.29 1.99 M344.46 29.99 C351.79 20.98, 358.89 14.01, 370.11 0.5 M348.24 30.88 C356.6 21.08, 367.57 11.94, 377.13 1.5 M349.18 30.93 C355.46 23.32, 361.02 17.1, 376.08 0.4 M354.89 29.11 C367.18 20.84, 376.29 9.27, 383.25 2.17 M354.99 30.35 C361.99 21.01, 370.72 13, 381.79 -0.09 M362.08 28.86 C365.7 24.89, 373.12 16.55, 387.4 -1.72 M361.46 30.57 C366.8 23.11, 373.9 14.83, 386.3 0.5 M365.78 29.86 C373.58 21.09, 382.1 14.46, 393.21 2.12 M366.47 30.96 C374.44 19.94, 384.63 9.56, 392.6 -0.42 M369.57 31.29 C379.14 20.35, 387.28 13.94, 399.6 0.75 M370.85 29.1 C380.87 20.52, 389.13 9.43, 397.32 0.56 M375.55 28.64 C382.98 21.55, 391.19 10.58, 401.71 -1.14 M375.57 30.82 C384.27 21.08, 392.79 10.92, 402.84 0 M383.83 28.52 C388.25 25.43, 393.99 17.51, 408.36 -0.45 M382.35 29.32 C392.3 19.18, 401.58 6.77, 409 -0.36 M387.43 29.46 C391.89 25.76, 399.4 18.13, 414.98 -0.83 M386.86 31.28 C397.47 17.52, 406.61 6.44, 413.22 -0.46 M391.74 28.73 C398.37 20.89, 406.44 14.66, 417.03 0.1 M393.34 29.91 C398.76 22.06, 407.67 13.99, 418.13 0.15 M397.42 31.13 C407.34 22.16, 414.88 10.23, 422.97 1.61 M397.79 31.08 C406.86 19.52, 416.23 8.15, 423.81 -0.59 M403.88 31.84 C412.19 19.54, 420 9.28, 427.68 0.61 M402.59 30.39 C409.75 21.86, 417.32 14.81, 429.35 -1.15 M408.19 29.22 C415.68 19.24, 428.75 6.98, 433.38 -1.48 M407.7 29.29 C418.96 19.56, 427.83 8.67, 435.09 0.67 M412.55 31.59 C420.33 22.42, 426.66 16.77, 439.09 -1.94 M413.27 30.14 C421.39 21.69, 428.25 13.36, 440.22 -0.14 M419.17 30.1 C427.31 20.6, 435.44 11.38, 445.58 2.04 M418.83 30.35 C424.48 24.21, 429.73 18.17, 444.94 -0.73 M425.78 29.48 C434.17 19.53, 441.02 9.74, 452.77 -1.78 M423.93 29.41 C429.72 22.89, 435.3 16.89, 450.16 -0.31 M428.49 28.91 C434.52 24.67, 439.94 16.07, 456.7 -1.92 M429.31 31.06 C436.1 24.35, 441.77 17.49, 455.61 0.99 M432.64 29.54 C444.82 20.2, 454.65 5.32, 462.94 -2.35 M434.87 31.06 C442.85 21.77, 450.53 13.3, 461.52 0.16 M438.98 31.57 C446.81 23.56, 454.45 17.19, 467.57 0.32 M440.15 29.58 C450.3 19.9, 457.53 9.96, 466.76 0.48 M443.91 29.32 C452.25 24.63, 458.27 16.92, 469.89 -1.58 M445.74 30.54 C453.97 21.92, 461 11.64, 471.85 0.26 M452.23 28.79 C455.86 23.74, 463.53 16.12, 476.74 0.24 M450.27 30.43 C457.92 21.23, 465.53 13.85, 476.42 0.26 M454.11 30.44 C462.6 20.73, 470.77 13.18, 480.6 -0.86 M456.6 31.44 C463.34 20.36, 472.93 10.93, 481.59 0.02 M462.51 30.05 C470.61 19.34, 476.26 9.67, 486.48 1.08 M461.45 29.49 C470.84 20.08, 479.54 8.12, 488.02 -0.31 M466.13 29.51 C475.34 20.42, 481.7 12.35, 490.78 1.46 M465.57 31.42 C476.9 19.35, 486.63 7.24, 493.06 0.13 M470.84 29.63 C481.81 19.39, 489.67 8.42, 496.78 -0.11 M471.39 30.99 C477.79 22.72, 484.23 16.79, 497.39 0 M476.59 28.95 C486.41 17.55, 496.52 9.6, 501.55 1.05 M477.17 30.04 C484.35 22.02, 491.59 13.27, 504.17 -0.13 M482.93 28.57 C490.44 20.03, 502.31 9.88, 507.36 1.47 M482.67 30.54 C489.2 23.75, 494.14 15.5, 509.73 -0.71 M485.83 30.95 C494.29 25.54, 500.1 16.05, 512.7 -1.63 M487.29 29.7 C496.69 20.53, 503.51 11.56, 514.7 0.89 M495.23 28.71 C499.89 24.82, 505.3 17.83, 519.64 0.43 M493.76 30.08 C503.19 18.75, 512.11 7.36, 518.66 -0.51 M499.89 31.47 C505.13 20.44, 513.43 10.63, 524.79 0.65 M498.23 30.65 C506.64 21.51, 513.8 13.16, 525.32 0.19 M504.9 30.65 C514.28 19.33, 524.24 5.77, 530.76 -0.86 M504.01 30.93 C511.73 18.87, 520.76 10.52, 531.16 -0.57 M508.55 30.28 C517.14 22.97, 523.9 13.45, 537.06 -0.08 M509.66 30.02 C515.35 21.9, 522.66 14.26, 534.59 1.13 M515.82 31.79 C519.17 21.74, 527.33 14.83, 539.59 1.75 M514.68 30.76 C523.32 21.01, 530.8 11.24, 540.61 -0.24 M519.3 28.89 C530.01 20.45, 540.83 8.42, 545.5 -1.04 M519.66 30.79 C525.62 22.95, 533.74 15.35, 545.97 0.43 M524.6 28.31 C533.12 20.68, 540.06 12.25, 552.71 0.21 M525.92 30.62 C534.74 17.63, 546.4 6.75, 551.8 0.01 M531.33 28.64 C538.32 19.4, 548.02 9.07, 556.79 1.37 M529.68 30.78 C541.04 19.12, 550.56 6.97, 556.81 -0.82 M534.54 29.15 C539.63 23.75, 548.49 15.16, 562.42 0.25 M535.74 29.88 C543.89 20.56, 551.46 12.16, 561.89 -0.44 M541.59 28.61 C549.45 17.94, 561.32 7.76, 566.34 1.5 M541.59 29.71 C545.89 24.46, 553.39 17.32, 567.33 -0.19 M545.68 30.06 C553.27 19.11, 562.28 11.03, 572.75 -0.65 M547.09 29.32 C553.9 21.19, 562.02 11.43, 573.43 -1.33 M550.72 31.68 C556.78 23.81, 563.36 14.93, 576.29 -1.5 M550.62 30.13 C559.87 20.96, 567.27 13.27, 577.67 -0.88 M556.14 32.3 C565.51 22.71, 572.92 11.99, 580.79 1.57 M556.11 30.79 C564.99 20.38, 573.78 10.52, 582.72 0.18 M561.08 30.51 C570.52 18.36, 582.1 7.78, 589.49 -1.72 M562.41 30.46 C568.33 23.24, 574.39 16.4, 588.85 -0.73 M566.68 29.68 C571.65 24.74, 578.95 16.23, 593.29 0.46 M567.81 31.25 C577.46 19.95, 586.98 7.71, 593.39 -0.44 M570.76 29.54 C577.89 22.17, 587.6 13.25, 599.5 -0.43 M571.98 29.97 C580.3 22.06, 587.5 13.25, 599.76 0.79 M578.85 31.01 C588.76 21.56, 594.61 8.88, 604.78 1.61 M577.15 30.29 C588.03 19.74, 596.09 9.78, 603.54 0.39 M583.55 30.99 C590.06 20.92, 595.56 14.58, 608.6 -0.16 M582.76 29.79 C590.78 21.09, 598.62 11.25, 610.21 -0.46 M587.55 31.18 C596.36 22.96, 605.64 10.44, 614.16 1.65 M588.6 30.1 C594.2 22.86, 600.79 16.16, 615.27 0.33 M594.99 28.87 C602.31 23.32, 606.64 14.43, 621.82 1.36 M593.53 29.93 C600.56 22.77, 606.63 15.54, 619.89 -0.23 M598.43 29.81 C608.82 18.06, 621 5.45, 626.04 -1 M598.55 31.23 C607.55 19.69, 615.19 9.94, 625.08 0.94 M606.3 30.95 C612.26 20.93, 620.56 9.61, 628.86 1.18 M605.51 30.23 C611.73 22.38, 616.75 15.92, 631.37 -0.93 M609.83 29.33 C620.78 18.2, 628.18 8.58, 636.76 -0.16 M610.25 29.59 C619.43 20.35, 627.83 9.45, 634.9 0.62 M614.45 28.81 C620.13 21.23, 629.73 15.21, 642.17 1.13 M615.27 29.42 C622.9 21.46, 628.59 13.46, 641.13 -0.61 M618.81 28.95 C630.01 20.55, 635.73 9.13, 648.37 0.15 M620.87 29.45 C629.9 18.65, 640.3 9.08, 646.99 -0.37 M626.12 31.79 C633.78 22.47, 641.38 12.37, 650.92 -2.18 M625.8 30.06 C636.54 19.46, 645.39 7.04, 652.52 0.06 M631.16 30.66 C641.66 17.87, 649.62 5.78, 658.63 -0.32 M630.45 30.43 C639.47 20.97, 645.82 13.25, 657.05 1.08 M635.7 29.01 C641.73 21, 651.03 14.72, 662.98 0.65 M637.47 29.58 C641.2 23.09, 647.09 17.78, 662.81 -1.25 M643.4 29.22 C648.28 25.42, 652.07 16.64, 667.04 -0.05 M640.94 30.52 C650.53 19.53, 661.83 6.57, 667.14 -0.04 M647.3 31.39 C657.41 19.28, 667.55 7.26, 674.95 -2.2 M647.03 29.28 C654.89 21.36, 661.84 12.86, 674.12 0.49 M652.73 30.18 C662.76 18.94, 672.71 9.98, 676.81 -1.71 M651.15 31.07 C660.08 20.65, 667.03 13.27, 678.73 0.11 M656.76 29.61 C665.69 19.93, 673.58 11.55, 682.16 -1.8 M658.63 29.31 C665.98 20.59, 674.29 11.87, 684.5 -1.33 M663.11 31.88 C668.44 21.24, 672.75 16.15, 688.87 1.8 M661.82 29.79 C669 23.91, 675.63 17.2, 689.67 -0.79 M668.97 28.9 C675.23 22.81, 684.24 11.43, 696.63 1.61 M668.16 30.44 C675.28 22.63, 680.71 15.56, 694.86 0.04 M675.2 31.42 C684.08 19.14, 689.08 9.13, 699.85 1.34 M672.55 29.73 C679.9 22.97, 686.69 15.68, 699.2 -0.16 M678.53 32.01 C688.32 18.88, 697.55 5.08, 704.47 1.3 M678.85 30.02 C687.51 21.36, 694.95 10.41, 705.36 0.49 M684.37 30.69 C690.89 19.92, 699.49 12.4, 712.13 1.58 M684.84 30.33 C693.53 20.28, 703.3 9.31, 710.96 0.41 M687.76 29.72 C695.82 21.35, 703.53 10.98, 714.46 -0.95 M688.39 29.53 C698.39 17.89, 710.2 6.93, 715.02 0.95 M694.74 30.38 C706.44 16.9, 715.84 7.12, 719.79 -1.04 M695.09 30.37 C704.94 19.96, 714 7.77, 719.97 0.19 M699.36 31.85 C708.72 18.51, 718.57 9.79, 724.14 -0.29 M700.47 30.58 C706.8 21.99, 713.19 14, 726.79 1.03 M705.1 31.94 C715.04 18.39, 725.7 6.42, 730.63 -0.31 M705.58 30.98 C710.81 24.39, 716.04 17.43, 731.65 0.32 M709.78 29.99 C720.74 20.77, 731.02 9.5, 736.42 2.12 M711.2 30.6 C719.55 21.09, 729.05 9.79, 737.13 0.91 M715.01 31.6 C725.05 18.81, 735.91 9.27, 740.17 1.79 M715.48 30.68 C723.63 21.87, 731.43 11.92, 742.8 0.79 M719.15 31.52 C729.52 20.46, 741.69 6.32, 748.94 1.94 M720.08 29.9 C728.87 21.89, 735.69 12.77, 746.44 1.14 M726.71 30.39 C735.28 21.41, 743.19 12.36, 753.65 1.04 M725.85 30.33 C735.95 19.8, 744.28 10.47, 752.63 -0.54 M733.33 29.6 C738.37 21.79, 744.54 17.66, 756.03 1.59 M730.99 30.65 C740.76 20.54, 751.05 8.71, 757.97 -0.37 M735.18 28.09 C743.95 23.67, 749.68 16.38, 764.04 0.99 M736.66 30.14 C746.27 19.41, 754.39 9.57, 763.7 -0.96 M741.92 29.17 C747.14 24.84, 755.9 17.1, 766.78 0.28 M741.19 29.87 C750.46 20.84, 758.97 10.01, 768.88 0.65 M746.12 29.3 C753.96 20.81, 762.85 10.61, 773.99 -1 M747.73 30.71 C757.34 19.38, 766.83 9.54, 775.02 0.11 M752.21 28.95 C761.32 19.06, 767.95 10.94, 778.96 -0.01 M752.37 30.46 C759.77 22.07, 766.8 14.43, 779.23 -0.17 M757.93 29.38 C768.12 18.38, 773.62 8.5, 785.93 0.19 M757.82 29.95 C768.17 19.38, 776.16 9.15, 784.93 0.09 M763.23 31.45 C770.57 22.88, 779.17 12.84, 789.08 -0.51 M763.57 30.15 C769.03 22.66, 775.6 15.81, 788.95 -0.85 M767.75 28.46 C773.93 24.72, 778.25 17.15, 795.95 -0.52 M769.54 30.19 C778.62 18.43, 788.85 6.88, 796.21 0.28 M775.71 28.94 C782 20.45, 792.64 9.4, 798.37 0.33 M774.24 30.55 C779.8 24.51, 786.16 17.38, 800.87 -0.04 M781.42 29.47 C789.4 19.67, 800.01 8.88, 807.89 -0.45 M780.41 29.08 C788.81 18.11, 798.81 7.26, 805 -1.16 M786.12 29.49 C795.46 17.02, 805.07 8.77, 810.76 0.84 M785.22 30.13 C792.84 19.15, 802.83 8.91, 811.72 -0.04 M790.85 28.87 C796.13 20.02, 804.2 13.93, 814.65 1.63 M789.19 31.38 C799.05 20.6, 807.21 9.81, 815.19 0.51 M796.63 30.95 C801.74 21.55, 808.77 14.07, 822.92 -1.86 M795.73 29.2 C800.28 23.22, 807.33 17.28, 821.09 0.22 M798.66 31.64 C810.68 18.65, 818.06 8.34, 826.81 0.46 M799.49 30.97 C811.14 19.32, 821.17 6.7, 826.01 0.68 M805.13 30.95 C816.15 19.97, 822.46 9.67, 830.23 -1.9 M806.4 30.95 C813.15 21.84, 820.44 12.65, 832.49 0.17 M812.17 29.81 C816.56 23.26, 827.45 13.89, 838.71 -1.17 M810.83 30.34 C819.84 20.82, 829.33 9.69, 837.14 0.81 M815.25 28.89 C823.93 23.09, 826.48 16.3, 844.8 1.42 M816.23 30.42 C821.4 24.75, 826.6 17.82, 842.32 0.59 M820.13 29.42 C829.04 19.31, 839.8 9.85, 849.05 -1.45 M822.29 30.59 C827.54 22.46, 833.65 16.75, 848.29 0.5 M826.31 31.96 C834.6 21.05, 841.78 14.14, 853.42 1.54 M827.62 29.51 C834.47 22.19, 842.62 12.95, 852.86 0.62 M833.96 29.3 C837.8 24.18, 844.21 14.75, 856.94 0.74 M832.85 31.17 C838.36 22.75, 844.55 15.77, 856.24 2.71 M839.37 29.14 C844.98 23.46, 850.9 15.44, 856.44 7.01 M837.36 29.98 C841.7 23.73, 847.33 17.67, 856.06 9.06 M841.84 31.06 C848.26 25.47, 852.5 20.27, 858.01 14.57 M842.37 30.9 C846.5 27.48, 849.09 23, 855.97 13.55 M847.63 29.46 C849.8 26.33, 851.27 25, 856.36 18.96 M847.92 30.29 C850.8 26.47, 853.43 23.71, 856.94 20.23 M853.73 30.03 C853.87 29.7, 854.4 28.87, 856.69 26.21 M853.22 30.49 C854.53 29.38, 855.39 28.13, 856.49 26.71" stroke="#fab005" stroke-width="0.5" fill="none"></path><path d="M0.18 0.39 C226.6 -1.2, 451.91 -0.95, 853.97 -0.35 M-0.21 0.33 C216.66 1.6, 433.49 1.77, 854.12 -0.24 M854.89 1.04 C853.56 9.73, 855.22 16.88, 852.54 28.95 M854.3 -0.47 C854.79 10.76, 853.83 21.52, 855.42 30.59 M853.92 29.75 C537.66 33.28, 219.44 32.17, 0.16 30.51 M854.07 30.28 C544.98 32.06, 235.94 32.44, -0.16 30.06 M1.11 29.44 C1.25 23.02, 1.48 17.05, -1.17 1.68 M0.81 29.06 C0.85 21.39, 0.14 11.73, 0.72 0.53" stroke="#000000" stroke-width="1" fill="none"></path></g><g stroke-linecap="round" transform="translate(12.66796875 177.9765625) rotate(0 427.578125 18.673828125)"><path d="M0 0 C0 0, 0 0, 0 0 M0 0 C0 0, 0 0, 0 0 M-0.04 5.88 C1.52 5.02, 2.61 3.67, 4.3 1.1 M-0.16 6.28 C1.43 4.55, 3.91 2.15, 4.79 0.75 M0.64 13.45 C2.29 8.58, 5.96 5.28, 9.04 1.38 M-0.51 11.58 C3.86 8.07, 8.4 2.72, 10.02 -0.27 M-1.77 19.77 C3.76 12.58, 9.55 5.11, 15.27 1.54 M-1.01 17.82 C5.89 11.04, 11.16 4.99, 15.03 -0.25 M0.89 25.7 C4.56 17.16, 11.73 11.64, 22.61 -1.65 M-0.01 24.93 C6.43 17.67, 11.86 8.88, 21.86 -0.88 M0.43 31.75 C7.32 21.11, 11.87 15.82, 27.22 -0.37 M0.08 31.28 C7.49 22.36, 16.53 13.37, 26.57 0.92 M-1.29 35.03 C11.07 27.62, 18.38 13.94, 32.23 0.37 M-0.37 35.92 C6.55 28.34, 15.21 20.1, 31.38 -0.07 M4.62 39.7 C11.8 30.19, 20.22 22.84, 36.23 1.94 M2.78 39.75 C14.21 25.76, 24.3 14.7, 36.65 -0.35 M9.1 38.04 C20.07 27.51, 30.56 13.58, 42.72 0.86 M7.62 38.96 C14.92 32.23, 21.99 24.25, 42.55 0.43 M13.86 40.04 C26.37 26.08, 38.88 8.16, 49.09 -0.32 M13.14 39.83 C25.28 25.75, 37.96 10.13, 47.19 0.56 M17.59 38.13 C30.17 25.92, 41.23 12.36, 51.99 -0.3 M18.68 39.79 C28.88 30.04, 38.16 18.95, 52.33 0.33 M22.81 39.06 C37.08 23.5, 50.78 10.14, 56.32 -0.13 M24.95 38.57 C36.14 25.96, 48.5 12.05, 57.49 1.15 M28.72 38.68 C40.35 28.93, 48.52 16.82, 64.65 1.52 M28.18 39.25 C39.91 26.32, 50.38 14.58, 63.62 -0.34 M32.72 38.78 C41.99 29.89, 49.47 19.8, 70.17 -0.73 M33.77 40.35 C47.09 25.17, 59.63 9.81, 69.25 0.78 M39.33 37.87 C54.69 24.51, 65.47 7.74, 74.07 1.75 M40.49 38.98 C49.6 27.81, 61.26 15.41, 74.17 -0.17 M45.58 40 C56.25 28.43, 62.72 17.56, 78.58 -1.53 M46.06 38.88 C56.77 25.55, 67.25 13.14, 79.56 -0.35 M50.01 41.62 C60.76 28.41, 68.84 17.1, 84.32 0.6 M49.39 39.53 C63.75 25.06, 75.6 10.61, 85.64 0.62 M54.08 40.31 C67.52 29.27, 76.11 15.85, 91.25 -0.2 M56.17 40.24 C66.04 28.14, 75.65 17.73, 89.88 -0.16 M59.08 41.66 C68.9 29.82, 78.65 17.75, 96.16 1.04 M61.05 39.27 C73.16 26.35, 85.78 12.15, 96.59 -0.84 M67.62 40.05 C78.94 25.59, 87.84 15.8, 101.56 1.39 M67.32 39.88 C77.61 28.16, 87.71 14.62, 101.11 0.29 M72.54 41.49 C81.49 29.01, 90.16 17.06, 105.12 -1.15 M71.03 39.46 C80.05 29.84, 89.54 18.95, 105.45 -1.08 M77.68 41.14 C87.34 25.62, 100.98 10.67, 112.63 -0.84 M75.99 40.35 C85.14 30.63, 93.88 21.27, 110.48 -0.22 M82.13 38.39 C93.05 26.53, 102.14 14.37, 114.76 1.34 M81.26 39.19 C96.64 23.76, 109.85 9.34, 116.89 -0.49 M86.43 41.98 C94.24 29.07, 105.96 19.45, 123.3 0.78 M87.51 39.29 C98.15 26, 110.45 12.47, 122.65 -0.03 M91.32 41.44 C103 28.05, 116.02 12.86, 125.34 2.32 M93.09 40.43 C102.26 29.81, 110.81 19.18, 127.45 0.63 M96.76 40.03 C109.14 27.06, 121.64 13.2, 134.11 -0.26 M97.13 38.99 C110.32 24.33, 123.83 10.94, 132.67 0.36 M105.29 41.47 C112.47 29.89, 119.02 18.42, 135.86 0.66 M104.24 39 C109.95 30.66, 117.54 23.56, 136.57 -0.41 M108.98 38.79 C115.69 29.78, 127.34 19.74, 141.33 1.28 M107.65 40.31 C115.25 32.6, 122.93 23.63, 142.95 -0.67 M112.92 41.12 C123.94 29.5, 134.77 17.51, 148.7 -0.75 M113.84 39.59 C121.72 31.63, 129.65 22.77, 148.27 -0.67 M118.09 38.52 C129.83 25.3, 141.36 14.23, 154.97 0.44 M119.75 40.5 C131.79 25.34, 144.99 10.1, 154.33 -0.89 M124.84 40.78 C132.52 30.12, 142.48 21.53, 158.96 -0.23 M125.39 38.73 C136.04 26.55, 147.67 12.73, 159.43 0.12 M127.81 38.27 C140.98 28.05, 152.97 11.61, 164.72 0.03 M129.01 40.15 C140.52 26.51, 150 14.41, 165.02 0.78 M135.37 40.66 C143.29 31.58, 150.22 22.09, 168.46 0.68 M135.79 39.84 C147.45 23.6, 160.37 8.61, 168.84 0.61 M140.57 37.86 C148.34 28.99, 155.09 20.78, 174.01 0.65 M140.92 40.22 C151.81 27.55, 163.79 15.14, 175.61 -0.71 M144.57 38.73 C153.99 29.85, 163.32 18.39, 179.73 -0.8 M146.33 40.16 C156.11 28.78, 164.57 16.53, 180.16 0.8 M151.56 39.92 C163.38 26.62, 177.14 11.63, 185.99 -1.32 M151.82 39.03 C165.63 23.32, 178.6 7.36, 186.11 0.45 M156.21 40.72 C171.51 22.53, 185.5 6.63, 190.04 1.36 M155.69 39.81 C167.92 26.85, 179.52 12.74, 190.97 1.05 M162.64 39.84 C167.79 32.14, 177.84 24.18, 197.52 0.27 M161.96 39.24 C170.35 29.53, 179.46 20.08, 196.89 -0.07 M167.79 38.19 C178.92 27.82, 190.45 10.85, 201.35 -0.04 M166.95 38.79 C178.34 26.04, 189.98 13.62, 201.72 1.08 M172.41 39.78 C183.58 26.22, 197.37 9.37, 205.18 -0.63 M172.5 38.89 C179.54 30.03, 188.13 21.47, 207.73 0.25 M176.5 38.44 C192.16 24.72, 202.42 11.74, 210.35 0.58 M178.57 39.92 C187.34 29.13, 195.06 19.29, 212.74 0.99 M182.2 38.71 C190.43 30.23, 201.66 20.25, 219.29 -0.31 M182.45 40.37 C196.39 24.13, 210.36 8.26, 216.8 -0.21 M189.27 38.58 C199.75 28.7, 209.21 17.53, 222.47 -0.42 M189.39 39.9 C201.75 24.26, 213.99 10.54, 223.29 0.19 M194.03 38.36 C199.79 31.01, 210.61 20.81, 229.86 0.74 M193.75 39.45 C203.52 28.58, 213.21 17.66, 227.65 -0.19 M200.1 40.22 C208.51 31.06, 215.96 19.82, 233.83 -1.9 M199.01 39.05 C210.37 26.78, 220.73 15.71, 232.48 0.5 M204.67 41.25 C216.36 25.05, 229.05 10.39, 239.97 0.56 M204.21 40.22 C215.12 26.53, 225.12 14.58, 237.57 0.16 M210.67 40.53 C221.03 26.75, 231.79 13.72, 245.27 0.07 M209.38 39.28 C216.16 31.43, 224.79 22.73, 244.33 -0.92 M215.58 40.68 C225.19 25.49, 235.36 13.55, 250.39 -1.3 M214.53 40.17 C221.73 29.83, 230.53 20.93, 249.21 1.3 M220.39 38.7 C225.68 31.49, 235.33 21.93, 256.37 -1.81 M219.85 39.61 C226.19 32.64, 233.62 23.39, 254.74 -0.56 M226.97 38.73 C236.67 25.69, 248.17 13.45, 257.65 -1.23 M225.31 39.12 C233.37 30, 240.66 22.24, 259.65 -0.2 M231.07 38.94 C237.27 29.16, 243.94 23.05, 263.42 -0.05 M230.86 40.17 C239.52 28.93, 249.92 16.89, 264.53 0.46 M235.74 40.26 C247.58 27.49, 257.36 14.75, 270.64 -0.61 M236.04 40.25 C249.26 25.77, 260.06 10, 270 0.35 M240.24 41.26 C249.86 27.46, 261.4 18.83, 277.41 1.62 M240.19 39.97 C250.66 28.62, 259.95 19.28, 276.36 -0.63 M245.52 38.91 C254.83 30.08, 262.69 20.97, 279.97 0.96 M246.08 39.14 C255.61 30.25, 263.89 18.8, 279.77 -0.52 M251.13 39.45 C259.67 32.18, 266.34 20.65, 286.08 -1.75 M252.05 39.86 C265 23.77, 279.18 7.44, 285.83 0.78 M256.67 39.12 C263.22 28.92, 274.12 21.36, 291.98 -0.31 M257.71 38.67 C268.64 26.69, 279.34 15.06, 291.85 0.61 M262.71 39.06 C272.37 30.13, 277.84 20.27, 295.86 1.66 M262.03 39.56 C274.67 27.02, 286.02 11.89, 296.41 -0.36 M268.24 38.08 C280.12 22.2, 293.92 9.45, 302.73 1.53 M267.08 40.12 C279.07 26.66, 290.99 14.09, 301.55 0.98 M271.64 39.46 C283.25 26.94, 290.3 15.74, 305.92 -1.53 M272.11 40.62 C282.66 27.99, 292.12 17.18, 308.45 0.26 M280.03 39.78 C293.08 24.6, 306.44 8.28, 311.98 0.25 M279.24 40.11 C288.37 28, 297.67 16.68, 313.55 0.72 M282.32 39.75 C294.89 24, 309.48 12.32, 318.14 0.08 M283.64 39.5 C294.39 27.57, 304.57 14.2, 318.21 -0.68 M290.55 40.98 C295.83 30.93, 302.75 22.71, 325.22 -0.62 M289.14 39.64 C300.25 26.81, 310.62 13.06, 322.9 -0.19 M292.88 40.85 C307.51 25.37, 316.45 13.34, 327.11 0.65 M294.4 40.48 C303.51 28.4, 315.25 16.64, 328.82 -1.15 M299.01 41.25 C308.43 26.63, 320.23 18.02, 335.66 -1.77 M300.59 39.05 C308.62 30.38, 316.35 19.47, 334.08 -0.91 M305.13 39.46 C313.95 25.66, 323.96 16.16, 338.16 -0.86 M305.53 38.7 C318.4 24.24, 331.74 8.39, 339.33 -0.75 M310.7 41.66 C318.51 27.77, 330.5 14.8, 346.23 1.9 M310.67 39.81 C320.92 27.04, 332.89 12.35, 343.94 -0.75 M314.65 38.04 C328.97 25.72, 343.06 8.08, 348.66 2.05 M314.57 39.19 C327.7 25.6, 339.22 13.4, 348.99 1.02 M321.6 39.82 C332.22 27.25, 340.22 16.78, 355.57 -0.74 M321.3 40.45 C332.86 24.66, 346.16 11.1, 354.72 -0.14 M324.68 38.84 C336.71 23.39, 349.1 11.95, 360.68 -1.62 M326.45 39.8 C338.77 24.72, 352.16 7.68, 360.93 0.77 M332.43 40.37 C344.91 26.82, 355.7 9.34, 364.06 0.98 M330.31 40.18 C337.78 31.69, 344.36 24.25, 365.05 0.32 M336.24 37.9 C343.32 29.36, 354.34 19.7, 371.05 2.19 M336.5 40.28 C347.35 26.93, 358.46 13.99, 371.21 0.73 M341.29 37.99 C351.24 27.96, 362.79 15.21, 375.76 1.49 M341.11 40.76 C355.45 25.4, 367.59 10.44, 376.96 -1.08 M346.02 39.04 C357.17 29.38, 364.32 17.8, 379.95 -0.45 M347.42 39.21 C356.29 29.97, 366.1 18.57, 380.41 0.71 M353 40.14 C365.58 23.46, 378.82 9.88, 388.49 1.02 M352.98 40.34 C363.51 27.34, 376.28 13.6, 386.87 -0.21 M356.45 39.84 C367.24 26.33, 380.14 16.94, 392.3 -0.66 M358.32 39.03 C368.9 28.65, 377.11 17.68, 392.03 -0.08 M361.09 41.04 C377.37 23.55, 389.69 7.73, 395.76 -0.44 M362.09 40.43 C375.66 24.4, 389.53 8.09, 398.58 -0.07 M369.67 37.7 C381.69 26.26, 390.15 14.46, 403.72 -0.82 M367.69 39.06 C382.58 24.26, 394.64 9.13, 403.43 -0.1 M373.83 39.72 C386.42 23.2, 400.45 9.28, 408.82 -1.09 M374.5 38.89 C385.53 26.32, 397.7 12.17, 408.29 0.18 M377.56 39.75 C388.47 29.28, 399.12 17.24, 414.56 -0.49 M378.42 38.46 C388.72 28.3, 398.58 15.75, 412.89 -0.44 M384.18 37.99 C395.93 28.89, 402.92 16.05, 418.63 0.62 M383.16 38.94 C393.57 27.66, 403.68 18.02, 419.59 0.27 M391.7 40.96 C401.58 25.48, 412.69 9.77, 423.9 1.54 M388.78 39.25 C400.02 27.86, 409.69 17.49, 424.56 0.17 M395.83 38.41 C405.84 24.36, 418.49 12.2, 429.85 0.05 M394.93 40.16 C407.39 23.77, 421.78 7.61, 430.44 -0.23 M401.38 38.03 C407.96 30.58, 413.65 21.14, 435.52 1.24 M399.44 39.33 C412.04 25.59, 424.3 12.67, 435.49 0.36 M405.2 38.35 C415.18 26.96, 429.12 12.98, 438.89 0.31 M405.53 39.49 C417.23 26.8, 426.79 14.82, 440.23 -0.89 M411.63 39.47 C422.64 24.73, 432.19 12.99, 443.92 -0.61 M410.45 39.44 C419.54 29.1, 428.18 21.45, 444.62 -0.88 M415.43 39.95 C430.68 23.98, 444.21 9, 451.87 -1.68 M416.6 40.22 C423.59 31.68, 431.9 21.36, 450.71 0.57 M421.19 39.56 C428.75 30.7, 437.09 20.27, 456.33 -0.47 M422.26 40.17 C428.59 30.86, 436.48 22.32, 455.78 0.79 M426.35 40.14 C434.97 29.56, 442.55 19.15, 462.61 -1.22 M426.65 39.03 C438.88 26.17, 448.97 14.83, 461.03 -0.68 M431.87 41.13 C442.66 30.32, 449.9 16.85, 466.69 -1.99 M432.04 39.76 C444.48 26.78, 456.01 11.82, 466.69 0.07 M436.53 40.63 C449.1 26.07, 459.86 12.27, 470.01 0.89 M438.09 38.92 C450.34 25.76, 461.82 11.89, 472.07 1.11 M441.14 38.5 C451.06 29.3, 458.08 20.13, 477.66 1.92 M441.35 40.01 C453.38 26.23, 464.51 13.6, 477.96 -0.96 M449.27 37.89 C455.76 26.68, 468.67 16.61, 482.65 1.42 M448.22 40.28 C458.4 27.22, 469.88 14.7, 482.08 0.32 M452.25 40.07 C462.07 30.42, 470 23.57, 486.63 -0.84 M453.14 39.86 C461.5 30.14, 471.14 19.39, 488.08 0.11 M458.57 41.21 C467.77 27.35, 478.69 17.54, 492.87 1.14 M458.22 39.84 C469.05 28.39, 479.61 16.47, 491.72 -0.59 M462.82 39.24 C472.95 28.46, 479.57 20.25, 499.69 0.41 M463.42 39.36 C476.86 25.97, 489.22 10.75, 498.46 -0.93 M471.15 38.62 C484.78 24.63, 498.08 10.17, 501.38 -0.13 M470.17 39.69 C478.77 28.86, 488.05 18.83, 503.71 0.98 M474.18 41.2 C482.05 30.13, 490.96 18.6, 509.66 1.12 M473.59 39.39 C488.03 23.7, 501.69 8.76, 508.38 0.07 M480.45 38.96 C492.99 23.47, 505.68 7.21, 514.61 -0.79 M480.05 40.3 C490.24 26.43, 502.6 14.8, 513.14 -0.52 M485.37 40.92 C496.06 23.41, 512.26 7.77, 518.08 -0.48 M485.44 40.73 C492.9 30.37, 501.34 20.64, 520 0.61 M488.64 37.84 C500.44 27.28, 507.31 17.46, 522.69 0.54 M490.72 39.48 C502.86 25.64, 515.24 11.09, 524.51 0.22 M495.18 41.15 C504.1 30.14, 513.24 18.21, 529.2 -1.35 M496.15 39 C507.85 24.89, 521.3 10.55, 529.4 0.54 M500.6 39.65 C512.56 24.95, 526.75 8.93, 533.5 -1 M500.92 39.41 C509.82 28.4, 519.1 18.78, 534.71 0.36 M504.09 38.43 C515.7 27.52, 524.47 19.15, 540 0.29 M505.3 39.67 C515.84 27.93, 525 17.47, 541.52 -0.9 M509.92 39.58 C522.6 25.08, 534.66 14.13, 546.62 1.55 M512.3 39.61 C522.63 28.44, 531.98 16.15, 546.01 -0.07 M516.32 41.07 C528.39 25.89, 539.79 12.42, 550.17 -0.98 M515.84 39.08 C527.29 25.95, 540.14 13.24, 551.21 -0.15 M520.93 37.56 C530.35 30.57, 539.59 17.79, 555.34 0.91 M522.39 39.98 C533.4 27.26, 545.97 13.99, 557.08 0.81 M525.77 39.18 C540.3 26.96, 550.25 10.64, 560.12 0.22 M527.13 39.43 C537.85 25.95, 549.32 13.29, 562.21 -0.25 M534.66 40.34 C542.72 25.29, 555.59 15.02, 568.7 1.57 M533.61 39.77 C539.33 30.54, 546.93 22.34, 567.96 -0.25 M538.12 38.61 C548.02 28.91, 557.46 18.34, 572.98 -1.99 M537.91 39.77 C547.8 29.34, 555.69 18.53, 572.14 0.08 M542.21 40.2 C548.97 31.28, 556.42 24.08, 577.43 1.82 M543.62 39.36 C554.27 25.66, 567.43 12.16, 577.11 -0.65 M548.71 39.05 C558.72 30.15, 569 15.96, 583.94 2.08 M549.32 39.03 C555.78 30.16, 563.14 21.71, 582.86 0.28 M553.36 41.92 C565.12 29.47, 573.09 16.4, 587.99 -0.27 M552.95 40.2 C566.37 25.37, 579.08 11, 588.37 -0.92 M560.63 39.91 C568.72 29.6, 576.38 23.15, 592.89 0.64 M559.87 38.98 C568.88 28.51, 579.38 18.28, 594.1 -0.17 M562.66 41.33 C573.48 31.5, 581.56 18.85, 600.56 -0.86 M564.01 40.37 C573.84 29.11, 583.1 17.82, 599.96 0.26 M570.69 38.44 C581.71 26.38, 592.24 12.1, 602.46 -1.1 M570.5 39.26 C582.98 24.01, 596.08 8.7, 604.49 -0.12 M574.01 40.31 C582.64 30.86, 588.12 21.79, 611.03 -0.32 M574.81 40.58 C583.07 29.2, 592.41 19.63, 609.5 -0.93 M579.4 39.62 C593.88 26.11, 605.5 12.34, 614.64 2.16 M579.49 40.36 C590.13 27.8, 599.45 17.67, 615.23 1.17 M586.04 41.49 C593.67 28.83, 602.43 20.84, 621.01 -1.24 M585.22 39.86 C594.1 30.1, 601.93 20.69, 621 -0.45 M593 38.25 C598.44 30.04, 605.54 20.59, 624.17 -1.55 M591.55 38.63 C605.33 23.28, 619.52 7.7, 624.39 -0.22 M594.12 38.29 C604.61 29.06, 614.51 19.4, 631.85 1.56 M596.01 40.63 C604.43 30.39, 612.79 20.41, 629.86 0.61 M601.46 40.88 C614.27 24.82, 625.08 14.8, 636.49 0.61 M600.77 39.29 C613.15 25.07, 625.65 11.01, 635.94 0.18 M608.29 40.93 C614.49 27.7, 625.24 18.83, 642.59 -0.94 M605.83 39.65 C619.56 25.45, 632.33 10.07, 641.87 -0.99 M612.45 39.86 C620.8 29.9, 630.75 16.53, 645.75 0.24 M611.62 39.41 C619.88 31.3, 628.98 20.73, 646.74 0.18 M615.35 38.39 C631.91 26.57, 643.37 11.57, 652.01 -1.98 M618.23 39.05 C623.97 31.44, 630.77 22.82, 652.2 0.36 M621.37 39.33 C637.08 25.72, 649.28 8.29, 656.85 1.74 M623.98 38.92 C633.84 25.31, 646.52 12.42, 657.56 -0.05 M628.8 40.43 C634.38 32.69, 643.59 24.72, 664.59 -1.04 M628.64 39.33 C635.14 30.73, 641.38 23.02, 662.45 0.14 M633.32 41.18 C642.32 28.99, 651.74 19.86, 667.37 0.29 M634.09 39.62 C640.99 31.14, 650.08 20.86, 668.01 1.03 M638.88 39.62 C646.38 29.33, 653.72 23.06, 672.54 -1.8 M639.41 40.32 C649.58 27.09, 660.32 15.55, 673.55 0.7 M645.15 39.12 C656.21 26.68, 666.18 11.19, 677.64 -0.16 M643.61 40.16 C653.78 29.81, 662.26 17.45, 677.65 -0.69 M650.51 41.27 C662.94 23.06, 677.08 8.11, 685.8 -2.16 M648.75 40.23 C661.59 25.15, 674.84 11.2, 684.87 0.22 M655.41 40.6 C668.96 25.43, 679.33 12.91, 688.69 -0.87 M654.59 39.04 C664.72 28.45, 675.67 16.39, 688.89 0.05 M661.37 41.49 C666.16 30.64, 673.58 25.02, 694 -0.25 M659.76 38.63 C670.56 27.59, 680.02 17.86, 695.16 -0.22 M665.71 41.65 C678.85 24.28, 689.06 11.44, 700.29 1.67 M665.79 40.39 C676.67 25.95, 689.38 12.58, 700.05 0.86 M671.83 41.19 C684.59 21.82, 696.87 9.64, 703.85 0.34 M671.46 39.44 C680.6 28.87, 690.63 16.49, 704.88 1.04 M677.36 41.77 C689.97 24.93, 699.02 12.07, 708.89 1.77 M676.34 39.94 C686.72 27.46, 697.55 12.95, 710.32 0.7 M682.99 40.04 C689.65 32.12, 695.08 24.04, 715.75 1.56 M681.73 39.95 C691.19 27.49, 700.27 16.49, 715.87 0.26 M685.4 38.55 C696.7 28.94, 709.01 14.57, 721.7 -1.5 M686.82 40.52 C698.32 26.2, 709.31 12.86, 720.82 0.92 M690.67 38.49 C702.68 23.82, 715.56 7.89, 725.85 1.37 M692.35 39.79 C700.37 30.19, 708.73 19.18, 726.41 -0.16 M695.26 38.57 C709.39 29.43, 718.11 13.97, 730.63 1.73 M696.81 40.08 C710.19 25.23, 722.39 8.83, 731.51 0.19 M703.41 39.78 C714.99 28.3, 722.27 14.28, 734.67 0.77 M702.01 39.98 C710.25 30.24, 718.79 21.37, 736.78 0.27 M708.09 40.22 C719.52 23.99, 731.68 9.22, 742.3 -1.91 M707.31 39.44 C714.91 31.49, 722.45 22.27, 742.28 -0.43 M712.46 39.92 C725.26 26.89, 735.62 12.33, 748.44 -1.45 M713.25 39.87 C719.98 30.37, 727.56 22.27, 747.68 -0.09 M718.76 39.65 C725.8 27.63, 735.99 20.12, 752.07 1.03 M717.71 39.25 C728.47 27.07, 739.87 14.83, 751.89 -0.53 M721.79 37.72 C732.39 28.75, 738.09 20.06, 757.13 1.28 M723.54 40.18 C729.77 30.82, 737.95 23.73, 757.22 -0.04 M729.84 40.81 C737.7 29.06, 750.08 15.62, 762.01 0.73 M728.77 39.04 C738.28 27.15, 749.69 16.33, 763.01 0.65 M734.11 40.76 C744.29 28.68, 756.54 14.95, 768.42 1.3 M734.22 40 C745.29 26.01, 758.48 10.95, 767.85 -0.49 M737.65 41.41 C750.62 28.51, 761.59 15.6, 774.89 -1.81 M739.68 40.2 C750.18 27.36, 761.74 14.07, 773.18 -0.75 M744.81 39.4 C756.27 27.35, 767.1 13.38, 777.69 -1.26 M745.53 39.77 C752.81 30.16, 760.5 21.54, 779.45 0.48 M750.19 38.96 C759.2 30.51, 769.55 19.71, 784.24 -0.82 M748.97 38.98 C760.3 28.53, 770.22 15.64, 783.83 -0.25 M756.04 40.77 C765.01 26.94, 775.88 14.89, 790.07 -0.5 M755.6 40.28 C762.94 30.75, 768.33 24, 790.29 0.67 M761.22 40.74 C772.03 27.11, 782.48 14.53, 796.26 0.24 M759.6 39.47 C767.69 32.63, 774.74 24.8, 795.3 0 M766.63 38.82 C774.64 28.38, 787.9 15.14, 798.38 1.28 M765.43 39.7 C778.54 23.99, 792.42 8.52, 800 0.73 M772.18 37.82 C783.08 24.73, 792.48 12.46, 807.9 -1.3 M771.91 38.64 C781.21 28.63, 788.68 19.41, 805.81 0.2 M777.51 40.99 C785.78 29.9, 794.62 16.4, 809.18 -0.45 M775.28 39.29 C785.36 28.94, 797.18 16.43, 810.63 -0.83 M782.26 39.04 C791.27 27.46, 799.98 19.23, 816.18 -0.56 M782.62 39.32 C791.72 27.07, 803.77 14.18, 815.81 0.67 M788.27 39.26 C802.02 26.25, 816.3 7.47, 820.74 1.56 M786.27 39.43 C795.68 29.84, 804.94 20.68, 821.61 -0.65 M794.35 41.03 C804.91 26.51, 815.46 14.5, 826.78 1.83 M791.85 39.19 C801.59 30.06, 808.95 19.68, 825.62 -0.17 M799.26 40.66 C808.09 29.1, 815.91 18.86, 833.05 0.35 M797.41 39.11 C807.96 26.94, 819.41 14.26, 832.77 0.51 M801.07 38.2 C813.51 29.08, 823.71 13.92, 836.14 -1.7 M802.11 39.78 C809.93 31.03, 816.64 23.72, 836.47 -0.28 M808.2 38.24 C817.18 33.13, 823.89 21.78, 841.83 0.72 M807.31 39.92 C815.82 32.24, 822.05 23.25, 843.3 0.74 M814.75 40.73 C823.56 27.29, 834.81 17.35, 848.08 1.32 M813.3 39.5 C824.91 26.37, 835.46 13.89, 848.14 -0.02 M819.54 41.82 C826.39 32.33, 834.5 20.17, 852.48 1.28 M818.41 39.83 C831.71 25.14, 844.25 10.21, 852.83 -0.02 M825.45 40.61 C832.24 29.67, 837.85 24.79, 857.83 3.62 M823.71 38.61 C836.57 25.29, 850.2 10.06, 858 1.12 M830.43 40.02 C839.49 26.75, 852.26 16.65, 854.96 8.7 M830.09 40.13 C835.86 33.21, 843.42 24.91, 857.11 7.35 M834.93 37.58 C842.87 28.45, 851.71 19.28, 856.77 14.28 M835.02 40.24 C839.86 33.8, 844.77 26.86, 856.73 13.56 M840.77 38.23 C846.05 32.83, 850.48 28.77, 856.04 18.62 M839.6 40.52 C844.94 35.32, 847.84 30.75, 857.49 20.97 M846.56 40.99 C851.89 33.27, 855.53 28.33, 857.99 25.56 M845.32 39.35 C850.57 34.65, 853.41 28.83, 857.02 25.49 M850.85 40.2 C853.14 37.73, 855.42 34.55, 857.36 31.71 M850.81 39.89 C852.71 37.34, 853.84 35.99, 857.55 32.41" stroke="#fab005" stroke-width="0.5" fill="none"></path><path d="M0.57 -0.46 C272.35 0.79, 542.59 0.9, 854.71 0.44 M0.04 -0.07 C222.64 3.36, 445.8 3.65, 855.09 -0.18 M854.05 -1.38 C855.11 9.59, 855.66 20.66, 854.89 35.98 M855.9 0.23 C854.27 12.24, 855.2 25.46, 855.79 37.96 M855.74 38.05 C608.66 37.95, 361.81 38.37, 0.47 36.64 M855.2 37.29 C526.4 36.19, 197.89 35.87, -0.31 37.48 M0.61 35.86 C1.13 27.34, -1.79 14.48, -0.46 -0.37 M-0.49 38.19 C-0.54 23.9, -0.23 11.59, 0.5 -0.6" stroke="#000000" stroke-width="1" fill="none"></path></g><g transform="translate(696.734375 13.15234375) rotate(0 37 12.5)"><text x="0" y="18" font-family="Virgil, Segoe UI Emoji" font-size="20px" fill="#000000" text-anchor="start" style="white-space: pre;" direction="ltr">Level 0</text></g><g transform="translate(695.734375 113.76953125) rotate(0 33 12.5)"><text x="0" y="18" font-family="Virgil, Segoe UI Emoji" font-size="20px" fill="#000000" text-anchor="start" style="white-space: pre;" direction="ltr">Level 1</text></g><g transform="translate(699.27734375 187.69140625) rotate(0 37.5 12.5)"><text x="0" y="18" font-family="Virgil, Segoe UI Emoji" font-size="20px" fill="#000000" text-anchor="start" style="white-space: pre;" direction="ltr">Level 2</text></g></svg>