<svg version="1.1" xmlns="http://www.w3.org/2000/svg" viewBox="0 0 951.97265625 952.0753486958673" width="951.97265625" height="952.0753486958673">
  <!-- svg-source:excalidraw -->
  
  <defs>
    <style>
      @font-face {
        font-family: "Virgil";
        src: url("https://excalidraw.com/Virgil.woff2");
      }
      @font-face {
        font-family: "Cascadia";
        src: url("https://excalidraw.com/Cascadia.woff2");
      }
    </style>
  </defs>
  <rect x="0" y="0" width="951.97265625" height="952.0753486958673" fill="#ffffff"></rect><g stroke-linecap="round" transform="translate(119.5907719993611 76.16015625) rotate(0 69.5 31.12890625)"><path d="M0 0 C0 0, 0 0, 0 0 M0 0 C0 0, 0 0, 0 0 M0.43 7.11 C0.57 4.63, 2.45 2.26, 4.82 -0.11 M0.12 6.34 C1.67 4.11, 4.24 1.55, 4.66 0.28 M0.71 12.32 C3.8 6.49, 9.61 3.93, 9.22 -0.63 M-0.07 12.09 C3.6 7.55, 7.68 3.17, 11.11 0.04 M-0.37 16.54 C7.22 11.73, 10.88 5.44, 14.13 -0.97 M0.71 18.95 C3.05 15.12, 6.8 10.37, 14.65 0.07 M1.74 26.06 C4.44 17.29, 9.67 10.04, 19.82 -1.15 M0.99 24.66 C8.48 14.23, 17 5.64, 21.72 -1.05 M1.48 30.26 C7.35 25.92, 12.15 16.29, 27.81 0.69 M-0.06 30.71 C9.31 17.99, 20.45 6.2, 26.06 1.1 M-0.83 35.91 C7.56 25.87, 17.12 16.41, 30.84 1.16 M0.12 36.48 C10.59 26, 19.47 15.23, 32.24 0.13 M-1.64 44.4 C12.04 31.64, 23.08 19.27, 38.34 0.33 M0.99 43.1 C8.91 33.28, 15.66 24.4, 36.05 0.5 M-1.06 48.84 C8.6 37.45, 18.23 26.69, 40.83 -1.35 M0.35 49.22 C16.03 30.37, 31.31 10.66, 43.11 -1.05 M0.91 55.71 C12.99 41.4, 25.57 25.45, 47.78 1.78 M0.33 55.35 C10.74 42.69, 21.73 30.34, 47.11 0.2 M-1.81 61.71 C10.71 44.79, 23.61 32.75, 52 1.5 M-0.35 61.43 C13.83 42.83, 30.19 26.82, 52.49 0.42 M1.04 64.36 C18.35 44.34, 38.05 24.31, 59.49 0.58 M2.22 64.08 C20.68 42.89, 38.78 22.84, 58.6 0.81 M7.25 65.97 C23.84 46.2, 39.16 29.03, 61.85 1.61 M6.71 65.27 C28.91 41.32, 48.8 15.97, 64.42 -0.81 M14.59 62.94 C28.76 46.77, 42.12 30.13, 70.13 -0.06 M13.35 64.29 C34.26 40.3, 54.56 15.81, 68.7 -0.45 M18.59 65.64 C31.4 47.21, 45.8 31.58, 75.22 0.51 M17.91 64.38 C31.5 48.79, 46.6 33.02, 74.73 -0.41 M25.61 63.05 C38.35 48.7, 54.35 30.47, 77.7 -1.24 M23.18 63.98 C44.24 38.9, 66.07 14.77, 78.44 0.33 M26.69 63.64 C43.47 47.75, 59.78 28.7, 84.25 1.47 M29.11 64.32 C40.41 51.5, 52.66 37.66, 85.15 -0.4 M33.99 64.21 C52.59 41.02, 71.92 19.85, 89.49 -0.35 M33.54 65 C54.51 41.8, 72.55 19.81, 89.7 -0.3 M38.59 62.81 C50.85 51.49, 67.1 33.29, 96.39 1.42 M38.33 65.52 C61.28 38.91, 83.39 13.61, 95.2 -1.14 M42.92 63.59 C58.83 49.97, 70.24 34.4, 102.11 0.88 M44.1 64.86 C57.19 49.5, 70.58 33.61, 101.19 0.87 M50.64 65.69 C73.46 37.84, 94.57 15.05, 106.41 -1.02 M50.39 65.05 C61.58 50.9, 72.57 35.66, 106.29 0.64 M54.94 64.08 C70.18 45.23, 86.67 31.75, 109.49 0.41 M56.37 64.72 C74.53 43.53, 92.24 21.44, 110.47 -0.28 M60.52 66.49 C73.98 51.93, 83.62 36.48, 115.74 -0.78 M61 64.67 C80.48 43.28, 99.9 21.66, 116.99 0.65 M67.87 62.23 C83.87 41.77, 103.95 17.95, 122.86 -0.09 M65.72 63.41 C86.26 41.32, 104.73 20.16, 121.95 0.76 M71.21 63.12 C89.82 43.95, 107.54 21.91, 127.07 -1.37 M70.67 64.77 C88.6 43.2, 108.18 22.62, 127.7 -0.01 M74.84 64.29 C91.45 49.29, 102.67 35.16, 130.77 0.72 M77.35 63.4 C94.83 43.14, 113.34 23.01, 132.89 -0.82 M83.02 65.16 C101.68 41.21, 123.41 16.95, 136.45 1.65 M80.79 64.4 C103.21 39.8, 124.7 16.18, 136.67 -0.34 M88.32 62.21 C106.9 40.46, 129.27 15.49, 141.11 2.13 M88.3 64.83 C101.77 46.57, 116.99 30.39, 141.4 3.07 M93.55 65.91 C111.68 41.5, 130.99 21.51, 141.35 9.2 M91.57 65.29 C110.05 43.83, 127.34 22.62, 142.11 7.13 M96.07 65.59 C111.92 47.39, 124.07 32.12, 142.49 12.4 M97.46 63.48 C106.64 53.8, 115.38 44.86, 141.86 14.47 M101.72 66.32 C115.93 50.42, 125.56 37.28, 143.06 22.09 M102.08 63.79 C111.47 54.34, 120.73 44.98, 140.6 19.71 M109.17 65.76 C114 55.34, 123.01 46.94, 139.93 26.13 M109.57 64.81 C115.26 55.51, 124.16 46.21, 140.58 26.73 M111.78 63.06 C122.72 54.81, 131.8 40.87, 141.46 31.01 M114.22 64.93 C123.43 52.04, 133.28 41.22, 141.84 32.58 M118.01 63.71 C122.84 59.59, 128.7 53.44, 143.22 39.41 M119.2 63.91 C125.24 56.9, 131.56 50.09, 142.19 37.65 M125.27 64.46 C130.89 59.37, 134.08 52.14, 141.86 43.16 M124.74 64.4 C128.11 59.34, 133.54 54.39, 141.46 45.38 M127.81 63.07 C132.08 60.35, 136.2 58.14, 142.65 52.62 M130.04 64.33 C132.52 61, 134.44 57.31, 141.46 50.51 M133.98 63.42 C136.85 63.28, 137.7 61.17, 141.5 57.71 M135.07 64.4 C137.1 62.47, 138.69 60.24, 141.55 56.69" stroke="#40c057" stroke-width="0.5" fill="none"></path><path d="M0.47 -0.7 C43.94 0.95, 84.61 -1.03, 137.51 0.7 M-0.33 -0.03 C54.37 0, 109.46 -0.7, 138.51 0.32 M139.02 1.41 C138.74 14.95, 140.19 27.5, 140.74 60.57 M138.64 -0.26 C138.31 12.53, 139.53 26.78, 138.83 61.65 M138.42 62.45 C106.39 61.38, 74.19 62.82, -1.17 60.68 M139.89 61.52 C105.08 62.63, 70.84 61.58, 0.84 62.21 M-0.61 63.7 C1.96 41.4, -1.18 20.61, 1.37 0.28 M-0.47 62.61 C0.29 45.23, -1.01 30.71, -0.57 0.33" stroke="#000000" stroke-width="1" fill="none"></path></g><g stroke-linecap="round" transform="translate(252.2235844993611 77.01171875) rotate(0 7.71875 31.15234375)"><path d="M4.2 2.33 C4.2 2.33, 4.2 2.33, 4.2 2.33 M4.2 2.33 C4.2 2.33, 4.2 2.33, 4.2 2.33 M3.18 10.37 C3.58 7.25, 6.86 4.18, 9.39 1.33 M2.38 10.41 C3.61 8.56, 5.4 7.22, 11.08 1.74 M0.36 17.65 C4.09 13.83, 7.88 10.84, 11.25 5.81 M2.03 17.47 C4.92 12.89, 8.58 9.89, 11.38 6.25 M1.66 22.29 C3.08 22.15, 5.56 15.96, 13.31 11.69 M0.63 24.48 C3.33 21.82, 6.79 18.55, 13.32 11.6 M0.11 27.46 C5.44 23.9, 7.1 21.61, 14.7 14.33 M2 29.84 C3.89 27.1, 6.96 22.75, 14.28 14.8 M1.05 37.73 C5.55 29.81, 11.22 25.79, 14.5 19.89 M1.06 36.5 C5.39 32.18, 10.23 27.53, 14.63 20.06 M1.8 40.47 C8.56 36.64, 11.35 27.96, 13.85 26.73 M2.74 40.27 C6.74 36.72, 9.08 32.25, 14.94 26.17 M3.55 45.69 C8.1 42.05, 9.85 38.84, 15.15 31.78 M3.73 46.3 C7.33 42.13, 10.21 38.58, 15.51 31.83 M3.21 51.36 C10.83 43.11, 14.78 40.42, 15.82 34.75 M4.32 49.71 C7.87 46.63, 9.61 44.12, 16.45 36.47 M4.77 58.15 C8.47 53.02, 9.92 48.86, 15 45.5 M4.45 58.29 C5.75 54.05, 8.9 52.1, 14.75 44.73 M6.14 60.61 C9.98 58.09, 12.5 53.55, 14.23 52.75 M7.19 60.05 C9.61 57.12, 12.06 53.74, 13.54 51.6" stroke="#40c057" stroke-width="0.5" fill="none"></path><path d="M10.11 1.22 C11.46 2.54, 12.68 8.13, 13.65 13.81 C14.63 19.49, 16.15 28.43, 15.95 35.29 C15.75 42.14, 13.8 50.37, 12.46 54.95 C11.12 59.53, 9.41 62.45, 7.94 62.76 C6.46 63.07, 4.97 60.86, 3.61 56.8 C2.25 52.74, 0.31 45.2, -0.22 38.38 C-0.75 31.56, -0.31 21.92, 0.43 15.9 C1.18 9.88, 2.3 4.16, 4.26 2.26 C6.22 0.37, 10.83 3.25, 12.2 4.55 C13.57 5.86, 12.52 9.7, 12.49 10.09 M5.66 0.85 C7.54 -0.9, 11.18 0.39, 12.76 3.55 C14.34 6.71, 14.8 13.29, 15.17 19.81 C15.53 26.33, 15.64 36.19, 14.94 42.67 C14.25 49.15, 12.31 55.61, 10.99 58.69 C9.67 61.77, 8.72 62.58, 7.01 61.17 C5.31 59.76, 1.95 55.4, 0.76 50.24 C-0.44 45.08, -0.32 36.95, -0.15 30.23 C0.01 23.51, 0.5 14.84, 1.74 9.9 C2.98 4.97, 6.59 1.85, 7.29 0.61 C8 -0.64, 6.32 2.12, 5.96 2.43" stroke="#000000" stroke-width="1" fill="none"></path></g><g stroke-linecap="round" transform="translate(114.3954594993611 76.9296875) rotate(0 4.9765625 31.701171875)"><path d="M2.18 1.9 C2.18 1.9, 2.18 1.9, 2.18 1.9 M2.18 1.9 C2.18 1.9, 2.18 1.9, 2.18 1.9 M0.67 9.81 C3.14 7.67, 4.9 6.27, 6.25 3.47 M1.3 8.77 C2.88 6.99, 5.05 4.75, 6.16 3.06 M-0.01 16.49 C2.22 12.73, 3.71 11.82, 10.66 5.45 M0.81 15.16 C3.31 13.1, 4.93 10.51, 10.12 4.4 M0.99 22.25 C4.23 19.82, 4.39 16.58, 11.98 11.23 M1.67 21.78 C3.78 17.5, 6.63 14.76, 10.42 10.64 M1.79 27.61 C2.06 25.01, 3.98 23.73, 9.37 18.89 M1.51 27.63 C3.52 24.92, 5.98 21.71, 9.25 17.97 M1.93 33.68 C4 30.91, 4.33 29.62, 10.59 24.4 M1.31 33.28 C3.61 31.32, 5.56 27.53, 8.89 24.04 M3.63 36.62 C4.96 34.65, 7.23 32.2, 10.01 28.75 M3.44 37.16 C4.08 35.67, 5.69 34.58, 9.47 29.62 M1.92 43.07 C4.07 42.53, 5.32 40.44, 10.69 34.78 M3.28 43.99 C5.16 41.04, 6.74 39.87, 10.64 35.41 M3.46 49.41 C5.72 45.45, 8.13 41.53, 12.99 40.71 M3.64 48.67 C6.42 46.07, 9.58 42.98, 11.42 38.93 M2.06 56.2 C3.82 53.09, 6.45 50.24, 11.58 46 M2.03 56.11 C3.9 54.9, 6.75 52.37, 11.33 46.02 M4.69 60.04 C6.66 58.69, 8.71 56.35, 10.4 52.59 M4.39 60.85 C6.07 58.49, 8.7 55.15, 10.81 52.58" stroke="#40c057" stroke-width="0.5" fill="none"></path><path d="M2.51 1.52 C3.61 -0.55, 6.27 0.37, 7.28 3.01 C8.29 5.65, 8.11 11.5, 8.55 17.36 C9 23.23, 9.94 31.68, 9.93 38.21 C9.91 44.75, 9.43 52.4, 8.48 56.58 C7.52 60.76, 5.45 63.61, 4.18 63.28 C2.9 62.95, 1.42 59.25, 0.82 54.6 C0.22 49.95, 0.61 42, 0.6 35.39 C0.58 28.78, -0.03 20.6, 0.72 14.92 C1.48 9.24, 4.51 3.81, 5.13 1.31 C5.75 -1.18, 4.69 -0.38, 4.44 -0.03 M1.84 3.28 C2.86 0.65, 4.84 0.63, 5.84 2.55 C6.85 4.48, 7.33 9.23, 7.86 14.8 C8.39 20.38, 8.81 28.99, 9.03 35.98 C9.24 42.97, 9.58 52.22, 9.15 56.74 C8.71 61.25, 7.51 62.95, 6.41 63.05 C5.32 63.16, 3.85 61.5, 2.57 57.38 C1.29 53.26, -0.87 45.2, -1.25 38.35 C-1.63 31.5, -0.57 22.33, 0.29 16.27 C1.15 10.22, 3.46 4.31, 3.89 2.03 C4.32 -0.26, 2.82 2.27, 2.88 2.57" stroke="#000000" stroke-width="1" fill="none"></path></g><g transform="translate(124.5907719993611 95.7890625) rotate(0 64.5 11.5)"><text x="64.5" y="18" font-family="Helvetica, Segoe UI Emoji" font-size="20px" fill="#000000" text-anchor="middle" style="white-space: pre;" direction="ltr">Queue</text></g><g stroke-linecap="round" transform="translate(414.2118657493611 10) rotate(0 92.5 71.5)"><path d="M0 0 C0 0, 0 0, 0 0 M0 0 C0 0, 0 0, 0 0 M0.22 7.13 C1.92 4.16, 3.04 2.28, 5.51 -0.39 M-0.56 6.08 C1.34 4.77, 2.86 2.28, 5.14 0.1 M0.66 12.38 C1 7.77, 5.84 6.98, 11.27 -0.37 M0.77 11.51 C2.19 9.07, 5.11 7.58, 9.86 -0.47 M1.36 19.34 C2.55 13.14, 6.24 10.26, 16.72 1.51 M0.58 19.24 C5.77 12.46, 11.98 5.02, 15.68 0.4 M-1.07 25.76 C7.53 19.11, 9 12.79, 22.07 -2.02 M1.07 23.34 C5.57 16.74, 11.93 9.66, 20.96 -0.27 M-0.78 31.39 C4.58 22.73, 11.36 19.77, 24.95 -0.78 M0.34 31 C5.1 23.21, 12.74 15.37, 26.77 -0.26 M1.17 36.24 C9.43 25.2, 22.14 11.72, 32.8 0.91 M-0.86 37.05 C6.21 28.76, 14.19 18.67, 32.84 -0.47 M2 41.8 C8.4 31.39, 20.41 17.96, 36.88 1.13 M0.55 41.55 C11.55 28.87, 25.2 13.22, 37.47 0.58 M-1.54 48.16 C10.19 39.83, 18.07 26.31, 40.67 1.16 M-0.6 49.73 C12.55 33.75, 27.29 17.96, 42.3 0.26 M-1.51 55.64 C11.18 41.93, 21.96 28.65, 45.72 -1.58 M0.34 54.19 C13.6 40.36, 25.67 25.52, 48.44 -0.56 M-0.89 61.7 C16.33 40.63, 31.75 22.84, 52.04 -0.73 M0 60.52 C19.12 39.06, 38.69 16.81, 53.19 0 M-1.85 66.47 C18.94 44.99, 37.5 25.31, 59.98 -0.03 M-0.97 67.63 C21.27 43.06, 40.26 19.88, 58.21 0.47 M-0.61 73.98 C21.13 48.11, 38.75 24.82, 62.58 -0.54 M-0.43 73.47 C24.61 44.73, 50.67 15.99, 64.21 -0.5 M1.72 81.23 C16.69 60.88, 32.3 41.49, 67.49 0.34 M0.73 78.98 C24.12 52.05, 47.07 24.95, 69.13 -0.5 M-1.14 83.82 C16.94 67.18, 32.39 48.29, 73.28 1.63 M0.6 84.26 C27.74 53.26, 54.34 22.27, 74.87 0.15 M1.26 92.84 C29.62 54.98, 59.01 23, 79.39 -0.23 M0.45 92.27 C22.01 66.46, 43.16 42.92, 79.41 0 M-0.23 96.48 C28.62 66.55, 56.18 35.72, 86.44 1.38 M-1.24 97.01 C20.4 73.25, 41.03 50.02, 85.55 0.01 M-1.16 105.14 C24.05 75.43, 50.81 43.78, 90.15 0.22 M0.69 103.43 C19.95 80.96, 40.75 56.49, 89.08 -0.89 M1.64 108.62 C31.51 70.13, 67.89 34.82, 97.67 -2.01 M-0.46 109.21 C29.04 75.42, 57.4 42.22, 95.47 -0.21 M1.81 113.66 C30.03 85.74, 54.05 54.87, 101.51 1.29 M0.79 115.05 C40.09 71.52, 78.86 26.42, 100.05 -0.38 M1.32 120.88 C33.4 81.72, 72.13 39.71, 107.88 -1.58 M0.29 122.29 C23.83 92.56, 48.92 64.94, 106.7 -1.14 M-1.82 126.37 C25.39 98.06, 52.45 67.13, 110.57 0.3 M0.28 129.13 C40.67 80.79, 81.34 33.24, 112.04 -0.02 M-0.36 134.82 C28.19 101.96, 53.51 69.3, 114.67 2.08 M0.87 134.55 C31.57 96.95, 62.4 61.22, 115.48 -0.01 M-0.74 140.67 C34.88 102.31, 72.75 58.43, 121.72 0.26 M-0.5 140.05 C31.76 103.36, 64.97 64.29, 122.64 0.27 M2.05 144.18 C32.14 111.57, 62.19 78.4, 126.88 1.81 M2.29 144.48 C51.08 87, 99.69 30.25, 126.87 0.37 M6.91 143.6 C46.68 101.04, 80.79 59.53, 130.65 1.83 M6.89 144.83 C36.95 110.31, 68.75 74.95, 133.26 0.27 M11.89 144.84 C41.89 109.79, 73.96 76.56, 136.73 0.4 M11.99 144.64 C60.49 89.45, 109.84 32.93, 136.81 0.07 M17.79 145.97 C57.66 99.14, 96.99 50.04, 144.39 -0.59 M17.23 143.19 C58.15 97.41, 97.61 51.43, 143.17 -0.61 M22.74 145.98 C49.11 110.27, 78.38 79.15, 146.38 -0.45 M22.15 144.9 C71.92 87.4, 119.97 32.75, 148.75 1.09 M25.9 146.29 C51.97 116.51, 76.66 84.95, 153.26 1.05 M28.15 145.55 C75.26 87.97, 123.3 33.29, 153.47 0.7 M32.66 143.93 C63.47 109.8, 97.39 73.02, 159.32 0.68 M34.02 144.19 C67.78 103.39, 102.68 64.24, 158.95 0.08 M39.78 144.68 C87.94 87.78, 135.31 33.17, 162.91 0.51 M39.37 144.91 C88.09 87.73, 137.08 30.02, 165.13 -1.07 M43.07 144.67 C76.49 105.21, 110.34 67.67, 168.36 0.88 M44.67 145.12 C85.21 98.09, 128.14 50.33, 168.54 0.35 M47.32 143.26 C81.76 106.96, 116.97 67.41, 174.3 1.21 M49.47 145.2 C93.52 92, 141.21 39.35, 174.94 0.45 M54.65 143.9 C90.64 101.58, 128.06 58.71, 179.59 0.92 M55.03 143.96 C100.15 90.61, 147.87 36.03, 179.5 -0.14 M58.39 143.05 C93.27 108.68, 122.97 72.8, 187.02 1.03 M60.55 144.27 C108.93 87.93, 157.27 30.89, 184.87 0.07 M63.43 142.99 C94.69 110.51, 125.88 72.52, 187.2 7.32 M65.85 144.61 C113.21 87.98, 161.71 33.78, 185.38 5.26 M72.15 144.77 C110.01 100.84, 144.99 57.39, 183.47 13.36 M69.55 144.61 C98.06 114.04, 124.55 84.8, 184.24 12.04 M76.74 145 C118.13 100.55, 157.18 53.7, 183.91 16.23 M75.75 144.64 C115.61 97.96, 155.42 51.75, 185.85 17.82 M81.09 144.82 C104.87 113.24, 134.96 83.13, 184.4 23.37 M80.25 145.36 C109.65 110.76, 140.64 76.89, 185.21 24.4 M85.21 142.68 C113.42 109.66, 142.69 80.58, 184.38 30.21 M87.19 143.28 C106.64 121.79, 126.55 97.71, 185.99 30.2 M91.02 143.3 C127.61 102.12, 165.68 61.08, 184 37.25 M91.27 144.33 C114.54 118.09, 138.19 91.14, 185.95 36.15 M98.8 142.47 C133.06 104.73, 166.02 66.66, 185.27 43.27 M96.45 143.42 C115.19 123.73, 133.19 102.47, 184.45 43.47 M101.03 143.99 C125.03 119.53, 146.24 91.25, 183.78 46.87 M102.09 143.99 C124.41 118.68, 145.75 91.25, 186.47 47.97 M106.78 144.49 C134.51 113.74, 162.06 82.9, 186.59 55.4 M107.67 143.59 C124.63 123.63, 142.35 104.91, 184.78 55.63 M111.56 146.35 C129 127.95, 141.31 110.13, 183.93 62.55 M113 145.44 C138.77 113.28, 164.42 84.78, 185.98 60.91 M117.73 142.55 C136.94 121.37, 156.67 100.73, 186.34 65.5 M118.85 143.99 C137.42 121.31, 156.47 101.01, 185.99 66.57 M124.34 145.55 C142.39 121.23, 162 98.14, 185.89 74.03 M123.18 144.47 C136.39 130.34, 148.91 115.73, 185.5 73.47 M127.53 144.15 C139.71 129.35, 153.56 116.69, 183.82 80.16 M129.81 144.47 C149.19 121.32, 171.23 97.79, 185.97 78.86 M134.41 144.42 C147.74 128.82, 162.98 111.27, 184.46 87 M134.62 143.51 C150.31 125.38, 168.36 104.43, 185.9 86.01 M138.75 143.24 C149.27 131.27, 160.5 117.85, 186.97 90.41 M139.56 145.3 C150.46 132.71, 161.95 119.59, 184.78 92.45 M146.14 145.49 C160.87 128.29, 175.2 109.13, 186.42 96.08 M144.16 143.63 C160.73 126.34, 177.3 106.5, 184.59 97.83 M151.19 145.17 C162.73 129.85, 177.38 112.18, 187.03 104.72 M148.93 144.13 C158.41 137.28, 164 127.55, 185.29 103.71 M157.2 142.99 C162.97 133.98, 170.92 128.63, 185.83 109.59 M155.48 144.59 C162.88 137.3, 170.64 128.74, 184.8 109.88 M162.05 143.27 C165.93 136.17, 175.33 126.66, 186.58 117.49 M160.63 144.54 C169.86 134.34, 178.09 123.52, 185.25 115.92 M166.58 142.81 C172.91 135.32, 179.68 129.77, 183.44 122.28 M165.13 144.78 C169.26 139.7, 173.7 136.01, 184.95 121.51 M172.45 143.77 C174.29 139.69, 180.6 133.58, 186.17 130.06 M171.86 144.99 C176.78 138.62, 181.25 133.03, 185.91 128.25 M177.9 143.16 C179.79 140.84, 182.09 138.44, 185.24 135.68 M176.54 144.92 C179.63 141.05, 181.42 137.95, 185.24 135.13 M182.02 145.25 C182.85 142.77, 184.13 141.98, 185.01 139.93 M181.65 144.95 C182.35 143.67, 183.71 142.75, 185.52 140.25" stroke="#40c057" stroke-width="0.5" fill="none"></path><path d="M0.48 -0.89 C46.97 1.28, 94.75 -1.32, 183.54 1.98 M0.43 -0.81 C37.43 -1, 75.07 0.05, 184.25 0.95 M186.52 -0.66 C186.74 50.63, 183.85 96.87, 185.17 141.58 M184.99 -0.88 C185.35 30, 185.39 62.4, 184.27 143.74 M185.93 143.67 C138.43 140.29, 89.7 143.62, -0.56 142.17 M184.96 142.89 C124.07 141.36, 64 142.88, -0.3 143.82 M0.16 144.99 C-0.09 92.41, -1.92 40.82, 0.76 1.98 M0.56 142.77 C0.64 111.49, 0.59 80.95, 0.5 0.09" stroke="#000000" stroke-width="1" fill="none"></path></g><g transform="translate(419.2118657493611 35.5) rotate(0 87.5 46)"><text x="87.5" y="18" font-family="Helvetica, Segoe UI Emoji" font-size="20px" fill="#000000" text-anchor="middle" style="white-space: pre;" direction="ltr">Html Page </text><text x="87.5" y="41" font-family="Helvetica, Segoe UI Emoji" font-size="20px" fill="#000000" text-anchor="middle" style="white-space: pre;" direction="ltr">Downloader(Parce </text><text x="87.5" y="64" font-family="Helvetica, Segoe UI Emoji" font-size="20px" fill="#000000" text-anchor="middle" style="white-space: pre;" direction="ltr">a page and get all </text><text x="87.5" y="87" font-family="Helvetica, Segoe UI Emoji" font-size="20px" fill="#000000" text-anchor="middle" style="white-space: pre;" direction="ltr">links)</text></g><g stroke-linecap="round" transform="translate(420.0517094993611 216.16015625) rotate(0 102.5 58)"><path d="M0 0 C0 0, 0 0, 0 0 M0 0 C0 0, 0 0, 0 0 M-0.42 5.78 C0.35 5.3, 2.59 2.95, 5.71 -0.02 M-0.12 6.55 C1.71 4.22, 3.58 1.62, 5.21 0 M-1.33 12.99 C2.48 6.27, 7.2 3.4, 10.03 0.08 M-0.21 12.43 C3.59 8.19, 5.64 5, 10.59 -0.39 M-1.43 17.73 C4.1 11.91, 11.78 5.16, 16.69 0.3 M-0.38 18.93 C4.05 13.88, 8.17 8.96, 15.28 -0.47 M1.49 23.79 C7.37 17.85, 11.97 12.21, 21.82 -1.51 M-0.45 24.32 C6.97 16.55, 13.91 8.43, 21.95 -0.45 M-1.5 28.94 C7.82 19.79, 19.98 8.89, 26.06 -0.85 M0.66 30.5 C9.72 19.65, 17.81 9.21, 25.3 1.21 M-1.18 36.43 C11.05 22.59, 25.78 7.71, 32.78 1.6 M-0.35 37.04 C8.19 26.65, 15.41 18.26, 31.16 -0.81 M-1.35 44.36 C7.78 34.07, 19.09 23.98, 37.83 0.91 M0.21 43.13 C8.4 33.48, 16.97 24.48, 36.67 0.88 M-1.72 50.84 C15.74 30.7, 30.93 13.56, 41.85 0.74 M0.5 49.4 C15.78 30.27, 32.31 11.28, 42.95 -0.13 M1.85 55.55 C12.29 43.5, 20.65 30.37, 48.22 -1.76 M1.15 54.17 C10.66 43.36, 20.32 31.59, 47.29 -0.43 M-0.8 60.69 C21 37.25, 39.87 14.63, 51.4 0.91 M-0.53 61.07 C15.08 41.59, 32.15 24.04, 53.88 0.7 M1.59 68.52 C16.17 50.1, 28.14 37.24, 58.8 -0.51 M-0.49 67.33 C12.75 52.05, 26.29 35.58, 57.92 0.95 M-1.14 74.57 C13.5 58.7, 27.62 40.52, 63.15 0.81 M-0.55 73.59 C15.91 53.58, 33.04 35.99, 64.38 0.44 M0.62 80.7 C19.35 57.85, 33.56 40.01, 68.42 0.69 M-0.85 79.74 C24.12 52.46, 46.32 26.94, 68.15 -0.63 M-0.1 84.75 C14.88 68.09, 32.06 52.38, 74.12 0.8 M0.14 85.18 C28.76 52.46, 55.63 19.84, 74.72 -0.5 M-0.93 89.45 C25.28 62, 53.41 27.45, 81.25 1.55 M-0.19 90.45 C28.01 58.73, 57.22 26.01, 78.41 -0.19 M1.56 95.97 C26.84 66.55, 53.37 36.23, 84.62 -1.06 M-0.55 97.47 C23.96 71.05, 45.59 43.72, 85.01 -0.05 M1 105.1 C25.56 75.13, 53.04 44.68, 90.77 1.48 M-0.28 103.4 C26.55 72.79, 53.38 41.16, 89.99 -0.08 M-1.6 110.37 C23.59 81.7, 50.75 49.56, 94.31 -1.01 M0.11 110.46 C37.33 68.47, 71.75 26.65, 95.19 -0.48 M1.82 115.64 C31.9 79.25, 66.55 43.81, 99.79 -0.43 M0.96 116.19 C31.12 77.7, 63.98 41.79, 101.01 0.01 M2.93 117.02 C44.38 70.51, 84.56 23.59, 106.13 -1.62 M2.32 118.07 C24.54 93.78, 45.86 68.52, 107.07 -0.41 M8.09 117.71 C46.53 73.73, 88.99 28.06, 112.42 -1.4 M7.33 119.03 C45.3 78.75, 79.53 37.76, 110.44 -0.96 M12.27 116.92 C51.43 75.51, 92.28 29.94, 117.7 0.99 M12.44 119.1 C52.58 75.57, 91.16 29.41, 115.63 -0.04 M20.6 116.71 C48.94 86.18, 76.53 54.52, 122.08 1.04 M19.34 118.87 C47.37 85.81, 76.89 52.01, 122.09 0.63 M23.7 117.85 C52.71 85.13, 86.63 50.08, 127.91 2.12 M24.52 118.1 C56.07 80.17, 87.49 42.69, 127.66 -0.18 M30.03 116.72 C61.73 82.28, 95.97 43.39, 131.5 1.05 M29.97 119.29 C68.69 73.02, 108.07 28.14, 132.61 -0.95 M35.73 118.2 C57.6 92.92, 83.12 65.92, 136.99 1.03 M35.34 119.23 C71.24 78.08, 107.2 36.08, 137.83 0.26 M41.04 116.5 C68.67 86.43, 99.35 53.68, 144.73 0.47 M40.68 118.53 C67.43 85.79, 94.7 54.13, 143.51 -0.76 M44.15 120.08 C69.11 92.95, 91.54 67.46, 149.15 1.9 M44.54 119.27 C71.18 86.84, 97.63 56.48, 147.33 -0.7 M49.57 116.48 C77.77 91.28, 102.21 60.9, 155.14 0.82 M50.76 118.47 C85.95 78.71, 120.49 39.41, 153.13 0.77 M54.06 117.25 C85.1 83.9, 116.9 45.19, 159.91 -1.39 M56.58 119.7 C84.86 82.94, 116.92 47.6, 159.15 0.6 M62.9 118.78 C93.49 75.31, 131.26 38.43, 165.39 -0.67 M61.35 118.64 C96.35 77.41, 130.54 38.63, 164.66 -0.11 M67.89 119.2 C98.57 80.78, 131.17 45.41, 168.09 -1.29 M66.76 118.64 C106.08 74.41, 144.64 29.27, 170.17 -0.51 M71.61 119.22 C95.59 92, 117.37 65.76, 175.47 0.91 M71.45 118.25 C94.78 92.1, 116.04 68.4, 174.13 -0.49 M77.37 119.07 C100.49 91.73, 125.26 63.76, 179.83 -0.54 M77.25 118.85 C106.09 85.19, 134.93 52.16, 179.08 0.93 M81.57 119.3 C104.63 93.37, 124.72 65.79, 186.68 -1.87 M81.87 118.14 C106.13 91.6, 129.6 65.61, 186.4 -0.84 M87.56 117.71 C113.27 83.75, 142.52 54.87, 192.59 -0.21 M87.05 117.77 C113.25 88.11, 138.02 59.7, 190.43 -0.42 M94.01 118.19 C127.4 80.9, 157.21 42.31, 197.62 -0.71 M93.29 118.83 C118.75 90.17, 143.55 61.06, 197.21 -0.92 M96.81 119.64 C136.84 72.39, 179.61 25.48, 203.14 0.34 M98 119.48 C139.71 71.95, 179.1 26.14, 200.62 -0.3 M105.43 116.78 C127.32 91.6, 148.59 66.35, 206.92 1.86 M104.21 118.47 C133.93 84.87, 162.82 52.14, 205.79 1.63 M108.79 117.09 C144.18 79.89, 175.94 38.95, 205.65 6.19 M108.78 118.73 C138.48 84.7, 166.4 51.32, 205.96 6.05 M115.01 118.39 C140.65 88.4, 171.65 54.33, 203.93 14.56 M114.36 119.65 C146.53 82.25, 177.12 47.48, 205.69 13.39 M120.5 117.96 C144.68 89.87, 172.36 60.55, 204.83 19.84 M118.93 118.91 C139.07 97.49, 155.87 76.1, 205.85 18.71 M123.2 117.74 C145.15 96.82, 160.05 76.02, 204.38 26.15 M125.23 118.32 C152.77 86.5, 182.25 52.25, 206.34 25.98 M130.23 117.85 C157.62 85.71, 185.34 58.19, 207.31 30.45 M130.82 118.09 C145.99 98.71, 164.48 79.2, 206.15 32.41 M135.8 117.54 C159.95 93.15, 179.01 64.62, 204.14 35.68 M134.23 118.39 C151.37 98.73, 167.51 79.92, 206.83 38.23 M141.58 120.03 C156 101.66, 169.46 83.37, 204.42 43.89 M141.67 118.96 C160.84 94.03, 182.44 70.65, 205.93 44.56 M146.58 117.4 C161.27 104.56, 175.12 88.7, 204.38 49.85 M145.23 118.64 C162.4 99.17, 179.95 78.87, 207.09 49.65 M151.49 119.47 C162.04 104.54, 173.91 92.15, 204.84 53.97 M151.54 118.91 C170.42 96.05, 189.59 76, 206.15 56.49 M156.61 118.65 C170.06 106.25, 183.25 89.8, 206.93 63.84 M155.98 119.51 C172.91 100.18, 188.84 81.36, 205.26 63.12 M162.18 118.82 C171.32 109.61, 180.81 98.14, 205.21 67.43 M161.34 117.95 C179.27 99.53, 197.04 78.6, 206.26 68.42 M166.29 120.27 C180.7 100.54, 196.56 83.51, 204.89 74.21 M168.05 119.1 C182.52 101.43, 198.58 82.46, 206.26 73.95 M173.21 116.44 C183.08 107.91, 189.12 99.8, 205.48 80.72 M172.82 118.76 C181.67 108.58, 189.02 100.17, 205.56 80.24 M179.32 118.95 C188.1 106.06, 197.6 98.26, 206.72 87.51 M176.86 119.19 C185.71 109.53, 191.64 102.05, 205.92 86.36 M181.44 118.35 C189.62 112.13, 193.09 108.2, 204.26 92.72 M182.56 118.68 C190.54 109.11, 198.08 100.82, 206.53 92.23 M186.72 117.07 C193.44 112.82, 199.26 110.42, 206.85 97.21 M187.68 119.17 C192.35 112.64, 198.41 108.2, 205.54 98.45 M193.13 118.26 C197.12 112.75, 202.23 108.89, 205.48 105.62 M194.01 117.77 C198.83 114.06, 202.96 107.71, 205.5 104.15 M198.89 118.67 C201.63 114.53, 205.17 112.51, 205.54 109.3 M199.33 118.35 C201.35 115.39, 203.7 112.64, 205.69 110.71" stroke="#40c057" stroke-width="0.5" fill="none"></path><path d="M-1.12 0.55 C71.69 1.95, 142.44 -0.77, 205.29 1.26 M0.58 -0.36 C78.01 -0.91, 155.48 -1.27, 204.17 -0.6 M203.02 0.75 C206.89 42.57, 206.04 89.65, 205.56 117.61 M204.23 0.02 C203.69 25.95, 203.07 51.91, 204.2 115.61 M205.28 117.46 C133 113.51, 62.28 116.18, 1.72 116.59 M205.29 115.79 C133.2 116.04, 60.79 117.04, 0.23 116.63 M1.01 115.78 C1.43 85.89, -0.66 55.61, 0.4 -1.21 M-0.71 115.68 C2.03 78.88, 0.82 43.47, -0.47 0.93" stroke="#000000" stroke-width="1" fill="none"></path></g><g transform="translate(425.0517094993611 239.66015625) rotate(0 97.5 34.5)"><text x="97.5" y="18" font-family="Helvetica, Segoe UI Emoji" font-size="20px" fill="#000000" text-anchor="middle" style="white-space: pre;" direction="ltr">Validatator(to avoid </text><text x="97.5" y="41" font-family="Helvetica, Segoe UI Emoji" font-size="20px" fill="#000000" text-anchor="middle" style="white-space: pre;" direction="ltr">processing of a link </text><text x="97.5" y="64" font-family="Helvetica, Segoe UI Emoji" font-size="20px" fill="#000000" text-anchor="middle" style="white-space: pre;" direction="ltr">twice(Cycle))</text></g><g stroke-linecap="round" transform="translate(594.2313969993611 368.9765625) rotate(0 86 75)"><path d="M0 0 C0 0, 0 0, 0 0 M0 0 C0 0, 0 0, 0 0 M-0.07 6.46 C2.06 4.17, 3.96 2.21, 4.68 0.75 M-0.57 6.16 C1.54 4.7, 3.29 2.2, 4.76 0.55 M0.16 12.72 C2.15 8.12, 4.73 4.67, 12.1 1.43 M-0.05 11.53 C3.38 8.79, 6.4 5.16, 11.31 -0.37 M0.19 19.17 C4.14 10.6, 12.03 4.11, 14.2 -0.89 M0.79 17.88 C5.49 13.75, 10.27 8.03, 15.94 -0.45 M1.49 24.99 C9.15 16.44, 18.08 4.95, 22.51 1.34 M1.23 24.08 C6.22 17.09, 12.69 10.2, 21.7 0.76 M0.97 30.5 C10.17 18.96, 20 7.67, 26.27 -1.07 M0.5 31.18 C10.34 18.66, 19.65 8.61, 25.26 -0.53 M-1.05 37.89 C12.56 22.58, 24.64 8.6, 30.58 1.56 M-0.39 36.94 C6.48 28.31, 13.85 20.11, 32.43 -0.15 M0.35 40.63 C7.01 33.12, 17.1 23.27, 38.63 -1 M0.72 43.52 C7.42 33.19, 16.82 24.42, 36.53 -0.41 M-0.18 48.52 C15.89 30.51, 29.92 12.74, 44.05 -2 M0.66 49.35 C16.9 30.87, 32.1 10.45, 43.03 -0.6 M1.45 53.34 C11.61 41.22, 26.1 27.2, 48.8 -0.81 M0.92 55.35 C8.64 42.82, 19.05 32.37, 47.77 0.59 M0.69 61.75 C10.49 46.81, 24.4 33.44, 51.58 -2.12 M-0.13 60.6 C14.35 45.51, 29.28 28.37, 53.67 0.64 M0.03 68.86 C21 41.56, 42.19 18.98, 57.62 1.05 M-1.25 66.55 C20.65 44.41, 38.92 22.82, 58.85 0.78 M-1.84 71.4 C16.9 53.26, 34.16 31.84, 63.15 0.11 M-0.79 72.9 C16.49 52.9, 33.53 33.76, 63.39 -0.51 M-0.86 80.83 C17.13 58.48, 32.62 39.89, 69.22 -0.16 M0.69 79.39 C21.82 55.24, 42.86 29.87, 69.46 0.14 M0.11 84.97 C25.56 56.41, 49.11 27.58, 74.08 -0.74 M0.52 84.09 C28.85 53.52, 55.35 21.87, 74.06 0.49 M1.17 92.85 C16.72 70.89, 31.94 52.04, 79.06 0.5 M0.08 91.03 C21.51 67.57, 43.22 42.05, 79.16 0.3 M1.1 96.39 C26.93 64.88, 57.09 32.49, 84.96 1.64 M-1.19 98.44 C27.9 64.46, 57.11 30.74, 84.4 -1.14 M-1.51 103.45 C28.4 69.43, 57.2 39.82, 89.91 1.64 M-0.25 102.59 C19.16 83, 37.36 61.26, 89.32 0.56 M0.94 111.04 C25.64 81.85, 49.45 55.06, 93.72 1.2 M-1.09 109.6 C28.76 78.56, 56.57 45.83, 95.98 0.46 M0.75 114.85 C25.54 88.75, 45.53 62.07, 99.83 -0.41 M-0.6 115.78 C22.52 89.26, 45.01 64.35, 101.19 -0.15 M0.82 122.22 C37.51 80.56, 73.29 36.75, 107.6 -0.41 M-0.47 121.16 C35.36 83.76, 69.47 44.18, 107.19 -0.19 M-1.69 129.7 C41.04 76.73, 84.45 29.06, 110.24 0.33 M-1.1 127.78 C27.68 97.49, 53.79 65.79, 111.84 0.79 M1.87 132.19 C22.66 105.91, 45.62 79.91, 114.49 -1.08 M-0.14 133.57 C31.17 98.56, 61.87 62.27, 116.64 0.86 M0.75 140.09 C28.59 107.6, 54.71 76.86, 121.82 -0.44 M-1.06 140.12 C35.28 100.85, 69.96 61.19, 122.2 -0.38 M0.55 144.89 C29.66 108.26, 60.33 73.72, 125.56 -1.29 M0.94 146.99 C43.69 97.27, 87.63 46.5, 127.72 -0.07 M2.25 150.59 C44.77 98.82, 90.68 46.06, 130.8 -1.22 M0.49 151.68 C30.2 119.37, 57.87 85.97, 132.97 0.24 M6.51 151.15 C34.07 118.94, 62.74 84.36, 139.14 0.42 M5.66 150.48 C52.79 99.6, 96.92 48.72, 136.8 0.27 M13.72 149.17 C56.11 98.92, 101 46.42, 143.83 0.59 M12.17 150.11 C60.91 91.69, 113.51 32.63, 142.95 0.26 M17.51 151.71 C57.98 101.95, 102.68 54.53, 148.25 0.46 M17.18 150.8 C44.14 118.5, 72.36 86.31, 147.49 0.95 M22.5 150.64 C49.66 119.09, 75.36 89.76, 152.52 -1.5 M23.01 150.52 C49.84 119.96, 76.27 90.73, 154.3 -0.96 M27.49 152.87 C58.72 114.69, 93.92 72.44, 158.25 -0.91 M27.77 150.53 C61.96 112.03, 95.45 73.88, 158.48 0.02 M33.57 151.69 C69.98 108.47, 107.41 61.3, 165.82 -1.69 M33.69 150.82 C75.95 102.02, 117.19 54.76, 163.7 -0.84 M37.99 149.83 C65.25 120.49, 93.22 91.19, 168.33 -0.29 M37.8 150.34 C83.45 96.82, 132.03 43.83, 169.27 -0.29 M42.14 152.54 C86.32 100.66, 132.56 47.45, 172.64 1.66 M43.84 151.39 C81.68 106.11, 118.91 64.13, 173.53 0.76 M50.04 150.04 C79.43 115.98, 108.12 86.18, 172.17 9.56 M49.37 150.55 C93.84 100.3, 139.14 48.24, 173.61 8.65 M56.27 152.57 C91.02 108.19, 129.61 64.86, 173.09 11.8 M53.78 151.16 C91.96 107.15, 129.25 65.52, 174.21 13.24 M60.02 152.17 C92.37 113.32, 127.14 75.53, 174.45 20.83 M58.74 151.43 C92.75 112.79, 124.58 76.12, 173.29 19.76 M65.46 151.3 C96.41 112.48, 128.47 77.65, 171.74 26.23 M64.85 149.8 C93.06 120.13, 118.71 87.91, 174.02 26.55 M71.57 151.83 C90.16 125.68, 113.67 101.5, 174.03 31.78 M69.83 150.61 C100.89 115.98, 131.59 79.79, 174.23 30.87 M75.87 152.57 C94.71 128.13, 113.03 105.74, 173.11 36.64 M74.52 152.36 C97.77 124.91, 120.83 98.24, 173.93 38.7 M79.62 150.45 C109.95 119.18, 135.38 86.09, 175.26 44.93 M80.42 151.49 C110.34 116.24, 143.02 80.36, 173.27 43.07 M84.92 149.65 C113.4 120.12, 141.18 87.16, 175.06 50.64 M85.07 152.29 C109.72 122.52, 132.58 94.8, 172.8 49.6 M90.46 151.17 C121.83 114.17, 154.58 80.3, 175.17 55.25 M92.15 151.1 C117.56 120.72, 142.51 91.39, 173.45 56.85 M97.37 149.77 C120.61 122.18, 146.59 94.38, 175.42 60.82 M95.65 151.96 C114.87 131.38, 132.53 109.4, 174 62.08 M101.65 150.79 C126.16 124.29, 149 96.93, 174.04 67.15 M102.52 150.13 C123.69 125.45, 145.81 101.35, 172.6 69.12 M107.96 151.08 C122.09 132.55, 141.9 113.14, 175.33 73.4 M106.92 151.65 C123.17 134.24, 137.53 116.45, 174.73 74.62 M114.09 151.81 C133.59 127.6, 154.08 102.61, 175.54 78.96 M112.85 150.94 C134.15 127.52, 154.18 103.54, 173.45 81.67 M116.74 151.42 C139.73 129.68, 157.79 106.31, 174.59 89.09 M118.37 150.3 C132.9 133.16, 148.53 115.89, 173.37 88.09 M123.98 150.41 C136.12 137.38, 145.65 123.58, 173.25 91.98 M122.3 151.53 C134.7 137.09, 146.94 124.47, 174.2 92.22 M129.07 152.32 C139.56 136.9, 153.53 122.81, 174.27 99.99 M128.36 151.48 C137.75 139.48, 149.45 128.14, 174.14 98.78 M134.84 152.48 C147.62 132.47, 164.84 116.41, 174.11 103.16 M133.9 151.57 C147.07 135.88, 161.28 119.76, 173.94 105.14 M139.61 151 C150.46 136.69, 163.85 123.7, 172.8 110.18 M138.07 151.44 C145.61 144.35, 153.96 135.74, 173.1 110.9 M145.5 149.57 C154.49 139.63, 167.63 124.61, 173.69 117.93 M144.51 150.39 C149.6 144.56, 155.69 137.32, 173.89 118.2 M148.36 152.38 C157.68 144.42, 161.13 135.18, 172.58 124.65 M149.53 151.07 C153.62 146.12, 159.58 139.08, 172.83 123.54 M154.11 150.93 C159.95 143.08, 166.54 133.59, 174.86 131.1 M154.82 150.95 C160.94 144.87, 166.2 137.13, 174.14 129.58 M160.62 153.02 C166.37 147.17, 171.59 141.04, 175.29 134.1 M159.61 151.94 C163.75 146.72, 168.82 141.8, 173.76 135.46 M165.97 151.2 C169.16 149.06, 171.64 144.93, 172.55 142.75 M165.54 150.23 C168.45 146.89, 171.89 144.47, 173.62 142.09 M170.81 150.72 C171.69 149.92, 172.39 149, 173.37 147.99 M170.62 150.92 C171.85 149.93, 172.68 148.61, 173.41 148.02" stroke="#fab005" stroke-width="0.5" fill="none"></path><path d="M-0.65 1.89 C34.82 0.7, 73.06 0.29, 173.86 -0.72 M-0.78 0 C40.12 -0.11, 79.43 0.12, 172.41 -0.97 M170.6 1.18 C173.79 29.78, 171.78 63.31, 170.59 149.24 M171.23 -0.93 C173.76 51.53, 172.8 103.66, 171.52 150.81 M172.77 149.56 C137.14 149.55, 99.97 151.74, -1.78 151.08 M172.59 149.11 C127.63 148.16, 85.05 148.05, 0.07 149.62 M0.97 151.87 C-2.28 98.96, -2.34 47.56, -0.9 0.74 M-0.35 149.44 C0.95 108.95, 0.62 67.19, -0.01 -0.43" stroke="#000000" stroke-width="1" fill="none"></path></g><g transform="translate(599.2313969993611 397.9765625) rotate(0 81 46)"><text x="81" y="18" font-family="Helvetica, Segoe UI Emoji" font-size="20px" fill="#000000" text-anchor="middle" style="white-space: pre;" direction="ltr">Cache(in-memory</text><text x="81" y="41" font-family="Helvetica, Segoe UI Emoji" font-size="20px" fill="#000000" text-anchor="middle" style="white-space: pre;" direction="ltr">storage to store </text><text x="81" y="64" font-family="Helvetica, Segoe UI Emoji" font-size="20px" fill="#000000" text-anchor="middle" style="white-space: pre;" direction="ltr">the processed </text><text x="81" y="87" font-family="Helvetica, Segoe UI Emoji" font-size="20px" fill="#000000" text-anchor="middle" style="white-space: pre;" direction="ltr">links)</text></g><g stroke-linecap="round"><g transform="translate(279.5666128928806 105.13536879117106) rotate(0 57.378718322750046 -3.0982863635672686)"><path d="M-0.57 0.97 C18.36 -0.12, 93.98 -4.35, 113.2 -5.49 M1.33 0.44 C20.65 -0.47, 96.52 -5.77, 115.33 -7.17" stroke="#000000" stroke-width="1" fill="none"></path></g><g transform="translate(279.5666128928806 105.13536879117106) rotate(0 57.378718322750046 -3.0982863635672686)"><path d="M89.56 3.22 C96.6 2.61, 103.35 -1.83, 116.13 -8.23 M88.48 4.6 C95.65 1.16, 102.97 -2.06, 114.43 -7.44" stroke="#000000" stroke-width="1" fill="none"></path></g><g transform="translate(279.5666128928806 105.13536879117106) rotate(0 57.378718322750046 -3.0982863635672686)"><path d="M88.1 -17.25 C95.72 -12.34, 102.86 -11.27, 116.13 -8.23 M87.02 -15.87 C94.69 -13.88, 102.4 -11.68, 114.43 -7.44" stroke="#000000" stroke-width="1" fill="none"></path></g></g><g stroke-linecap="round"><g transform="translate(517.1574225831309 157.7887650942592) rotate(0 4.344409752088268 26.983437082860178)"><path d="M0.44 -0.27 C1.67 8.87, 6.04 45.18, 7.28 54.29 M-0.78 -1.45 C0.81 7.87, 8.2 45.95, 9.47 55.42" stroke="#000000" stroke-width="1" fill="none"></path></g><g transform="translate(517.1574225831309 157.7887650942592) rotate(0 4.344409752088268 26.983437082860178)"><path d="M-4.71 29.56 C-1.62 37.58, 2.62 44.87, 10.73 54.21 M-4.8 31.76 C0.34 40.32, 5.49 48.56, 9.6 55.33" stroke="#000000" stroke-width="1" fill="none"></path></g><g transform="translate(517.1574225831309 157.7887650942592) rotate(0 4.344409752088268 26.983437082860178)"><path d="M14.08 26.4 C11.61 35.42, 10.31 43.64, 10.73 54.21 M13.99 28.6 C12.48 38.19, 10.99 47.56, 9.6 55.33" stroke="#000000" stroke-width="1" fill="none"></path></g></g><g stroke-linecap="round"><g transform="translate(493.64877343075295 339.7319244972723) rotate(0 46.34905069814886 33.50014391175546)"><path d="M-0.87 0.32 C14.7 11.31, 78.16 55.14, 93.56 66.24 M0.88 -0.55 C16.37 10.57, 77.7 56.06, 93.22 67.55" stroke="#000000" stroke-width="1" fill="none"></path></g><g transform="translate(493.64877343075295 339.7319244972723) rotate(0 46.34905069814886 33.50014391175546)"><path d="M64.99 60.92 C72.85 60.49, 83.13 64.76, 93.78 67.87 M64.95 59.49 C72.64 60.98, 81.34 63.75, 93.05 68.45" stroke="#000000" stroke-width="1" fill="none"></path></g><g transform="translate(493.64877343075295 339.7319244972723) rotate(0 46.34905069814886 33.50014391175546)"><path d="M77.21 44.44 C81.26 49.12, 87.68 58.6, 93.78 67.87 M77.17 43 C81.23 49.49, 86.2 57.3, 93.05 68.45" stroke="#000000" stroke-width="1" fill="none"></path></g></g><g stroke-linecap="round"><g transform="translate(413.3095219993611 286.7109375) rotate(0 -120.81235172179504 1.677068470241494)"><path d="M-1.12 -0.12 C-41.47 0.24, -201.3 2.66, -241.26 3.23 M0.49 -1.23 C-40.07 -0.18, -201.81 3.63, -242.12 4.58" stroke="#000000" stroke-width="1" fill="none"></path></g></g><g stroke-linecap="round"><g transform="translate(169.3134282493611 289.890625) rotate(0 0.02530226246881284 -74.55326430568007)"><path d="M-0.04 -0.2 C0.23 -24.59, 1.31 -122.43, 1.58 -147.22 M-1.53 -1.35 C-1.43 -25.99, 0.12 -124.45, 0.47 -148.91" stroke="#000000" stroke-width="1" fill="none"></path></g><g transform="translate(169.3134282493611 289.890625) rotate(0 0.02530226246881284 -74.55326430568007)"><path d="M9.98 -121.06 C9.01 -129.48, 3.22 -136.81, -1.42 -147.02 M9.96 -119.83 C6.99 -126.93, 5.7 -133.93, 1.18 -148.58" stroke="#000000" stroke-width="1" fill="none"></path></g><g transform="translate(169.3134282493611 289.890625) rotate(0 0.02530226246881284 -74.55326430568007)"><path d="M-10.54 -121.37 C-5.46 -129.69, -5.19 -136.93, -1.42 -147.02 M-10.56 -120.14 C-8.51 -127.02, -4.77 -133.95, 1.18 -148.58" stroke="#000000" stroke-width="1" fill="none"></path></g></g><g stroke-linecap="round" transform="translate(348.7040532493611 605.9453125) rotate(0 40.5 16.5)"><path d="M0 0 C0 0, 0 0, 0 0 M0 0 C0 0, 0 0, 0 0 M-0.45 6.59 C1.01 4.96, 2.81 3.29, 4.67 -0.35 M-0.61 6.48 C1.52 4.24, 4.08 1.43, 5.26 0.06 M0.89 10.75 C1.9 7.3, 7.17 2.93, 12.2 0.41 M0.17 12.42 C3.58 7.86, 8.06 2.55, 10.81 0.5 M-1.59 19.61 C4.03 13.72, 10.67 8.43, 15.67 1.03 M-0.78 17.48 C3.8 13.29, 7.59 9.54, 15.98 -0.49 M0.81 25.45 C4.28 16.25, 12.61 10.23, 20.35 -1.91 M0.04 24.06 C6.74 16.94, 10.87 10.65, 20.65 0.6 M-0.96 29.97 C5.77 22.32, 12.76 19, 26.87 -1.48 M-0.37 29.85 C8.43 21.23, 18.09 10.89, 26.31 -0.64 M2.76 33.49 C9.74 27.96, 16.12 20.13, 33.19 -1.12 M1.89 35.53 C12.48 22.43, 23.68 9.75, 30.96 -0.1 M7.04 34.86 C16.91 23, 29.46 8.43, 36.86 -1.65 M6.51 33.67 C16 22.93, 25.42 12.35, 37.36 0.6 M13.62 33.05 C25.52 22.17, 35.38 8.95, 43.36 -0.44 M12.46 35.16 C18.21 27.06, 27.14 17.66, 41.68 -0.43 M18.47 35.73 C24.57 27.59, 31.47 18.85, 48.02 1.52 M17.95 34.36 C25.57 25.62, 32.27 17.75, 47.71 0.32 M22.37 35.94 C30.11 23.11, 39.07 16.07, 52.38 0.47 M23.27 34.52 C33 21.98, 43.92 9.52, 53.55 -0.73 M26.68 33.69 C34.8 27.53, 44.23 15.13, 58.07 -1.27 M28.89 34.01 C38.86 22.69, 47.84 11.91, 57.79 -0.7 M34.45 33.1 C44.49 24.38, 52.51 12.47, 63.14 1.63 M32.87 34.22 C45.28 20.62, 57.39 7.59, 64.19 -0.65 M39.59 35.52 C47.77 24.56, 55.99 15.53, 68.01 -1.65 M38.36 35.32 C49.31 22.21, 60.47 11.52, 67.87 -0.05 M42.62 33.15 C53.77 24.04, 63.61 13.47, 75.8 -1.23 M43.63 34.56 C55.12 20.97, 66.62 8.96, 74.01 -1.2 M48.49 33.94 C57.64 26.4, 64.87 15.52, 78.19 -1.57 M48.26 33.9 C57.33 25.76, 64.95 18.07, 80.05 0.33 M54.98 34.42 C65.56 26.81, 70.72 16.8, 81.87 1.56 M55.81 33.49 C64.23 23.22, 71.62 13.87, 82.34 1.52 M58.59 36.61 C65.52 28.39, 73.47 20.18, 81.67 6.28 M60.01 35.29 C65.86 26.59, 73.52 18.89, 83.72 7.72 M66.9 32.88 C71.06 27.06, 75.1 22.32, 81.6 12.63 M65.47 34.61 C71.56 26.63, 79.49 19.37, 82.74 13.39 M72.35 34.86 C73.51 31.29, 79.09 26.79, 83.36 21.03 M69.88 35.62 C72.6 31.46, 75.95 27.87, 82.66 21.2 M76.66 34.3 C78.27 32.61, 79.47 30.73, 83.49 25.46 M76.35 34.81 C77.6 32.62, 79.49 29.49, 82.99 25.77" stroke="#40c057" stroke-width="0.5" fill="none"></path><path d="M1.01 -1.71 C17.63 -0.56, 36.66 -0.91, 79.4 -0.09 M-0.02 0.08 C29.85 -0.07, 60.75 -1.15, 80.34 0.27 M82.84 1.57 C80.67 13.39, 81.77 24.11, 81.85 34.56 M81.36 -0.62 C81.65 9.3, 81.66 18.92, 80.55 32.71 M82.73 31.19 C55.55 35.21, 31.42 32.11, 0.57 31.87 M81.39 33.7 C53.29 32.34, 22.93 32.58, -0.01 32.85 M0.64 32.9 C-1.25 28.03, -1.04 18.19, -1.72 1.16 M0.63 32.3 C-0.59 24.54, -0.39 16.52, 0.08 -0.53" stroke="#000000" stroke-width="1" fill="none"></path></g><g transform="translate(353.7040532493611 610.9453125) rotate(0 35.5 11.5)"><text x="35.5" y="18" font-family="Helvetica, Segoe UI Emoji" font-size="20px" fill="#000000" text-anchor="middle" style="white-space: pre;" direction="ltr">URL_1</text></g><g stroke-linecap="round" transform="translate(151.4149907493611 676.98828125) rotate(0 40.5 16.5)"><path d="M0 0 C0 0, 0 0, 0 0 M0 0 C0 0, 0 0, 0 0 M-0.3 5.72 C0.36 4.54, 1.7 3.13, 5.22 0.74 M-0.08 6.65 C1.13 4.67, 3.45 2.26, 5.33 0.53 M-0.91 12.24 C4.14 7.08, 6.91 6.57, 9.37 -1.39 M-0.41 12.23 C3.7 8.88, 6.07 5.88, 10.16 0.17 M-0.04 18.37 C6.08 12.4, 11.06 4.69, 16.15 0.73 M0.36 18.14 C5.48 12.06, 9.01 6.58, 16.43 -0.06 M-0.05 24.68 C7.06 14.6, 13.19 7.28, 19.77 0.74 M1.14 23.44 C4.89 17.71, 11.55 12.62, 20.48 -0.1 M-1.46 32.34 C4.05 24.89, 10.9 15.15, 27.75 -0.4 M-0.88 30.9 C4.84 25.02, 11.19 18.05, 25.68 -0.03 M-0.02 33.14 C12.66 20.68, 23.64 7.94, 31.27 0.71 M0.77 35.12 C9.77 25.9, 16.96 16.71, 32.26 -0.48 M7.57 33.76 C14.27 27.66, 18.55 21.79, 38.72 -1.54 M6.5 33.41 C14.87 24.61, 24.02 15.18, 37.41 0.95 M12.89 33.38 C19.82 25.01, 26.57 16.51, 44.06 -0.93 M12.2 34.21 C18.18 27.81, 25.06 20.41, 41.9 -0.74 M19.38 32.27 C22.67 28.26, 30.34 21.26, 48.73 1.52 M17.19 34.24 C27.45 24.5, 37.89 11.94, 48.33 -0.38 M24.93 36.44 C29.42 25.89, 38.54 12.98, 53.99 -1.63 M23.06 33.91 C31.56 24.98, 39.06 16.72, 53.76 -1.07 M29.61 35.23 C35.97 25.16, 41.99 18.47, 58.79 0.69 M27.74 35.61 C36.56 24.57, 45.88 13.31, 57.95 -0.62 M32.82 34.47 C40.69 25.31, 46.85 19.88, 64.18 -1.13 M32.99 35.49 C40.77 26.17, 48.21 18.97, 64.03 0.01 M38.46 33.61 C50.7 22.21, 58.38 12.12, 67.17 -0.45 M37.8 35.36 C50.32 22.05, 61.86 8.49, 68.66 0.29 M42.62 35.31 C53.3 24.14, 60.83 15.28, 73.09 -1.51 M44.5 34.88 C51.89 25.62, 58 17.84, 74.76 -0.36 M47.48 34.36 C55.32 25.29, 65.22 15.43, 77.49 1.4 M48.89 35.25 C56.29 26.46, 63.69 18.26, 79.68 1.06 M53.68 34.5 C61.25 27.73, 67.15 19.78, 84.53 3.13 M54.94 34.66 C61.72 26.4, 69.11 19, 83.89 2.87 M58.19 33.35 C68.06 27.14, 72.59 20, 84.12 8.75 M59 33.95 C67.81 25.62, 76.51 15.1, 82.5 8.6 M66.69 35.25 C70.69 28.16, 77.92 18.96, 85 13.65 M66.48 34.09 C70.84 29.16, 75.62 24.01, 82.57 13.69 M71.37 36.08 C73.61 31.09, 79.43 26.59, 83.24 21.91 M70.04 33.84 C75.06 29.57, 79.04 24.38, 82.04 20.66 M75.84 33.32 C78.54 33.31, 79.18 29.72, 83.39 26.71 M76.15 34.74 C79.32 30.72, 81.7 27.68, 83.1 26.25" stroke="#40c057" stroke-width="0.5" fill="none"></path><path d="M-0.17 0.09 C27.49 -1.28, 54.19 -0.12, 80.37 0.44 M-0.47 -0.73 C30.27 0.29, 59.75 1.2, 81.52 0.03 M80.14 -1.31 C78.95 10.88, 79.83 21.36, 81.86 33.74 M81.25 0.27 C81.6 6.4, 80.34 14.91, 80.72 32.54 M80.59 32.55 C64.13 35.26, 46 32.19, -0.91 31.78 M81.51 32.52 C51.03 33.71, 20.88 34.33, 0.96 33.31 M0.37 32.25 C-1.35 25.7, 1.35 20.8, 0.61 0.12 M0.09 33.52 C-0.31 26.91, 0.82 19.9, 0.54 0.65" stroke="#000000" stroke-width="1" fill="none"></path></g><g transform="translate(156.4149907493611 681.98828125) rotate(0 35.5 11.5)"><text x="35.5" y="18" font-family="Helvetica, Segoe UI Emoji" font-size="20px" fill="#000000" text-anchor="middle" style="white-space: pre;" direction="ltr">URL_2</text></g><g stroke-linecap="round" transform="translate(348.8954594993611 678.1953125) rotate(0 40.5 16.5)"><path d="M0 0 C0 0, 0 0, 0 0 M0 0 C0 0, 0 0, 0 0 M0.06 5.95 C0.78 4.79, 3.14 2.84, 4.5 -0.04 M-0.28 6.11 C1.96 4.34, 3.55 2.06, 4.63 0.65 M-0.42 10.63 C2.97 7.3, 4.16 6.48, 9.5 1.04 M-0.12 12.78 C4.07 7.73, 5.93 4.04, 10.4 -0.26 M0.69 17.55 C3.32 14.43, 5.17 11.2, 16.27 0.67 M-0.51 17.54 C4.79 13.78, 8.82 8.01, 16.07 0.68 M-1.53 23.67 C5.7 18.38, 8.78 10.24, 19.94 -0.15 M0.96 23.59 C7.83 16.48, 14.13 7.73, 21.35 -0.45 M-0.79 28.55 C6.34 21.75, 13.87 13.37, 25.35 0.75 M-0.6 29.64 C8.14 20.97, 18.01 9.81, 25.32 1.03 M3.01 35.03 C9.63 23.33, 16.23 15.64, 31.87 1.85 M1.11 34.4 C14.06 21.47, 26.77 7.89, 30.94 0.53 M5.9 33.29 C14.62 27.85, 22.07 16.48, 38.69 -0.68 M6.46 33.54 C18.37 22.26, 30.33 8.69, 37.37 -0.43 M12.84 34.75 C21.16 22.53, 30.02 15.06, 41 0.17 M11.54 33.88 C20 26.55, 25.63 19.03, 42.72 -0.79 M17.06 32.9 C26 22.87, 33.12 17.03, 47.6 -0.62 M18.21 34.5 C26.9 21.96, 37.66 10.55, 48.41 -0.46 M22.37 36.17 C29.55 26.35, 37.92 16.74, 53.02 0.99 M23.11 33.99 C31.63 25.15, 40.06 14.31, 53.95 -0.96 M26.69 33.83 C41.55 20.65, 52.2 9.03, 59.14 -0.74 M27.84 34.6 C35.35 27.08, 40.16 19.4, 57.27 0.08 M34.89 33.35 C42.8 24.09, 51.23 14.72, 63.31 -0.22 M34.54 33.96 C42.3 23.7, 50.19 14.61, 63.54 0.3 M39.73 33.81 C43.55 28.61, 52.15 19.47, 68.01 0.6 M39.47 34.75 C47.29 23.08, 55.89 12.71, 69.45 0.12 M45.35 35.7 C50.57 26.88, 57.78 15.03, 72.93 1.35 M45.2 34.87 C52.03 26.47, 59.45 18.34, 74.06 0.11 M48.84 34.14 C58.92 22.93, 71.09 11.36, 80.62 0.36 M48.88 34.93 C61.18 21.31, 71.89 10.03, 79.08 0.47 M56.42 35.91 C63.59 20.34, 74.8 8.31, 82.66 2.07 M55.11 33.64 C59.77 28.13, 66.26 20.27, 83.76 2.7 M61.02 36.68 C65.18 28.03, 73.55 20.76, 84.51 6.36 M60.18 35.26 C66.46 27.81, 71.72 19.91, 84.43 7.3 M66.43 34.01 C69.98 28.36, 75.47 23.85, 82.37 12.91 M64.94 35.03 C68.89 30.81, 73.12 25.27, 83.98 14.43 M69.02 36.51 C74.44 30.8, 77.79 23.96, 83.39 19.93 M71.08 34.66 C74.74 30, 79.69 25.36, 82.91 20.83 M76.84 33.8 C77.66 32.02, 79.79 29.44, 82.99 25.37 M76.08 33.98 C78.01 32.05, 79.08 30.35, 83.03 25.56" stroke="#40c057" stroke-width="0.5" fill="none"></path><path d="M0.12 -1.86 C28.63 0.85, 60.49 0.8, 79.88 1.47 M0.65 -0.51 C29.68 -0.48, 57.1 -0.26, 81.91 -0.57 M79.13 0.01 C82.58 13.84, 79.38 23.52, 81.64 31.35 M80.99 -0.95 C81.16 13.72, 80.85 25.01, 80.45 32.28 M81.96 33.68 C60.28 35.19, 36.83 34.52, -1.53 34.7 M81.42 32.85 C50.65 34.66, 20.94 33.81, 0.58 32.11 M-1.69 32.41 C-2.09 19.68, -1.66 10.71, 1.54 0.02 M0.26 33.65 C-0.66 22.33, -0.07 11.92, 0.18 0.28" stroke="#000000" stroke-width="1" fill="none"></path></g><g transform="translate(353.8954594993611 683.1953125) rotate(0 35.5 11.5)"><text x="35.5" y="18" font-family="Helvetica, Segoe UI Emoji" font-size="20px" fill="#000000" text-anchor="middle" style="white-space: pre;" direction="ltr">URL_3</text></g><g stroke-linecap="round" transform="translate(542.3134282493611 680.37109375) rotate(0 40.5 16.5)"><path d="M0 0 C0 0, 0 0, 0 0 M0 0 C0 0, 0 0, 0 0 M-0.44 6.29 C0.87 4.49, 2.72 3.51, 4.92 -0.13 M-0.15 6.68 C0.66 4.61, 2.6 3.42, 5.35 0.61 M-1.19 10.76 C4.03 7.62, 9.33 4.75, 9.53 1.28 M0.78 12.82 C3.43 8.37, 5.7 5.75, 9.84 0.3 M1.81 18.61 C2.27 16.15, 6.17 11.74, 15.75 1.54 M0.85 19.26 C3.47 15.13, 5.92 10.83, 15.61 0.65 M-1.27 23.65 C8.47 14.74, 14.2 6.9, 20.49 -0.44 M-0.03 23.69 C5.02 18.82, 9 13.13, 21.89 0.13 M-1.71 29.25 C8.82 22.93, 12.67 15.93, 27.38 0.79 M-0.68 30.41 C7.73 21.88, 16.14 11, 26.28 -0.51 M2.79 33.04 C10.55 25.36, 18.89 16.07, 32.39 -0.31 M2.63 33.81 C11.79 24.59, 20.07 13.76, 30.93 -0.76 M6.35 34.76 C15.33 26.95, 20.58 16.28, 37.48 0.97 M7.22 33.35 C15.74 23.28, 24.39 14.36, 36.53 -0.69 M12.09 33.91 C24.36 21.47, 34.52 9, 42.92 0.42 M11.53 33.99 C24.45 20.61, 36.82 6.43, 43.03 0.59 M19.76 34.34 C29.16 21.54, 39.71 10.27, 49.18 1.85 M17.03 33.36 C28.77 21.73, 40.94 7.4, 47.81 0.55 M24.31 32.85 C31.8 20.89, 45.83 8.87, 53.33 -2.12 M23.1 35.14 C35.23 20.26, 47.13 7.09, 52.36 0.73 M27.6 36.89 C35.93 26.43, 45.3 16.84, 58.89 -1.09 M27.09 35.38 C36.66 25.06, 44.36 16.83, 58.46 0.35 M31.61 33.58 C42.79 21.23, 56.23 6.68, 64.2 -2.11 M33.77 34.26 C42.72 24.2, 54.18 12.07, 62.88 -0.16 M39.52 34.96 C50.42 23.71, 58.62 9.61, 68.34 -0.7 M38.81 33.97 C48.11 24.22, 58.19 11.27, 69.61 0.46 M43.49 35.51 C54.76 21.57, 64.13 8.45, 75.44 -0.06 M44.81 34.98 C50.62 26.77, 59.22 18.09, 74.44 -0.21 M50.49 33.07 C55.15 27.65, 61.84 20.28, 80.6 1.86 M49.49 35.62 C60.79 22.17, 71.61 9.4, 79.26 -0.66 M54.73 33.72 C64.75 22.1, 74.37 9.67, 84.27 3.48 M54.36 33.62 C63.38 24.28, 70.68 15.2, 82.73 2.34 M59.48 36.64 C69.5 25.18, 79.89 11.81, 85.44 8.68 M58.93 35.71 C67.68 27.55, 74.86 19.38, 83.72 7.6 M65.46 34.99 C70.23 27.96, 78.62 21.58, 82.65 14.93 M65.38 35.14 C70.78 28.91, 74.22 23.11, 82.7 14.21 M68.83 32.9 C73.26 30.48, 75.94 28.68, 82.55 19.73 M70.75 35.26 C74.07 31.37, 76.06 27.05, 82.63 20.71 M76.65 34.06 C78.35 31.29, 79.63 30.64, 84.22 25.51 M75.88 34.8 C77.49 33.06, 79.57 30.7, 83.84 26.26" stroke="#40c057" stroke-width="0.5" fill="none"></path><path d="M1.26 0.98 C25.34 1.49, 50.57 -1.21, 79.96 1.63 M-0.79 -0.16 C21.5 -0.43, 41.58 -0.85, 80.53 -0.75 M80.74 1.74 C79.53 10.02, 79.81 24.33, 81.62 31.44 M81.68 -0.73 C81.69 8.89, 81.48 19.12, 80.28 33.75 M79.02 31.23 C60.33 31.63, 39.31 33.23, 0.17 31.86 M80.21 32.13 C58.56 33.42, 37.3 32.99, 0.15 32.69 M0.09 31.12 C1.15 22.4, 0.49 10.1, -0.29 0.75 M0.47 33.11 C0.07 24.79, 0.65 15.18, 0.98 0.92" stroke="#000000" stroke-width="1" fill="none"></path></g><g transform="translate(547.3134282493611 685.37109375) rotate(0 35.5 11.5)"><text x="35.5" y="18" font-family="Helvetica, Segoe UI Emoji" font-size="20px" fill="#000000" text-anchor="middle" style="white-space: pre;" direction="ltr">URL_4</text></g><g stroke-linecap="round" transform="translate(40.368115749361095 772.71484375) rotate(0 40.5 16.5)"><path d="M0 0 C0 0, 0 0, 0 0 M0 0 C0 0, 0 0, 0 0 M-0.23 5.66 C1.3 4.12, 2.66 2.71, 4.28 0.49 M0.02 6.33 C0.88 4.72, 2.91 3.42, 4.67 0.55 M-0.88 11.55 C2.91 7.62, 6.97 5.36, 10.94 0.32 M-0.13 11.7 C3.05 9.65, 4.96 6.71, 10.67 -0.33 M-1.24 16.52 C6.44 12.32, 9.85 7.03, 15.38 1.49 M0.27 19.05 C5.57 12, 10.29 6.53, 15.34 0.96 M-0.26 24.94 C5.97 20.67, 10.48 13.59, 21.41 0.47 M0.69 23.89 C7.94 14.16, 16.68 5.28, 20.8 -0.13 M-1.26 29.27 C8.21 24.09, 13.79 13.22, 27 -0.71 M-0.92 30.34 C5.38 24.39, 12.39 17.28, 25.81 0.11 M3.08 32.94 C15.47 21.9, 25.3 7.61, 31.31 -1.95 M2.64 35.39 C13.48 20.75, 25.22 6.28, 31.91 -0.12 M9.03 34.35 C16.71 23.93, 26.3 11.13, 36.54 0.03 M6.59 33.73 C17.71 21.75, 28.99 9.46, 37.65 -0.61 M10.97 36.56 C18.12 26.88, 23.58 20.5, 44.35 0.43 M11.7 34.06 C22.44 22.58, 33.15 9.65, 43.24 0.35 M17.05 35.81 C27.54 24.13, 32.56 15.88, 45.74 -0.66 M18.21 34.34 C30.25 21.38, 41.03 8.91, 46.75 -0.4 M23.74 34.23 C32.15 22.85, 39.28 16.08, 53.43 -1.44 M22.71 35.13 C33.34 23.77, 42.57 11.33, 52.83 0.63 M27.55 33.4 C40.62 23.28, 52.15 8.34, 59.71 -1.47 M28.19 33.93 C35.06 25.41, 44.79 17.53, 58.85 1.18 M34.21 35.52 C43.23 22.07, 54.23 11.18, 64.81 -0.88 M33.51 34.93 C45.37 22.12, 54.75 9.13, 63.6 0.76 M39.81 36.52 C45.98 29.64, 50.93 22.82, 66.82 0.59 M38.87 34.9 C47.34 23.01, 57.33 13.65, 69.52 0.25 M42.53 35.68 C53.18 27.21, 58.99 16.11, 74.02 0.43 M43.82 35.43 C51.1 26.04, 58.27 16.6, 75.3 -0.59 M48.48 36.51 C59.36 22.73, 70.7 9.16, 78.78 -1.78 M49.47 34.56 C58.17 24.69, 67.2 15.59, 80.18 0.54 M56.14 35.63 C62.6 26.14, 67.05 20.09, 83.96 2.79 M55.18 34.26 C63.53 22.15, 73.53 11.69, 82.55 2.19 M58.18 35.65 C69.53 25.87, 77.26 15.92, 84.05 9.33 M60.71 34.11 C65.41 29.13, 71.03 21.63, 83.53 7.03 M65.83 34.02 C68.64 30.79, 75.31 23.2, 82.23 15.48 M64.98 34.72 C69.7 30.86, 72.94 25.83, 82.23 14.63 M70.79 35.86 C73.98 28.77, 80.98 26.07, 82.92 19.77 M70.17 35.39 C73.26 32.56, 75.16 29.62, 82.68 20.53 M76.97 34.79 C78.86 31.54, 79.46 31.06, 84.18 26.07 M76.3 34.03 C78.77 31.67, 80.55 29.73, 83.24 25.8" stroke="#40c057" stroke-width="0.5" fill="none"></path><path d="M-0.93 -1.63 C27.09 0.3, 52.75 -1.01, 82.82 -0.27 M-0.11 0.01 C16.91 -0.25, 35.16 0.12, 81 -0.13 M80.99 -0.28 C81.53 9.36, 83.02 16.51, 81.28 31.38 M81.51 -0.75 C81.52 8.68, 81.58 15.38, 80.17 33.89 M81.45 33.1 C57.76 34.32, 32.94 32.45, -0.45 31.1 M80.97 32.54 C63.72 33.88, 46.38 34.16, -0.61 33.67 M1.59 31.85 C0.46 23.95, 2.22 19.57, 1.01 0.26 M0.35 33.25 C-0.93 22.03, -0.33 8.91, -0.19 -0.18" stroke="#000000" stroke-width="1" fill="none"></path></g><g transform="translate(45.368115749361095 777.71484375) rotate(0 35.5 11.5)"><text x="35.5" y="18" font-family="Helvetica, Segoe UI Emoji" font-size="20px" fill="#000000" text-anchor="middle" style="white-space: pre;" direction="ltr">URL_5</text></g><g stroke-linecap="round" transform="translate(154.1610844993611 770.671875) rotate(0 40.5 16.5)"><path d="M0 0 C0 0, 0 0, 0 0 M0 0 C0 0, 0 0, 0 0 M-0.27 6.54 C0.58 4.33, 2.68 4.41, 5.64 1.1 M-0.19 6.03 C1.72 4.11, 3.81 1.62, 4.99 0.69 M-0.41 11.47 C3.11 8.11, 7.78 5.4, 10.46 -1.26 M-0.07 12.51 C3.45 8.29, 4.68 5.72, 10.52 -0.58 M-1.17 18.33 C8.02 11.83, 13.51 5.07, 16.19 -0.96 M-0.37 18.02 C4.56 14.38, 7.46 9.58, 14.94 -0.14 M-1.13 24.04 C6.32 14.09, 17.66 4.71, 23.19 0.38 M0.78 24.8 C5.91 15.77, 13.1 9.75, 22.04 0.31 M-0.36 31.81 C7.6 20.85, 15.37 14.9, 25.87 -0.24 M-0.06 30.1 C8.91 20.29, 19.63 9.13, 25.44 0.09 M2.02 35.48 C9.93 24.84, 14.36 17.87, 30.25 0.35 M2.69 35.07 C8.85 28.79, 14.82 19.85, 31.39 0.2 M6.15 35.5 C18.98 21.66, 29.51 8.75, 35.82 0.08 M6.45 33.71 C17.08 23.58, 26.38 11.6, 36.95 0.87 M12.7 36.58 C21.67 21.46, 35.41 6.49, 43.9 0.42 M12.02 35.24 C22.54 24.4, 30.3 13.72, 42.66 -0.99 M18.48 32.25 C27.91 22.48, 37.83 10.83, 47.53 -0.6 M17.46 33.32 C30.66 20.39, 42.03 7.8, 46.74 -0.15 M22.98 33.54 C34.02 19.31, 46.07 6.25, 51.81 0.33 M23.01 35.4 C32.01 25.58, 38.58 15.7, 53.79 0.47 M28.11 34.58 C39.4 23.41, 50.35 11.34, 59.8 0.82 M27.12 35.06 C36.3 25.52, 45.64 15.23, 58.94 -0.65 M35.38 33.72 C44.21 24.29, 52.48 9.14, 64.91 1.52 M33.91 33.74 C40.63 25.73, 47.19 18.69, 64.58 -0.04 M39.03 34.68 C46.34 26.29, 53.89 14.1, 68.74 -0.88 M38.65 34.67 C47.46 23.77, 59.03 11.13, 68.52 0.32 M45.77 36.14 C55.19 21.51, 64.03 8.87, 73.47 -0.88 M43.8 35.08 C54.92 21.68, 65.83 9.81, 74.68 0.53 M48.63 36.66 C60.65 23.28, 69.57 12.54, 79.77 0.77 M49.16 35.83 C55.93 26.14, 63.07 19.05, 79.29 0.38 M55.34 35.52 C62.79 25.08, 73.87 14.37, 81.12 0.19 M54.62 34.93 C64.59 22.77, 73.56 12.92, 83.59 1.13 M58.22 33.6 C66.76 29.89, 71.71 21.36, 85.06 7.47 M60.27 35.12 C67.08 28.12, 72.29 20.64, 83.34 7.34 M66.55 34.27 C69.6 29.93, 76.54 24.04, 82.17 14.78 M65.16 33.42 C69.5 28.85, 74.29 23.74, 84.09 13.66 M72.34 36.17 C74.89 28.66, 79.02 24.59, 82.65 18.88 M71.38 34.75 C73.83 32.21, 75.52 27.49, 82.18 19.91 M75.62 34.43 C78.38 30.91, 79.93 29.9, 82.25 25.63 M76.62 33.82 C77.93 32.05, 80.48 29.36, 83.64 26.21" stroke="#40c057" stroke-width="0.5" fill="none"></path><path d="M0.49 -1.6 C15.06 1.1, 33.14 -1.14, 82.38 1.42 M0.58 0.94 C22.12 0.42, 45.88 0.63, 81.52 -0.64 M81.66 0.92 C81.32 9.32, 79.13 17.02, 82.92 32.34 M81.47 -0.2 C81.33 8.12, 81.79 16.99, 80.58 32.44 M79.91 34.26 C64.23 34.23, 48.95 31.48, 1.56 33.79 M80.23 33.92 C51.5 33.66, 21.68 32.78, 0.24 32.74 M1.27 32.78 C-0.05 22.23, 1.37 11.5, -0.07 0.84 M0.65 32.48 C-0.41 23.66, -0.32 14.16, -0.31 -0.63" stroke="#000000" stroke-width="1" fill="none"></path></g><g transform="translate(159.1610844993611 775.671875) rotate(0 35.5 11.5)"><text x="35.5" y="18" font-family="Helvetica, Segoe UI Emoji" font-size="20px" fill="#000000" text-anchor="middle" style="white-space: pre;" direction="ltr">URL_4</text></g><g stroke-linecap="round" transform="translate(269.6181157493611 768.5546875) rotate(0 40.5 16.5)"><path d="M0 0 C0 0, 0 0, 0 0 M0 0 C0 0, 0 0, 0 0 M-0.99 6 C1.87 4.53, 2.99 1.8, 4.5 0.87 M-0.6 6.19 C1.57 4.41, 3.68 2.11, 4.63 0.16 M1.12 12.16 C3.96 10.05, 7.16 6.76, 10.92 1.56 M-0.37 12.59 C2.46 9.61, 3.65 6.49, 10.37 0.5 M-0.27 18.71 C4.05 12.95, 13.47 5.92, 16.11 -1.61 M0.49 18.45 C3.81 14.4, 8.33 8.43, 15.1 -0.54 M1.28 22.55 C7.79 16.23, 16.19 5.26, 21.26 -1.07 M-0.55 23.41 C6.4 17.32, 11.63 10.91, 21.3 0.79 M-0.04 31.75 C11.08 20.49, 21.42 6.69, 26.39 -0.03 M0.62 31.31 C9.23 19.78, 16.96 8.85, 25.41 0.44 M1.14 36.22 C7.46 26.76, 18.44 17.49, 33.67 -0.9 M0.93 35.18 C12.21 22.72, 21.29 12.58, 32.19 -0.87 M8.11 35.82 C16.95 23.51, 24.17 15.44, 37.32 0.06 M6.85 34.2 C14.01 26.28, 22.42 18.06, 36.94 0.06 M11.29 34.08 C18.59 28.51, 23.27 19.4, 44.06 1.53 M11.88 34.11 C21.16 25.16, 30.72 14.78, 42.08 0.47 M19.85 34.72 C27.53 25.82, 35.74 14.6, 46.92 2.05 M18.48 34.37 C29.42 20.75, 41 8.41, 47.45 1.22 M24.3 34.32 C32.15 25.07, 40.53 14.51, 53.62 0.91 M22.99 33.57 C29.83 25.56, 39.46 16.96, 52.91 0.32 M28.18 35.94 C37.66 20.61, 48.76 10.43, 56.5 -1.01 M27.64 35.7 C38.43 21.97, 48.95 9.05, 58.56 0.5 M33.25 34.25 C44.9 20.18, 56.81 8.64, 64.84 -0.35 M34.01 33.99 C41.69 24.61, 49.44 15.39, 63.45 -1.19 M36.64 36.65 C46.53 26.06, 55.88 16.66, 70.73 1.63 M38.53 34.72 C47.15 23.6, 56.47 13.39, 69.72 0.13 M42.54 32.87 C53.28 22.53, 64.89 10.56, 73.5 -0.14 M44.5 33.49 C53.73 23.4, 64.08 12.93, 75.32 -1.24 M48.12 35.92 C57.65 26.59, 66.21 14.36, 77.54 -1.59 M48.26 34.85 C61.61 21.5, 71.55 8.8, 80.21 -0.01 M55.87 34.87 C58.98 29.93, 64.96 22.76, 82.75 1.57 M53.89 33.81 C59.98 28.09, 65.34 21.12, 83.04 1.89 M59.49 35.8 C70.11 22.93, 77.35 13.44, 81.65 7 M59.41 35.44 C65.24 28.42, 70.61 21.12, 82.63 7.16 M64.25 34.62 C73.31 25.79, 78.73 20.57, 84.45 13.8 M65.45 34.38 C70.54 28.25, 75.62 24.22, 83.35 13.87 M68.99 34.03 C73.69 31.84, 76.56 25.96, 83.57 20.91 M71.38 34.48 C74.8 29.99, 80.29 24.34, 83.88 20.57 M77.17 35.36 C77.26 33.23, 78.27 30.35, 83.08 27.07 M76.21 34.31 C78.04 32.12, 79.6 30.92, 83.11 25.84" stroke="#40c057" stroke-width="0.5" fill="none"></path><path d="M-1.09 0.04 C26.17 -0.1, 48.44 0.66, 80.32 -0.71 M0.51 -0.11 C22.15 -1.09, 45.32 -0.41, 80.75 0.58 M80.41 -0.26 C79.34 14.44, 80.3 24.19, 79.96 32.9 M81.52 0.29 C80.45 12.39, 80.76 26.12, 80.76 32.58 M81.36 31.65 C49.96 34.4, 22.37 31.75, -1.4 32.95 M80.47 33.97 C64.07 33.79, 47.6 33.97, 0.52 33.72 M1.92 34.57 C0.97 25.28, 1.22 16.5, -0.36 1.33 M0.68 32.81 C-0.06 23.22, 0.87 12.88, -0.07 -0.38" stroke="#000000" stroke-width="1" fill="none"></path></g><g transform="translate(274.6181157493611 773.5546875) rotate(0 35.5 11.5)"><text x="35.5" y="18" font-family="Helvetica, Segoe UI Emoji" font-size="20px" fill="#000000" text-anchor="middle" style="white-space: pre;" direction="ltr">URL_6</text></g><g stroke-linecap="round" transform="translate(454.3720219993611 761.32421875) rotate(0 40.5 16.5)"><path d="M0 0 C0 0, 0 0, 0 0 M0 0 C0 0, 0 0, 0 0 M0.36 6.31 C1.81 4.8, 3.98 1.74, 5.48 0.34 M-0.12 6.22 C1.55 4.27, 3.15 2.39, 4.67 0.04 M-0.88 11.24 C3.49 8.86, 5.63 8.24, 11.97 -0.69 M0.27 12.33 C2.11 9.07, 5.07 5.88, 10.34 -0.53 M-0.1 19.41 C6.07 12.91, 10.25 3.92, 16.93 -1.63 M-0.4 19.33 C6.75 11.88, 12.66 3.61, 16.51 0.24 M-1.25 22.75 C5.72 15.35, 14.77 6.57, 19.89 0.65 M-0.56 23.63 C5.66 17.59, 11.58 10.81, 20.96 0.75 M1.63 30.25 C5.22 23.15, 12.31 16.86, 26.73 -1.45 M-0.53 30.32 C6.34 21.89, 13.43 13.74, 25.87 0.44 M0.03 36.39 C12.14 24.28, 20.12 13.64, 32.83 -0.43 M1.63 34.48 C10.72 24.9, 18.78 15.06, 32.54 -0.65 M9.04 33.4 C17.15 23.78, 25.7 9.71, 37.05 -0.72 M7.11 33.9 C15.55 24.54, 23.06 15.96, 37.64 -0.53 M12.27 33.09 C23.51 23.47, 35.19 9.18, 41.89 -1.52 M12.02 35.36 C20.61 25.23, 28.41 16.69, 41.97 0.14 M17.22 35.73 C25.89 27.48, 31.08 20.7, 47.03 0.29 M17.42 33.7 C24.33 27.04, 30.78 20.14, 46.85 -0.5 M21.64 34.9 C34.64 21.32, 43.1 9.9, 53.55 -0.72 M22.33 35.09 C32.15 24.14, 42.14 13.44, 52.86 -0.06 M28.96 35.4 C37.46 22.95, 51.78 7.46, 57.48 -1.37 M27.94 35.19 C39.49 22.7, 49.4 10.12, 58.21 -0.47 M33.22 34.6 C41.59 26.07, 49.23 15.48, 61.96 -0.82 M33.14 34.81 C44.67 21.29, 55.32 8.91, 63.49 -0.57 M39.97 35.86 C46.35 25.27, 53.55 20.82, 66.89 0.65 M38.14 35.67 C49.06 23.13, 60.19 9.74, 68.06 -0.62 M45.74 34.32 C54.11 21.77, 62.65 14.2, 72.97 -1.31 M44.66 34.49 C53.09 24.27, 60.36 15.62, 74.79 -0.89 M47.69 34.13 C55.48 26.32, 62.03 20.52, 79.44 2.04 M50.18 34.53 C61.61 21.67, 71.94 8.88, 78.42 -0.23 M55.66 33.47 C65.72 23.2, 71.46 11.43, 82.14 3.9 M54.79 34.94 C64.61 22.54, 74.91 11, 82.37 1.62 M57.89 33.78 C67.72 27.35, 73.54 19.27, 82.46 7.32 M59.51 34.26 C66.97 27.32, 73.32 20.67, 84.38 7.75 M65.09 32.8 C68.27 27.55, 73.37 23.49, 84.12 13.5 M65.06 33.81 C70.4 29.93, 73.72 24.91, 83.93 14.7 M71.98 33.77 C73.98 32.51, 78.78 26.84, 81.55 20.52 M70.25 35.16 C75.71 29.86, 79 25, 83.23 19.5 M77.07 34.35 C77.58 31.1, 80.96 28.47, 83.9 25.01 M76.43 33.95 C77.44 32.89, 79.56 30.3, 83.08 26.35" stroke="#40c057" stroke-width="0.5" fill="none"></path><path d="M0.39 -1.38 C31.57 1.29, 64.74 -1.49, 79.42 -1 M-0.07 -0.02 C32.77 -1.22, 63.52 -0.47, 81.98 0.1 M80.02 -1.32 C80.08 11.91, 82.94 24.32, 82.05 31.98 M80.26 -0.1 C80.79 12.62, 81.57 25.1, 80.62 32.35 M82.15 32.87 C57.33 34.67, 32.63 32.75, -0.87 31.63 M81.67 32.91 C51.14 33.86, 20.75 32.93, -0.41 32.4 M-1.46 33.48 C1.6 20.56, -0.09 11.36, 0.5 -1.14 M-0.18 33.42 C0.78 23.78, -0.86 15.7, 0.79 -0.44" stroke="#000000" stroke-width="1" fill="none"></path></g><g transform="translate(459.3720219993611 766.32421875) rotate(0 35.5 11.5)"><text x="35.5" y="18" font-family="Helvetica, Segoe UI Emoji" font-size="20px" fill="#000000" text-anchor="middle" style="white-space: pre;" direction="ltr">URL_7</text></g><g stroke-linecap="round" transform="translate(643.2196782493611 757.3671875) rotate(0 40.5 16.5)"><path d="M0 0 C0 0, 0 0, 0 0 M0 0 C0 0, 0 0, 0 0 M-0.94 6.03 C0.98 4.82, 2.76 3.59, 5.54 -0.31 M-0.13 6.39 C1.92 3.98, 3.67 1.89, 4.84 0.33 M1.13 11.18 C4.08 7.73, 6.57 4.59, 11.55 1.31 M-0.43 11.34 C2.93 8.47, 5.22 5.56, 10.87 -0.23 M1.07 16.69 C5.5 12.16, 9.3 10.15, 14.76 0.25 M0.7 17.99 C3.05 13.57, 6.61 9.58, 15.09 0.01 M-0.51 25.37 C7.11 15.55, 14.57 6.29, 20.01 -0.83 M0.3 24.78 C7.78 14.94, 14.98 5.38, 20.55 -0.64 M1.16 29.76 C5.23 21.57, 14.54 17.38, 26.57 -1.04 M-0.93 31.03 C8.42 20.66, 16.69 11.84, 26.15 -0.35 M2.53 35.9 C11.88 22.39, 24.58 8.08, 32.17 0.9 M2.28 33.79 C11.53 22.41, 22.27 11.71, 32.74 -0.12 M6.46 35.35 C17 21.56, 26.31 11.3, 35.12 -0.13 M6.46 34.55 C15.57 23.38, 26.15 13.46, 37.43 -0.21 M11.45 34.8 C21.73 22.46, 30.89 12.86, 42.72 1.24 M12.97 35.57 C21.77 22.93, 33.78 11.36, 42.26 -0.58 M19.25 32.65 C27.74 19.62, 40.68 10.11, 49.06 1.73 M17.84 35.11 C25.78 23.95, 34.88 13.84, 48.39 0.65 M21.45 35.65 C32.74 22.88, 39.43 12.91, 51.47 -1.71 M22.76 34.79 C31.05 26.5, 39.89 17.08, 52.75 0.79 M27.17 36.53 C33.8 24.79, 44.46 16.35, 56.34 0.99 M27.02 33.91 C34.8 27.25, 43.51 17.17, 58.31 0.12 M32.25 35.12 C43 21.62, 55.22 10.4, 63.53 -2.16 M33.07 35.23 C40.53 25.55, 48.18 16.31, 64.67 -0.55 M40.38 35.5 C47.58 26.62, 52.48 19.57, 68.22 -0.25 M37.91 34.8 C45.98 27.21, 51.63 19.27, 68.34 -0.28 M42.84 35.59 C52.8 27.31, 57.92 19.13, 73.32 1.34 M45.18 34.27 C50.92 25.68, 59.7 16.83, 75.34 -0.48 M48.39 36.04 C59.84 20.93, 70.21 12.23, 79.29 1.84 M49.29 34.5 C59.01 23.65, 66.74 13.92, 79.46 0.67 M55.58 33.12 C60.42 28.04, 69.41 18.05, 82.61 0.21 M54.18 35.01 C65.08 22.07, 74.93 10.03, 82.94 2.04 M58.69 35.56 C68.93 23.96, 75.48 15.75, 84.88 8.29 M59.44 35.67 C65.67 27.74, 71.43 21.01, 83.94 7.36 M64.09 33.46 C68.42 27.82, 75.14 24.29, 81.89 14.85 M65.03 34.17 C69.82 28.59, 75.43 23, 83.9 13.98 M72 35.13 C73.13 29.61, 77.39 24.54, 84.09 20.06 M69.53 35.58 C73.68 30.54, 78.25 26.07, 82.44 20.04 M76.79 35.3 C78.42 32.08, 79.42 29.2, 82.62 27.12 M76.35 34.23 C78.45 32.19, 79.97 30.14, 82.94 25.83" stroke="#40c057" stroke-width="0.5" fill="none"></path><path d="M-0.12 1.79 C22.45 -0.62, 46.3 1.27, 79.66 1.55 M0.14 0.17 C24 -0.82, 47.25 -1.25, 80.51 0.35 M79.61 0.86 C79.35 6.85, 79.33 15.93, 80.34 31.73 M81.53 0.9 C82.05 7.84, 80.44 15.71, 81.61 33.17 M81.37 31.26 C53.03 31.55, 27.68 31.01, -1.7 33.03 M80.47 32.16 C53.43 32.36, 25.47 33.38, -0.92 32.73 M0.88 31.47 C1.56 19.99, 0.24 5.65, 1.02 -1.52 M0.36 32.11 C-0.43 25.66, -0.18 17.72, 0.67 -0.83" stroke="#000000" stroke-width="1" fill="none"></path></g><g transform="translate(648.2196782493611 762.3671875) rotate(0 35.5 11.5)"><text x="35.5" y="18" font-family="Helvetica, Segoe UI Emoji" font-size="20px" fill="#000000" text-anchor="middle" style="white-space: pre;" direction="ltr">URL_8</text></g><g stroke-linecap="round" transform="translate(559.5360844993611 828.61328125) rotate(0 40.5 16.5)"><path d="M0 0 C0 0, 0 0, 0 0 M0 0 C0 0, 0 0, 0 0 M-0.77 6.84 C1.26 4.87, 3.33 3.13, 4.76 0.45 M-0.06 6.5 C1.34 4.34, 3.91 1.58, 4.86 0.05 M0.1 12.5 C4.83 8.55, 7.03 4.13, 10.74 -1.09 M-0.02 12.08 C2.87 9.17, 5.48 5.46, 9.9 -0.28 M-1.06 19.05 C5.67 11.13, 10.54 5.25, 15.04 -0.41 M0.56 18.93 C3.9 13.46, 7.65 11.07, 14.68 0.58 M-0.62 25.68 C7.73 16.44, 16.12 5.6, 19.84 -1.61 M1.02 24 C7 15.54, 13.13 9.62, 20.54 -0.6 M0.86 30.52 C8.03 21.18, 13.17 14.71, 27 -1 M-0.76 30.13 C5.6 23.53, 11.3 17.85, 26.27 1.25 M3.63 34.01 C15.07 21.6, 24.04 9.47, 29.93 -0.81 M2.11 34.13 C12.39 23.07, 20.54 11.12, 31.42 0.85 M7.21 35.22 C16.9 21.77, 27.69 9.98, 35.48 -0.48 M6.38 33.71 C16.81 24.14, 25.26 13.72, 36.38 0.1 M11.65 33.5 C21.98 24.91, 30.2 16.74, 44.35 0.1 M12.14 33.77 C19.18 24.7, 27.39 16.15, 42.98 -0.4 M17.13 32.99 C26.29 26.89, 31.47 18.54, 48.95 1.56 M18.77 33.66 C25.72 26.11, 34.34 16.12, 46.77 0.27 M22.5 35.37 C35.4 22.56, 43.72 10.73, 53.75 -2.13 M23.83 34.53 C32.01 22.53, 42.96 11.08, 53.66 -1.14 M29.06 33.37 C33.64 28.5, 42.24 18.09, 57.21 1.22 M27.07 35.61 C40.56 20.53, 51 8.59, 58.09 -0.43 M33.7 35.97 C41.22 25.02, 46.79 19.06, 64.09 -1.07 M33.93 34.07 C40.29 26.6, 45.24 21.1, 63.76 -0.47 M38.04 33.52 C44.73 25.08, 53.45 15.09, 67.38 -1.72 M39 34.81 C49.05 23.31, 59.98 9.83, 67.79 0.45 M44.14 35.33 C50.34 24.34, 60.31 17.73, 72.63 -0.59 M44.04 34.74 C50.11 26.23, 56.01 20.55, 73.42 0.13 M48.41 34.58 C57.42 24.68, 65.5 19.09, 79.87 0.2 M50.17 34.41 C55.79 27.28, 63.39 19.11, 80.19 0.05 M53.98 33.17 C62.03 23.57, 74.33 14.87, 81.97 3.38 M54.59 33.53 C65.96 22.27, 75.62 10.79, 82.66 1.14 M60.52 34.61 C66.3 25.85, 75.88 16.92, 81.86 5.68 M60.7 34.51 C69.55 23.99, 78.82 13.99, 83.88 7.67 M64.7 32.89 C74.19 27.88, 76.97 17.77, 81.46 13.89 M64.86 34.08 C71.03 27.73, 76.96 21.13, 82.74 13.95 M70.02 33.43 C76.03 31.61, 79.48 25.6, 82.39 19.36 M70.53 34.81 C74.35 30.69, 76.93 27.61, 82.83 19.53 M75.56 33.94 C79.16 30.93, 80.62 30.28, 83.06 26.21 M76.59 34.56 C77.72 32.58, 79.52 31.01, 83.63 26.17" stroke="#40c057" stroke-width="0.5" fill="none"></path><path d="M-1.06 -0.31 C20.15 -0.86, 42.03 -0.87, 80.25 0.29 M-0.84 0.89 C25.01 -0.44, 48.67 -0.58, 81.47 -0.17 M80.84 -0.26 C82.9 8.56, 82.41 17.09, 82.3 31.91 M81.84 -0.41 C80.81 11.49, 80.18 21.07, 81.09 32.51 M80.52 32.36 C61.59 31.36, 40.94 31.49, 1.52 31.43 M80.96 32.26 C52.61 33.19, 24.37 32.2, -0.32 32.31 M-0.64 34.55 C0.07 23.79, -0.58 16.52, -1.1 0.55 M-0.38 33.77 C0.65 26, -0.03 19.06, -0.24 0.03" stroke="#000000" stroke-width="1" fill="none"></path></g><g transform="translate(564.5360844993611 833.61328125) rotate(0 35.5 11.5)"><text x="35.5" y="18" font-family="Helvetica, Segoe UI Emoji" font-size="20px" fill="#000000" text-anchor="middle" style="white-space: pre;" direction="ltr">URL_9</text></g><g stroke-linecap="round" transform="translate(743.3095219993611 829.41015625) rotate(0 40.5 16.5)"><path d="M0 0 C0 0, 0 0, 0 0 M0 0 C0 0, 0 0, 0 0 M0.18 5.78 C0.46 5.59, 2.38 3.18, 4.62 0.77 M-0.62 6.68 C2.06 3.68, 3.59 1.95, 4.97 0.11 M0.22 13.21 C2.93 8.11, 4.2 7.01, 10.88 -0.73 M0.4 11.69 C2.8 8.99, 4 7.77, 10.61 -0.25 M-0.68 17.09 C2.12 13.19, 6.95 7.67, 14.22 -1.55 M0.28 18.37 C5.08 12.76, 10.81 5.26, 14.64 0.63 M0.17 24.94 C4.21 16.59, 11.94 12.55, 19.48 -0.42 M0.07 24.34 C4.19 18.11, 8.15 14.66, 20.27 0.31 M-0.8 30.23 C7.23 21.45, 14.32 17, 26.71 0.37 M0.96 30.06 C5.67 23.92, 12.38 16.77, 27.04 0.22 M0.82 33.34 C9.5 23.04, 22.43 13.62, 30.79 1.29 M1.44 33.7 C13.53 21.64, 23.9 9.34, 31.47 -0.95 M8.02 34.03 C15.69 23.08, 27.19 11.95, 35.27 -1.7 M8.2 33.93 C19.32 20.75, 30.92 8.06, 37.29 0.29 M11.55 33.06 C25.76 22.66, 33.19 7.18, 40.78 -0.28 M11.71 34.25 C21.87 23.32, 31.73 12.2, 42.05 -0.22 M17.5 32.78 C29.19 24.99, 38.05 12.65, 46.93 -0.9 M18.03 34.24 C25.91 25.17, 32.64 17.32, 47.39 -0.72 M21.95 33.76 C33.67 22.28, 41.65 14.94, 52.64 0.08 M23.82 34.88 C29.62 27.08, 36.55 20.04, 53.67 0.01 M26.64 36.43 C38.03 23.29, 50.22 9, 58.06 1.29 M28.31 34.89 C37.16 23.22, 47.2 12.34, 58.19 0.26 M32.15 34.2 C40.03 25.4, 48.66 17.46, 64.89 1.22 M32.76 34.54 C41.64 24.83, 48.73 16.58, 63.85 -1.11 M39.03 34.61 C44.56 26.1, 54.18 17.49, 70.33 -0.91 M37.98 35.43 C47.96 23.44, 58.46 12.33, 69.37 0.97 M43.56 32.87 C57.17 21.58, 68.18 8.93, 75.37 -0.29 M44.32 34.85 C52.56 23.85, 63.35 13.51, 73.95 -0.74 M47.59 32.87 C55.6 27.64, 62.09 17.12, 78.73 -1.6 M49.87 35.31 C57.8 24.4, 67.26 12.36, 79.47 -0.17 M54.92 35.92 C61.91 28.2, 67.61 22.18, 83.23 0.07 M55.16 34.09 C62.36 24.13, 71.26 16.65, 83.2 1.86 M61.21 33.73 C69.54 24.75, 75.65 17.41, 84.99 8.37 M59.32 34.86 C68.69 24.5, 76.48 16.43, 83.29 7.43 M66.29 33.19 C71.14 24.47, 77.06 20.36, 82.39 13.77 M64.78 35.18 C69.25 30.9, 72.22 26.03, 84.09 14.35 M72.01 33.43 C74.27 29.91, 75.88 26.4, 84.61 20.03 M69.54 34.14 C73.65 30.46, 77 28.02, 83.03 21.18 M75.51 34.28 C77.57 31.1, 80.59 29.01, 84.32 25.28 M75.8 34.01 C77.9 32.09, 80.61 29.09, 83.72 26.43" stroke="#40c057" stroke-width="0.5" fill="none"></path><path d="M1.92 -0.61 C33.29 0.63, 61.93 1.94, 79.04 -0.7 M0.4 -0.48 C27.39 0.3, 52.2 -0.26, 80.53 0.96 M80.86 1 C79.51 12.05, 79.51 24.7, 79.6 32.26 M80.02 -0.51 C81.29 10.83, 80.5 21.36, 80.5 32.84 M80.31 31.92 C61.24 33.42, 40.34 34.35, 1.83 33.24 M80.8 32.2 C58.62 32.03, 37.31 32.71, 0.46 32.74 M-0.86 31.81 C0.97 25.82, -1.19 17.71, 1.44 1.34 M0.79 32.48 C-0.09 25.02, 0.7 15.28, -0.73 0.05" stroke="#000000" stroke-width="1" fill="none"></path></g><g transform="translate(748.3095219993611 834.41015625) rotate(0 35.5 11.5)"><text x="35.5" y="18" font-family="Helvetica, Segoe UI Emoji" font-size="20px" fill="#000000" text-anchor="middle" style="white-space: pre;" direction="ltr">URL_2</text></g><g stroke-linecap="round"><g transform="translate(326.0282719993611 636.73828125) rotate(0 -54.76779320924106 17.8722669232497)"><path d="M-0.08 0.18 C-17.98 6.44, -90.16 30.63, -108.23 36.52 M-1.58 -0.77 C-19.62 5.23, -92.06 28.49, -109.45 34.72" stroke="#000000" stroke-width="1" fill="none"></path></g><g transform="translate(326.0282719993611 636.73828125) rotate(0 -54.76779320924106 17.8722669232497)"><path d="M-85.71 15.11 C-90.58 19.06, -97.71 24.41, -109.79 35.16 M-85.82 15.24 C-93.16 20.7, -99.23 26.68, -108.76 35.22" stroke="#000000" stroke-width="1" fill="none"></path></g><g transform="translate(326.0282719993611 636.73828125) rotate(0 -54.76779320924106 17.8722669232497)"><path d="M-79.16 34.56 C-85.39 33.99, -94.03 34.83, -109.79 35.16 M-79.28 34.69 C-88.26 34.99, -96.06 35.81, -108.76 35.22" stroke="#000000" stroke-width="1" fill="none"></path></g></g><g stroke-linecap="round"><g transform="translate(386.7470219993611 643.1875) rotate(0 -0.5164392920628416 15.674962218110451)"><path d="M0.82 0.06 C0.78 5.28, -0.53 27.03, -0.94 32.31 M-0.21 -0.96 C-0.35 3.88, -1.44 25.7, -1.85 30.8" stroke="#000000" stroke-width="1" fill="none"></path></g><g transform="translate(386.7470219993611 643.1875) rotate(0 -0.5164392920628416 15.674962218110451)"><path d="M-6.18 15.95 C-3.53 18.69, -3.2 23.04, -2.03 29.33 M-6.65 15.56 C-4.14 19.94, -3.33 25.99, -2.05 30.9" stroke="#000000" stroke-width="1" fill="none"></path></g><g transform="translate(386.7470219993611 643.1875) rotate(0 -0.5164392920628416 15.674962218110451)"><path d="M4.45 16.61 C4.5 19.26, 2.23 23.45, -2.03 29.33 M3.98 16.23 C3.16 20.32, 0.64 26.16, -2.05 30.9" stroke="#000000" stroke-width="1" fill="none"></path></g></g><g stroke-linecap="round"><g transform="translate(434.8017094993611 633.0234375) rotate(0 64.2794220678511 20.78832302690018)"><path d="M-0.79 0.92 C20.95 7.71, 107.51 34.71, 129.35 41.23 M0.99 0.35 C22.63 6.74, 106.67 32.58, 128.12 39.34" stroke="#000000" stroke-width="1" fill="none"></path></g><g transform="translate(434.8017094993611 633.0234375) rotate(0 64.2794220678511 20.78832302690018)"><path d="M99.68 39.88 C105.14 41.32, 109.34 40.29, 129.22 39.64 M98.14 40.76 C108.73 40.65, 120.22 39.63, 128.19 38.55" stroke="#000000" stroke-width="1" fill="none"></path></g><g transform="translate(434.8017094993611 633.0234375) rotate(0 64.2794220678511 20.78832302690018)"><path d="M105.77 20.28 C110.03 25.77, 112.97 28.82, 129.22 39.64 M104.23 21.16 C112.42 28.56, 121.59 35.01, 128.19 38.55" stroke="#000000" stroke-width="1" fill="none"></path></g></g><g stroke-linecap="round"><g transform="translate(199.1806157493611 712.8515625) rotate(0 -50.9554467596904 27.0611817283975)"><path d="M0.94 -0.64 C-16.26 8.42, -84.87 44.48, -101.98 53.44 M-0.03 1.64 C-17.47 10.95, -85.8 46.03, -102.85 54.76" stroke="#000000" stroke-width="1" fill="none"></path></g><g transform="translate(199.1806157493611 712.8515625) rotate(0 -50.9554467596904 27.0611817283975)"><path d="M-83.52 33.03 C-91.44 42.36, -100.1 51.58, -103.26 53.88 M-81.63 33.45 C-90.78 40.72, -98.56 48.93, -102.01 54.63" stroke="#000000" stroke-width="1" fill="none"></path></g><g transform="translate(199.1806157493611 712.8515625) rotate(0 -50.9554467596904 27.0611817283975)"><path d="M-74.15 51.28 C-85.66 53.42, -98.06 55.36, -103.26 53.88 M-72.26 51.7 C-84.87 52.04, -96.24 53.26, -102.01 54.63" stroke="#000000" stroke-width="1" fill="none"></path></g></g><g stroke-linecap="round"><g transform="translate(203.0165532493611 715.48046875) rotate(0 -0.18708798985335306 27.49826289367862)"><path d="M-1.03 0.16 C-0.84 9.35, 0.25 45.41, 0.47 54.76 M0.63 -0.81 C0.8 8.55, 0.13 46.63, 0.01 55.8" stroke="#000000" stroke-width="1" fill="none"></path></g><g transform="translate(203.0165532493611 715.48046875) rotate(0 -0.18708798985335306 27.49826289367862)"><path d="M-8.86 31.05 C-8.55 37.34, -3.78 41.31, 0.4 54.63 M-10.02 30.22 C-7.37 34.88, -4.66 40.87, 0.29 56.36" stroke="#000000" stroke-width="1" fill="none"></path></g><g transform="translate(203.0165532493611 715.48046875) rotate(0 -0.18708798985335306 27.49826289367862)"><path d="M10.19 31.34 C5.82 37.39, 5.91 41.29, 0.4 54.63 M9.03 30.5 C7.82 35.05, 6.66 40.98, 0.29 56.36" stroke="#000000" stroke-width="1" fill="none"></path></g></g><g stroke-linecap="round"><g transform="translate(224.9501469993611 713.5625) rotate(0 45.80451927126842 25.301627125502563)"><path d="M-0.24 0.82 C14.56 9.33, 74.47 42.36, 89.48 50.4 M1.83 0.2 C16.98 8.44, 77.35 40.35, 91.85 48.66" stroke="#000000" stroke-width="1" fill="none"></path></g><g transform="translate(224.9501469993611 713.5625) rotate(0 45.80451927126842 25.301627125502563)"><path d="M63.56 43.05 C73.83 45.25, 82.06 49.08, 93.38 49.4 M61.67 44.19 C73.33 45.03, 83.25 48.12, 91.68 48.46" stroke="#000000" stroke-width="1" fill="none"></path></g><g transform="translate(224.9501469993611 713.5625) rotate(0 45.80451927126842 25.301627125502563)"><path d="M73.41 25.05 C80.1 33.57, 84.87 43.73, 93.38 49.4 M71.52 26.19 C79.81 33.3, 86.26 42.73, 91.68 48.46" stroke="#000000" stroke-width="1" fill="none"></path></g></g><g stroke-linecap="round"><g transform="translate(579.1649907493611 715.86328125) rotate(0 -35.98856849160984 19.23140637686941)"><path d="M-1.16 -1.15 C-13.04 5.34, -60.02 31.86, -72.04 38.33 M0.44 0.86 C-11.45 7.57, -59.99 33.36, -72.42 39.61" stroke="#000000" stroke-width="1" fill="none"></path></g><g transform="translate(579.1649907493611 715.86328125) rotate(0 -35.98856849160984 19.23140637686941)"><path d="M-54.04 19.32 C-57.91 22.35, -63.91 27.66, -71.97 38.19 M-52.59 17.41 C-58.87 26.31, -68.18 33.49, -71.81 40.42" stroke="#000000" stroke-width="1" fill="none"></path></g><g transform="translate(579.1649907493611 715.86328125) rotate(0 -35.98856849160984 19.23140637686941)"><path d="M-44.58 37.53 C-50.62 36.11, -58.88 37.06, -71.97 38.19 M-43.12 35.62 C-53.01 37.71, -65.89 38.02, -71.81 40.42" stroke="#000000" stroke-width="1" fill="none"></path></g></g><g stroke-linecap="round"><g transform="translate(592.3603032493611 715.6171875) rotate(0 44.05057622208278 21.85633915737271)"><path d="M0.75 -1.19 C15.23 6.29, 71.95 37.13, 86.13 44.9 M-0.32 0.8 C14.62 7.9, 73.68 35.82, 88.42 42.95" stroke="#000000" stroke-width="1" fill="none"></path></g><g transform="translate(592.3603032493611 715.6171875) rotate(0 44.05057622208278 21.85633915737271)"><path d="M56.58 38.75 C66.09 38.72, 74 41.33, 88.6 44.53 M58.01 39.98 C67.24 40.36, 77.35 41.76, 89.32 42.23" stroke="#000000" stroke-width="1" fill="none"></path></g><g transform="translate(592.3603032493611 715.6171875) rotate(0 44.05057622208278 21.85633915737271)"><path d="M65.42 20.23 C72.86 24.59, 78.7 31.55, 88.6 44.53 M66.85 21.46 C73.25 27.71, 80.57 34.97, 89.32 42.23" stroke="#000000" stroke-width="1" fill="none"></path></g></g><g stroke-linecap="round"><g transform="translate(684.1038151644643 793.89453125) rotate(0 -35.53353472896106 17.126260079448116)"><path d="M-0.21 0.84 C-12.04 6.54, -58.32 28.73, -70.33 34.02 M-1.77 0.24 C-13.75 5.65, -59.5 26.9, -70.86 32.49" stroke="#000000" stroke-width="1" fill="none"></path></g><g transform="translate(684.1038151644643 793.89453125) rotate(0 -35.53353472896106 17.126260079448116)"><path d="M-48.41 12.43 C-55.41 16.78, -65.25 24.87, -71.96 31.86 M-50.34 11 C-57.56 18.63, -66.53 27.82, -70.88 32.22" stroke="#000000" stroke-width="1" fill="none"></path></g><g transform="translate(684.1038151644643 793.89453125) rotate(0 -35.53353472896106 17.126260079448116)"><path d="M-39.6 30.96 C-49.69 28.73, -62.65 30.26, -71.96 31.86 M-41.53 29.53 C-52.11 30.12, -64.45 32.23, -70.88 32.22" stroke="#000000" stroke-width="1" fill="none"></path></g></g><g stroke-linecap="round"><g transform="translate(703.4306157493611 794.5703125) rotate(0 36.2757827512919 16.19572055101861)"><path d="M-0.57 1.12 C11.74 6.24, 60.89 26.84, 73.12 31.73 M1.34 0.66 C13.6 5.99, 60.67 24.99, 72.47 30.16" stroke="#000000" stroke-width="1" fill="none"></path></g><g transform="translate(703.4306157493611 794.5703125) rotate(0 36.2757827512919 16.19572055101861)"><path d="M44.37 29.69 C51.5 29.63, 56.65 28.76, 73.39 30.53 M42.83 28.64 C51.13 29.59, 60.82 29.24, 71.88 30.64" stroke="#000000" stroke-width="1" fill="none"></path></g><g transform="translate(703.4306157493611 794.5703125) rotate(0 36.2757827512919 16.19572055101861)"><path d="M52.3 10.76 C57.67 15.23, 60.91 18.92, 73.39 30.53 M50.76 9.71 C56.55 16.58, 63.78 22.13, 71.88 30.64" stroke="#000000" stroke-width="1" fill="none"></path></g></g><g stroke-linecap="round" transform="translate(10 577.0041766190523) rotate(0 465.986328125 160.666015625)"><path d="M0.5 0.35 C277.39 -3.15, 553.91 -3.96, 932.19 0.34 M0.34 0.28 C205 0.05, 410.79 -0.23, 931.66 -0.29 M931.05 0.37 C931.15 85.6, 930.61 170.11, 933.02 321.54 M931.49 0.04 C933.6 79.6, 934.36 159.6, 931.43 321.18 M932.46 320.86 C725.86 325.31, 520.98 324.61, -0.77 321.09 M931.84 321.29 C579.97 318.01, 227.52 317.7, 0.23 321.63 M0.5 320.66 C-1.49 232.79, -0.38 146.56, 0.13 -1.39 M-0.69 321.76 C-0.55 216.73, 0.4 111.69, -0.24 0.35" stroke="#000000" stroke-width="1" fill="none"></path></g><g transform="translate(841.6649907493611 618.33984375) rotate(0 33 11.5)"><text x="0" y="18" font-family="Helvetica, Segoe UI Emoji" font-size="20px" fill="#000000" text-anchor="start" style="white-space: pre;" direction="ltr">Level 0</text></g><g transform="translate(845.8329594993611 683.11328125) rotate(0 33 11.5)"><text x="0" y="18" font-family="Helvetica, Segoe UI Emoji" font-size="20px" fill="#000000" text-anchor="start" style="white-space: pre;" direction="ltr">Level 1</text></g><g transform="translate(845.9931157493611 757.25) rotate(0 33 11.5)"><text x="0" y="18" font-family="Helvetica, Segoe UI Emoji" font-size="20px" fill="#000000" text-anchor="start" style="white-space: pre;" direction="ltr">Level 2</text></g><g transform="translate(847.9306157493611 832.58984375) rotate(0 33 11.5)"><text x="0" y="18" font-family="Helvetica, Segoe UI Emoji" font-size="20px" fill="#000000" text-anchor="start" style="white-space: pre;" direction="ltr">Level 3</text></g><g stroke-linecap="round"><g transform="translate(843.4188969993611 644.78515625) rotate(0 31.46395774714165 0.2069471962749958)"><path d="M0.22 0.85 C11.05 0.6, 53.64 -0.48, 64.05 -0.44 M-1.12 0.26 C9.69 0.62, 53.04 0.7, 63.5 0.48" stroke="#000000" stroke-width="1" fill="none"></path></g></g><g stroke-linecap="round"><g transform="translate(845.2978032493611 714.66796875) rotate(0 31.835352480332404 -1.3946404404891624)"><path d="M-0.13 0.39 C10.83 0.19, 54.55 -1.01, 65.32 -1.49 M-1.65 -0.45 C9.15 -0.96, 52.8 -3.04, 64.22 -3.18" stroke="#000000" stroke-width="1" fill="none"></path></g></g><g stroke-linecap="round"><g transform="translate(846.1493657493611 788.94921875) rotate(0 34.9581383404834 -0.536047104885796)"><path d="M-0.86 -1.12 C10.48 -1.08, 57.01 -0.39, 68.66 -0.26 M0.89 0.91 C12.53 0.65, 58.99 -1.45, 70.78 -1.98" stroke="#000000" stroke-width="1" fill="none"></path></g></g><g stroke-linecap="round"><g transform="translate(848.5204594993611 861.38671875) rotate(0 37.74118968322864 -0.9175292449584447)"><path d="M-0.99 -1.14 C11.7 -1.75, 63.31 -2.76, 76.47 -2.71 M0.69 0.87 C13.15 0.3, 62.45 -1.1, 75.29 -1.69" stroke="#000000" stroke-width="1" fill="none"></path></g></g><g transform="translate(395.9513879633205 919.0753486958673) rotate(0 123.5 11.5)"><text x="0" y="18" font-family="Helvetica, Segoe UI Emoji" font-size="20px" fill="#000000" text-anchor="start" style="white-space: pre;" direction="ltr">Level-Order(BFS) Traversal</text></g></svg>