<svg version="1.1" xmlns="http://www.w3.org/2000/svg" viewBox="0 0 379.35546875 402.36328125" width="379.35546875" height="402.36328125">
  <!-- svg-source:excalidraw -->
  
  <defs>
    <style>
      @font-face {
        font-family: "Virgil";
        src: url("https://excalidraw.com/Virgil.woff2");
      }
      @font-face {
        font-family: "Cascadia";
        src: url("https://excalidraw.com/Cascadia.woff2");
      }
    </style>
  </defs>
  <rect x="0" y="0" width="379.35546875" height="402.36328125" fill="#ffffff"></rect><g transform="translate(40 10) rotate(0 160.5 34.5)"><text x="0" y="18" font-family="Helvetica, Segoe UI Emoji" font-size="20px" fill="#000000" text-anchor="start" style="white-space: pre;" direction="ltr">HashMap&lt;Key, ListNode&gt; cache(3);</text><text x="0" y="41" font-family="Helvetica, Segoe UI Emoji" font-size="20px" fill="#000000" text-anchor="start" style="white-space: pre;" direction="ltr">Deque&lt;ListNode&gt; deque(3);</text><text x="0" y="64" font-family="Helvetica, Segoe UI Emoji" font-size="20px" fill="#000000" text-anchor="start" style="white-space: pre;" direction="ltr"></text></g><g stroke-linecap="round" transform="translate(72.53125 135.62109375) rotate(0 42.5 26.5)"><path d="M0 0 C0 0, 0 0, 0 0 M0 0 C0 0, 0 0, 0 0 M-0.9 7.01 C1.43 5.41, 2.34 3.51, 5.3 0.86 M0.06 6.34 C1.22 4.77, 2.66 3.57, 5.25 0.31 M-0.15 11.36 C4.55 7.88, 6.75 3.86, 11.15 0.29 M0.6 11.72 C3.87 6.83, 7.46 2.93, 10.7 0.39 M-0.74 19.84 C2.03 13.85, 8.33 8.71, 13.66 1.09 M-0.04 17.79 C4.84 11.62, 10.21 6.35, 16.2 1.07 M-0.27 23.44 C7.5 14.38, 14.36 4.62, 20.99 -1.83 M1.02 23.11 C5.88 16.56, 12.8 8.99, 20.8 -1.01 M1.35 32.17 C5.55 22.83, 12.68 14.59, 25.53 1.54 M-0.13 30.02 C5.01 23.79, 11.89 17.06, 25.94 0.83 M0.09 35.5 C10.07 24.45, 22.81 10.48, 31.11 -1.48 M0.32 36.68 C9.54 27.01, 18.53 15.26, 30.94 -0.29 M-0.17 44.26 C11.24 32.49, 23.14 19.17, 37.95 -0.33 M-0.1 42.34 C11.51 29.27, 24.81 15.88, 37.67 0.44 M0.52 48.81 C13.1 33.99, 22.59 19.29, 42.11 0.7 M-0.13 48.66 C13.53 32.97, 28.44 17.66, 41.76 0.53 M1.58 52.89 C19.03 33.61, 33.32 14.77, 48.3 0.34 M0.41 54.75 C19.03 32.47, 37.95 12, 47.28 -0.73 M5.39 52.46 C23.03 33.53, 38.61 17.41, 53.3 -1.8 M5.93 53.24 C24.01 33.27, 43.57 10.57, 53.93 0.76 M12.84 55.21 C21.19 42.5, 30.85 27.97, 58.78 0.64 M12.41 52.87 C26.41 37.01, 40.69 18.2, 57.74 1.05 M17.33 55.29 C35.96 34.02, 53.75 9.47, 62.76 -1.33 M17.29 54.54 C32.43 35.45, 48.7 17.58, 64.24 -0.89 M23.6 52.47 C39.63 33.8, 57.98 12.89, 68.4 1.82 M21.98 53.59 C38.99 35.82, 56 15.9, 69.16 -0.04 M28.52 54.07 C39.84 37.6, 52.77 25.13, 75.42 -0.03 M26.58 54.9 C38.99 40.62, 51.28 27.98, 73.58 -0.31 M32.54 52.77 C49.24 36.06, 63.6 14.54, 80.97 1.32 M33.1 53.91 C44.93 41.28, 56.05 27.29, 78.69 0.56 M36.52 52.51 C51.32 41.1, 61.15 26.09, 87 -1.86 M38.1 53.75 C48.93 41.95, 59.24 29.65, 84.91 0.02 M45.13 54.39 C54.83 41.16, 67.74 24.57, 87.17 3.04 M43.89 54.22 C59.54 35.69, 75.63 17.31, 88.65 2.09 M47.71 54.49 C63.33 37.69, 78.72 22.09, 88.17 8.46 M49.23 54.94 C57.99 42.31, 68.42 30.17, 87.43 8.09 M53.66 53.8 C63.83 39.69, 78.22 27.66, 89.87 16.34 M54.52 54.33 C64.9 42.02, 75.55 29.11, 87.83 13.47 M57.3 52.08 C66.9 42.08, 76.66 33.08, 89.54 21.3 M58.47 54.73 C68.94 42.42, 78.62 31.46, 87.54 20.18 M65.24 53.68 C68.75 49.8, 75.09 43.15, 87.22 26.18 M65.29 53.43 C72.17 44.66, 79.65 36.94, 88.56 27.43 M69.29 53.52 C73.91 48.46, 77.11 45.36, 89.88 32.24 M69.4 53.77 C75.61 47.89, 79.82 41.79, 87.12 33.02 M73.86 54.81 C80.12 49.62, 85.37 42.61, 87.59 37.34 M74.61 54.12 C78.98 48.82, 82 44.2, 87.71 38.69 M80.43 54.74 C82.74 50.54, 84.47 49.01, 88.19 45.59 M80.54 53.45 C82.12 52.16, 83.47 49.55, 87.8 45.4" stroke="#40c057" stroke-width="0.5" fill="none"></path><path d="M-0.32 -1.76 C31.32 0.12, 59.4 -0.76, 84.28 -1.85 M-0.81 -0.69 C24.6 -0.75, 46.89 -0.82, 84.61 0.35 M84.78 0.52 C83.32 17.65, 87.03 29.87, 84.94 52.32 M84.6 0.62 C84.39 18.14, 85.92 35.44, 85.6 52.15 M83.05 54.07 C55.17 51.63, 23.92 50.56, -0.13 51.19 M85.99 52.54 C58.08 52.28, 30.33 53.1, -0.51 52.55 M1.8 53.89 C1.24 35.78, -1.75 18.62, -0.28 -1.79 M0.45 52.14 C-0.45 38.04, -0.29 21.31, 0.19 -0.61" stroke="#000000" stroke-width="1" fill="none"></path></g><g transform="translate(77.53125 150.62109375) rotate(0 37.5 11.5)"><text x="37.5" y="18" font-family="Helvetica, Segoe UI Emoji" font-size="20px" fill="#000000" text-anchor="middle" style="white-space: pre;" direction="ltr">1</text></g><g stroke-linecap="round" transform="translate(75.7890625 236.4296875) rotate(0 42.5 26.5)"><path d="M0 0 C0 0, 0 0, 0 0 M0 0 C0 0, 0 0, 0 0 M-1.01 6.13 C0.41 4.9, 3.16 3.82, 4.29 0.53 M-0.01 6.12 C1.24 4.84, 2 3.57, 4.67 0.41 M0.99 13.23 C3.5 7.74, 6.71 3.68, 9.31 0.99 M-0.42 12.02 C3.51 8.67, 5.83 5.83, 11.12 0.75 M-0.5 18.19 C3.27 12.22, 9.09 9.32, 15.87 2.29 M-0.42 18.72 C6.19 10.86, 11.51 4.42, 15.12 0.71 M0.64 23.85 C9.36 14.96, 16.46 5.69, 22.55 -0.84 M0.68 24.38 C5.16 17.94, 9.83 13.04, 20.87 -0.18 M1.34 31.56 C7.65 19.61, 18.59 8.87, 27.55 -1.09 M0.07 31.41 C7.41 22.1, 13.07 15.91, 26.34 -0.26 M-2.17 37.87 C12.55 22.85, 23.12 7.75, 32.71 -1.82 M-1.07 37.85 C9.32 25.42, 18.45 14.17, 31.39 0.35 M2.01 40.99 C12.21 29.32, 25.77 15.97, 36.05 1.17 M0.36 42.73 C8.24 33.9, 17.6 22.8, 36.57 1.1 M1.61 50.86 C8.68 39.52, 18.24 30.45, 43.13 1.41 M-0.68 49.34 C12.39 35.78, 25.01 21.9, 42.32 0.01 M-0.43 55.08 C13.59 38.09, 28.75 21.4, 47.94 -0.25 M1.76 54.3 C18.96 32.25, 37.77 11.7, 47.62 0.75 M5.53 53.72 C22.79 31.97, 43.88 12.24, 52.27 -1.86 M6.02 53.62 C17.1 40.5, 28.4 27.9, 53.23 -0.3 M11.43 54.8 C30.34 34.71, 46.11 12.79, 58.6 1.55 M12.16 53.32 C22.33 40.55, 33.02 29.67, 58.37 1.02 M17.43 53.08 C27.28 39.2, 38.28 26.11, 65.44 -0.17 M15.75 53.43 C30.27 36.98, 44.64 21.85, 63.84 -0.28 M22.79 53.19 C34.87 40.17, 47.27 27.53, 68.24 1.62 M22.53 54.29 C36.54 37.94, 51.85 21.23, 68.81 0.69 M26.66 55.55 C42.91 35.27, 57.24 18.63, 74.73 0.16 M27.03 53.67 C43.52 35.1, 60.75 16.68, 73.92 -0.22 M31.5 54.18 C44.84 40.82, 58.73 24.04, 77.85 -0.78 M33.79 53.79 C51.85 33.27, 69.62 12.25, 80.02 0.89 M35.97 54.64 C53.65 35.43, 71.51 11.54, 83.06 -1.03 M38.06 54.39 C47.7 41.33, 57.15 31.11, 85.34 -1.01 M42.24 51.86 C58.97 36.37, 74.52 19.19, 87.3 4.07 M42.95 53.8 C57.96 35.52, 74.04 18.9, 88.22 1.47 M48.93 52.05 C61.77 36.57, 75.31 22.02, 88.29 7.36 M48.14 54.02 C60.29 39.73, 71.81 26.31, 88.22 8.93 M54.47 54.52 C60.45 44.35, 66.94 38.5, 88.65 15.35 M53.09 53.73 C67.93 38.19, 79.03 24.94, 88.1 13.95 M57.94 53.64 C64.24 49.01, 71.14 41.92, 88.19 19.51 M59.67 53.41 C67.53 44.93, 75.03 35.17, 87.86 21.49 M66.49 52.63 C68.55 48.29, 71.99 42.01, 89.23 27.81 M65.4 54.37 C71.04 46.31, 76.99 41.35, 87.91 27.65 M68.18 53.5 C77.08 48.3, 83.16 40.47, 88.76 34.83 M70.13 53.82 C73.21 49.2, 77.55 44.36, 89.04 32.98 M75.39 54.8 C79.04 49.72, 81.92 42.94, 86.67 39.91 M75.19 53.92 C79.22 49.39, 82.36 45.99, 88.38 39.81 M81.13 53.9 C81.81 51.55, 84.06 48.87, 88.17 45.49 M80.2 54.52 C82.92 51.14, 85.99 47.56, 88.1 44.43" stroke="#40c057" stroke-width="0.5" fill="none"></path><path d="M-1.23 -0.34 C23.35 -0.97, 44.64 -0.92, 83.59 -0.13 M0.01 -0.87 C30.15 0.01, 58.1 -0.03, 84.35 0.33 M84.43 -0.55 C83.38 13.78, 83.76 29.24, 85.5 54.65 M85.63 -0.39 C84.58 14.12, 86.06 27.42, 85.18 52.92 M84.75 52.72 C54.81 55.31, 27.94 52.7, 1.63 52.23 M85.2 53.79 C57.17 53.03, 29.26 52.88, -0.25 52.17 M1.06 51.82 C0.37 40.02, -0.61 30.29, -1.61 -0.3 M0.38 53.47 C0.88 35.26, 0.37 15.78, -0.39 -0.45" stroke="#000000" stroke-width="1" fill="none"></path></g><g transform="translate(80.7890625 251.4296875) rotate(0 37.5 11.5)"><text x="37.5" y="18" font-family="Helvetica, Segoe UI Emoji" font-size="20px" fill="#000000" text-anchor="middle" style="white-space: pre;" direction="ltr">2</text></g><g stroke-linecap="round" transform="translate(77.2109375 339.36328125) rotate(0 42.5 26.5)"><path d="M0 0 C0 0, 0 0, 0 0 M0 0 C0 0, 0 0, 0 0 M-0.91 7.18 C1.52 4.17, 2.8 2.1, 4.59 0.72 M0.11 6.09 C1.45 4.56, 3.47 2.69, 4.82 0.54 M0.5 12.38 C1.96 10.7, 6.25 5.22, 10.14 1.32 M0.83 12.82 C2.27 9.78, 4.78 7.67, 10.87 0.59 M-1.25 19.29 C4.73 14.36, 10.37 9.13, 15.21 0.62 M-0.81 19.07 C4.1 13.12, 9.51 7.28, 15.83 0.09 M1.93 25.07 C7.23 13.39, 16.55 4.88, 21.48 0.98 M0.08 23.86 C7.68 14.15, 17.22 5.45, 20.82 -0.91 M0.22 29.39 C5.88 22.86, 11.64 17.04, 26.42 0.03 M-0.06 30.99 C10.49 19.69, 19.49 7.45, 26.48 0.97 M0.94 35.98 C7.18 26.6, 14.93 20.52, 32.35 1.57 M0.19 36.35 C7.17 27.05, 14.77 18.09, 32.72 -0.09 M-1.44 41.11 C10.34 28.04, 22.35 17.03, 37 0.11 M0.44 42.25 C9.85 31.86, 19.44 21.64, 36.61 0.99 M0.56 50.02 C12.58 35.14, 27.5 19.76, 42.6 0.93 M-0.38 49.65 C13.9 32.21, 27.31 16.71, 42.68 0.06 M0.64 52.96 C17.24 35.28, 34.85 17.84, 46.52 0.26 M0.27 54.05 C13.58 39.95, 27.05 24.06, 46.73 -0.23 M7.87 54.33 C26.03 34.28, 43.67 12.81, 54.4 1.37 M4.99 54.46 C22.71 34.74, 40.5 12.6, 52.16 -0.55 M12.07 54.42 C21.4 40.5, 30.03 31.88, 58.74 -1.28 M10.95 52.87 C27.71 35.77, 43.7 17.73, 57.76 1.05 M15.54 54.4 C31.52 34.08, 49.49 17.15, 64.09 -1.96 M16.79 53.14 C32.81 34.23, 49.08 16.03, 64.02 -0.9 M21.6 53.72 C36.21 36.52, 49.61 20.78, 69.61 0.53 M22.38 54.18 C31.54 42.12, 41.09 31.94, 69 0.63 M25.19 54.29 C46.89 32.21, 61.26 14.73, 74.22 -1.12 M26.61 53.92 C36.64 43.99, 46.74 32.81, 74.54 -0.88 M34.03 52.54 C46.74 39.05, 58.71 23.03, 79.25 1.53 M33.71 53.22 C41.8 43.16, 50.57 31.91, 80.18 0.43 M39.2 55.6 C50.8 39.11, 63.03 28.82, 85.52 0.65 M37.05 53.83 C53.71 37.31, 69.08 19.21, 85.39 0.72 M44.32 53.39 C52.38 41.97, 62.89 30.19, 90.02 2.66 M43.48 54.32 C57.11 38.31, 70.26 21.35, 87.46 2.71 M48.13 54.77 C60.29 41.06, 70.55 29.71, 89.01 9.98 M49.11 54 C59.68 40.67, 71.2 27.35, 87.77 9.26 M53.65 55.61 C65.25 41.37, 78.05 26.48, 87.86 12.94 M53.65 52.9 C63.24 43.32, 70.27 33.62, 88.82 15.12 M58.75 55 C67.54 43.99, 74.49 34.26, 87.06 19.21 M58.2 53.66 C68.31 43.26, 77.68 33.73, 87.44 20.1 M65.35 55.31 C74.25 46.41, 79.68 36.05, 89.34 27.61 M65.59 53.48 C69.03 47.21, 75.44 41.67, 87.07 26.78 M70 54.34 C72.75 50.33, 78.67 41.66, 89.57 32.52 M70.14 54.11 C77.07 45.74, 82.95 37.91, 88.89 32.69 M76.9 53.45 C80.06 49.69, 83.61 44.38, 88.61 40.21 M76.02 53.68 C78.07 51.2, 79.95 46.33, 86.92 38.53 M80.73 53.76 C83.06 51.61, 85.28 48.77, 89.29 45.5 M80.83 54.43 C82.71 51.8, 85.08 48.68, 87.75 44.73" stroke="#40c057" stroke-width="0.5" fill="none"></path><path d="M1.25 -1.38 C20.53 -0.92, 37.24 -0.61, 83.42 0.26 M0.54 0.74 C25.81 -0.17, 51.49 -0.43, 84.17 0.64 M83.62 -0.05 C87.29 12.48, 86.46 26.39, 86.21 54.96 M84.81 -0.13 C84.45 15.67, 84.97 33.07, 85.13 53.98 M84.41 53.56 C53.57 52.22, 19.99 53.1, -1 53.77 M85.19 52.88 C53.83 53.73, 21.55 53.62, 0.64 52.62 M0.84 53.59 C0.41 39.57, 0.34 28.73, -0.79 -0.21 M0.67 53.54 C-1 34.35, -0.07 15.87, 0.65 -0.69" stroke="#000000" stroke-width="1" fill="none"></path></g><g transform="translate(82.2109375 354.36328125) rotate(0 37.5 11.5)"><text x="37.5" y="18" font-family="Helvetica, Segoe UI Emoji" font-size="20px" fill="#000000" text-anchor="middle" style="white-space: pre;" direction="ltr">3</text></g><g stroke-linecap="round"><g transform="translate(109.4075874215996 191.71875) rotate(0 1.1735766053147927 19.07042039111255)"><path d="M1.12 -0.92 C1.6 5.43, 1.78 32.35, 2.09 39.06 M0.25 1.21 C0.63 7.13, 0.67 31.19, 1.07 37.23" stroke="#000000" stroke-width="1" fill="none"></path></g><g transform="translate(109.4075874215996 191.71875) rotate(0 1.1735766053147927 19.07042039111255)"><path d="M-7.55 19.09 C-3.34 24.71, -1.17 26.9, 1.95 35.71 M-5.86 18.96 C-3.63 24.02, -3.78 26.8, 1.89 36.29" stroke="#000000" stroke-width="1" fill="none"></path></g><g transform="translate(109.4075874215996 191.71875) rotate(0 1.1735766053147927 19.07042039111255)"><path d="M5.64 18.69 C6.73 24.53, 5.8 26.82, 1.95 35.71 M7.32 18.56 C6.69 23.74, 3.68 26.61, 1.89 36.29" stroke="#000000" stroke-width="1" fill="none"></path></g></g><g stroke-linecap="round"><g transform="translate(112.86968179889482 293.59375) rotate(0 1.151585025445229 22.5966798626678)"><path d="M0.17 -0.14 C0.67 7.65, 3.25 38.65, 3.5 46.45 M-1.19 -1.25 C-0.8 6.19, 2.22 36.96, 3.1 44.62" stroke="#000000" stroke-width="1" fill="none"></path></g><g transform="translate(112.86968179889482 293.59375) rotate(0 1.151585025445229 22.5966798626678)"><path d="M-7.19 25.72 C-2.64 29.63, 1.13 37.73, 3.06 46.03 M-6.04 23.01 C-4.72 29.71, -1.65 33.01, 2.48 44.41" stroke="#000000" stroke-width="1" fill="none"></path></g><g transform="translate(112.86968179889482 293.59375) rotate(0 1.151585025445229 22.5966798626678)"><path d="M8.45 24.09 C7.66 28.58, 6.1 37.23, 3.06 46.03 M9.6 21.38 C7.22 28.42, 6.58 32.12, 2.48 44.41" stroke="#000000" stroke-width="1" fill="none"></path></g></g><g transform="translate(188 152) rotate(0 84.5 11.5)"><text x="0" y="18" font-family="Helvetica, Segoe UI Emoji" font-size="20px" fill="#000000" text-anchor="start" style="white-space: pre;" direction="ltr">most recently used</text></g><g transform="translate(201.35546875 359.04296875) rotate(0 84 11.5)"><text x="0" y="18" font-family="Helvetica, Segoe UI Emoji" font-size="20px" fill="#000000" text-anchor="start" style="white-space: pre;" direction="ltr">least recently used</text></g><g transform="translate(10 158) rotate(0 23 11.5)"><text x="0" y="18" font-family="Helvetica, Segoe UI Emoji" font-size="20px" fill="#000000" text-anchor="start" style="white-space: pre;" direction="ltr">head</text></g><g transform="translate(29 365) rotate(0 13.5 11.5)"><text x="0" y="18" font-family="Helvetica, Segoe UI Emoji" font-size="20px" fill="#000000" text-anchor="start" style="white-space: pre;" direction="ltr">tail</text></g><g stroke-linecap="round"><g transform="translate(133.94140625 229.65234375) rotate(0 -0.0627213374607436 -20.392108108727257)"><path d="M1.04 -0.99 C1.04 -7.7, -0.96 -33.4, -1.2 -40.13 M0.13 1.11 C0.61 -5.96, 1.26 -34.99, 1.03 -41.89" stroke="#000000" stroke-width="1" fill="none"></path></g><g transform="translate(133.94140625 229.65234375) rotate(0 -0.0627213374607436 -20.392108108727257)"><path d="M6.36 -24.23 C7.75 -26.68, 4.31 -32.3, -0.22 -42.08 M8.86 -22.61 C7.02 -27.28, 4 -32.37, 1.26 -41.9" stroke="#000000" stroke-width="1" fill="none"></path></g><g transform="translate(133.94140625 229.65234375) rotate(0 -0.0627213374607436 -20.392108108727257)"><path d="M-7.61 -24.23 C-3.41 -26.81, -4.04 -32.42, -0.22 -42.08 M-5.1 -22.62 C-3.54 -27.22, -3.15 -32.31, 1.26 -41.9" stroke="#000000" stroke-width="1" fill="none"></path></g></g><g stroke-linecap="round"><g transform="translate(137.232421875 335.17578125) rotate(0 0.2519220531871724 -20.222975749522448)"><path d="M-0.67 0.94 C-0.64 -5.77, -0.16 -34.25, 0.09 -41.38 M1.18 0.38 C1.09 -6.06, -0.58 -33.22, -0.66 -40.14" stroke="#000000" stroke-width="1" fill="none"></path></g><g transform="translate(137.232421875 335.17578125) rotate(0 0.2519220531871724 -20.222975749522448)"><path d="M8.63 -20.62 C4.07 -24.93, 1 -30.93, 0.88 -38.62 M7.31 -20.78 C5.43 -25.08, 2.8 -30.28, -0.9 -39.39" stroke="#000000" stroke-width="1" fill="none"></path></g><g transform="translate(137.232421875 335.17578125) rotate(0 0.2519220531871724 -20.222975749522448)"><path d="M-5.32 -20.07 C-5.8 -24.46, -4.79 -30.63, 0.88 -38.62 M-6.64 -20.23 C-5.44 -24.78, -4.98 -30.11, -0.9 -39.39" stroke="#000000" stroke-width="1" fill="none"></path></g></g></svg>